<svg xmlns="http://www.w3.org/2000/svg" xmlns:xlink="http://www.w3.org/1999/xlink" contentStyleType="text/css" data-diagram-type="DESCRIPTION" height="529px" preserveAspectRatio="none" style="width:3407px;height:529px;background:#FFFFFF;" version="1.1" viewBox="0 0 3407 529" width="3407px" zoomAndPan="magnify"><title>Ensemble Learning System - Updated Architecture</title><defs/><g><g class="title" data-source-line="1"><text fill="#000000" font-family="sans-serif" font-size="14" font-weight="bold" lengthAdjust="spacing" textLength="399.6973" x="1496.6514" y="22.9951">Ensemble Learning System - Updated Architecture</text></g><!--cluster Orchestration--><g class="cluster" data-entity="Orchestration" data-source-line="3" data-uid="ent0002" id="cluster_Orchestration"><path d="M1476.5,51.4469 L1586.5195,51.4469 A3.75,3.75 0 0 1 1589.0195,53.9469 L1596.0195,73.7437 L1651.5,73.7437 A2.5,2.5 0 0 1 1654,76.2437 L1654,146.2369 A2.5,2.5 0 0 1 1651.5,148.7369 L1476.5,148.7369 A2.5,2.5 0 0 1 1474,146.2369 L1474,53.9469 A2.5,2.5 0 0 1 1476.5,51.4469" fill="none" style="stroke:#000000;stroke-width:1.5;"/><line style="stroke:#000000;stroke-width:1.5;" x1="1474" x2="1596.0195" y1="73.7437" y2="73.7437"/><text fill="#000000" font-family="sans-serif" font-size="14" font-weight="bold" lengthAdjust="spacing" textLength="109.0195" x="1478" y="66.442">Orchestration</text></g><!--cluster Execution Engines--><g class="cluster" data-entity="Execution Engines" data-source-line="7" data-uid="ent0004" id="cluster_Execution Engines"><path d="M2317.5,43.2969 L2462.9502,43.2969 A3.75,3.75 0 0 1 2465.4502,45.7969 L2472.4502,65.5938 L2861.5,65.5938 A2.5,2.5 0 0 1 2864,68.0938 L2864,154.3869 A2.5,2.5 0 0 1 2861.5,156.8869 L2317.5,156.8869 A2.5,2.5 0 0 1 2315,154.3869 L2315,45.7969 A2.5,2.5 0 0 1 2317.5,43.2969" fill="none" style="stroke:#000000;stroke-width:1.5;"/><line style="stroke:#000000;stroke-width:1.5;" x1="2315" x2="2472.4502" y1="65.5938" y2="65.5938"/><text fill="#000000" font-family="sans-serif" font-size="14" font-weight="bold" lengthAdjust="spacing" textLength="144.4502" x="2319" y="58.292">Execution Engines</text></g><!--cluster Shared Logic--><g class="cluster" data-entity="Shared Logic" data-source-line="12" data-uid="ent0007" id="cluster_Shared Logic"><path d="M1373.5,310.3369 L1476.9502,310.3369 A3.75,3.75 0 0 1 1479.4502,312.8369 L1486.4502,332.6337 L1887.5,332.6337 A2.5,2.5 0 0 1 1890,335.1337 L1890,405.1269 A2.5,2.5 0 0 1 1887.5,407.6269 L1373.5,407.6269 A2.5,2.5 0 0 1 1371,405.1269 L1371,312.8369 A2.5,2.5 0 0 1 1373.5,310.3369" fill="none" style="stroke:#000000;stroke-width:1.5;"/><line style="stroke:#000000;stroke-width:1.5;" x1="1371" x2="1486.4502" y1="332.6337" y2="332.6337"/><text fill="#000000" font-family="sans-serif" font-size="14" font-weight="bold" lengthAdjust="spacing" textLength="102.4502" x="1375" y="325.332">Shared Logic</text></g><!--cluster Evaluation & Visualization--><g class="cluster" data-entity="Evaluation &amp; Visualization" data-source-line="18" data-uid="ent0011" id="cluster_Evaluation &amp; Visualization"><path d="M2515.5,180.8869 L2723.5332,180.8869 A3.75,3.75 0 0 1 2726.0332,183.3869 L2733.0332,203.1837 L2933.5,203.1837 A2.5,2.5 0 0 1 2936,205.6837 L2936,275.6869 A2.5,2.5 0 0 1 2933.5,278.1869 L2515.5,278.1869 A2.5,2.5 0 0 1 2513,275.6869 L2513,183.3869 A2.5,2.5 0 0 1 2515.5,180.8869" fill="none" style="stroke:#000000;stroke-width:1.5;"/><line style="stroke:#000000;stroke-width:1.5;" x1="2513" x2="2733.0332" y1="203.1837" y2="203.1837"/><text fill="#000000" font-family="sans-serif" font-size="14" font-weight="bold" lengthAdjust="spacing" textLength="207.0332" x="2517" y="195.882">Evaluation &amp; Visualization</text></g><!--cluster Distributed Logic--><g class="cluster" data-entity="Distributed Logic" data-source-line="23" data-uid="ent0014" id="cluster_Distributed Logic"><path d="M1966.5,302.1869 L2103.3779,302.1869 A3.75,3.75 0 0 1 2105.8779,304.6869 L2112.8779,324.4838 L2394.5,324.4838 A2.5,2.5 0 0 1 2397,326.9838 L2397,519.5769 A2.5,2.5 0 0 1 2394.5,522.0769 L1966.5,522.0769 A2.5,2.5 0 0 1 1964,519.5769 L1964,304.6869 A2.5,2.5 0 0 1 1966.5,302.1869" fill="none" style="stroke:#000000;stroke-width:1.5;"/><line style="stroke:#000000;stroke-width:1.5;" x1="1964" x2="2112.8779" y1="324.4838" y2="324.4838"/><text fill="#000000" font-family="sans-serif" font-size="14" font-weight="bold" lengthAdjust="spacing" textLength="135.8779" x="1968" y="317.182">Distributed Logic</text></g><!--cluster Data & Configs--><g class="cluster" data-entity="Data &amp; Configs" data-source-line="29" data-uid="ent0018" id="cluster_Data &amp; Configs"><path d="M8.5,180.8869 L127.7686,180.8869 A3.75,3.75 0 0 1 130.2686,183.3869 L137.2686,203.1837 L559.5,203.1837 A2.5,2.5 0 0 1 562,205.6837 L562,405.1269 A2.5,2.5 0 0 1 559.5,407.6269 L8.5,407.6269 A2.5,2.5 0 0 1 6,405.1269 L6,183.3869 A2.5,2.5 0 0 1 8.5,180.8869" fill="none" style="stroke:#000000;stroke-width:1.5;"/><line style="stroke:#000000;stroke-width:1.5;" x1="6" x2="137.2686" y1="203.1837" y2="203.1837"/><text fill="#000000" font-family="sans-serif" font-size="14" font-weight="bold" lengthAdjust="spacing" textLength="118.2686" x="10" y="195.882">Data &amp; Configs</text></g><!--cluster Status Tracking--><g class="cluster" data-entity="Status Tracking" data-source-line="37" data-uid="ent0024" id="cluster_Status Tracking"><path d="M588.5,310.3369 L713.8867,310.3369 A3.75,3.75 0 0 1 716.3867,312.8369 L723.3867,332.6337 L1344.5,332.6337 A2.5,2.5 0 0 1 1347,335.1337 L1347,405.1269 A2.5,2.5 0 0 1 1344.5,407.6269 L588.5,407.6269 A2.5,2.5 0 0 1 586,405.1269 L586,312.8369 A2.5,2.5 0 0 1 588.5,310.3369" fill="none" style="stroke:#000000;stroke-width:1.5;"/><line style="stroke:#000000;stroke-width:1.5;" x1="586" x2="723.3867" y1="332.6337" y2="332.6337"/><text fill="#000000" font-family="sans-serif" font-size="14" font-weight="bold" lengthAdjust="spacing" textLength="124.3867" x="590" y="325.332">Status Tracking</text></g><!--cluster Results--><g class="cluster" data-entity="Results" data-source-line="43" data-uid="ent0028" id="cluster_Results"><path d="M2423.5,302.1869 L2482.8994,302.1869 A3.75,3.75 0 0 1 2485.3994,304.6869 L2492.3994,324.4838 L3397.5,324.4838 A2.5,2.5 0 0 1 3400,326.9838 L3400,413.2769 A2.5,2.5 0 0 1 3397.5,415.7769 L2423.5,415.7769 A2.5,2.5 0 0 1 2421,413.2769 L2421,304.6869 A2.5,2.5 0 0 1 2423.5,302.1869" fill="none" style="stroke:#000000;stroke-width:1.5;"/><line style="stroke:#000000;stroke-width:1.5;" x1="2421" x2="2492.3994" y1="324.4838" y2="324.4838"/><text fill="#000000" font-family="sans-serif" font-size="14" font-weight="bold" lengthAdjust="spacing" textLength="58.3994" x="2425" y="317.182">Results</text></g><!--entity run_pipeline.py--><g class="entity" data-entity="run_pipeline.py" data-source-line="4" data-uid="ent0003" id="entity_run_pipeline.py"><rect fill="#F1F1F1" height="46.2969" rx="2.5" ry="2.5" style="stroke:#181818;stroke-width:0.5;" width="147.666" x="1490.17" y="86.4469"/><rect fill="#F1F1F1" height="10" style="stroke:#181818;stroke-width:0.5;" width="15" x="1617.836" y="91.4469"/><rect fill="#F1F1F1" height="2" style="stroke:#181818;stroke-width:0.5;" width="4" x="1615.836" y="93.4469"/><rect fill="#F1F1F1" height="2" style="stroke:#181818;stroke-width:0.5;" width="4" x="1615.836" y="97.4469"/><text fill="#000000" font-family="sans-serif" font-size="14" lengthAdjust="spacing" textLength="107.666" x="1505.17" y="119.442">run_pipeline.py</text></g><!--entity Monolithic Runner\n(main_monolithic.py)--><g class="entity" data-entity="Monolithic Runner\n(main_monolithic.py)" data-source-line="8" data-uid="ent0005" id="entity_Monolithic Runner\n(main_monolithic.py)"><rect fill="#F1F1F1" height="62.5938" rx="2.5" ry="2.5" style="stroke:#181818;stroke-width:0.5;" width="187.8955" x="2331.05" y="78.2969"/><rect fill="#F1F1F1" height="10" style="stroke:#181818;stroke-width:0.5;" width="15" x="2498.9455" y="83.2969"/><rect fill="#F1F1F1" height="2" style="stroke:#181818;stroke-width:0.5;" width="4" x="2496.9455" y="85.2969"/><rect fill="#F1F1F1" height="2" style="stroke:#181818;stroke-width:0.5;" width="4" x="2496.9455" y="89.2969"/><text fill="#000000" font-family="sans-serif" font-size="14" lengthAdjust="spacing" textLength="126.9775" x="2346.05" y="111.292">Monolithic Runner</text><text fill="#000000" font-family="sans-serif" font-size="14" lengthAdjust="spacing" textLength="147.8955" x="2346.05" y="127.5889">(main_monolithic.py)</text></g><!--entity Distributed Runner\n(main.py - -role=worker|coordinator)--><g class="entity" data-entity="Distributed Runner\n(main.py --role=worker|coordinator)" data-source-line="9" data-uid="ent0006" id="entity_Distributed Runner\n(main.py --role=worker|coordinator)"><rect fill="#F1F1F1" height="62.5938" rx="2.5" ry="2.5" style="stroke:#181818;stroke-width:0.5;" width="294.2217" x="2553.89" y="78.2969"/><rect fill="#F1F1F1" height="10" style="stroke:#181818;stroke-width:0.5;" width="15" x="2828.1117" y="83.2969"/><rect fill="#F1F1F1" height="2" style="stroke:#181818;stroke-width:0.5;" width="4" x="2826.1117" y="85.2969"/><rect fill="#F1F1F1" height="2" style="stroke:#181818;stroke-width:0.5;" width="4" x="2826.1117" y="89.2969"/><text fill="#000000" font-family="sans-serif" font-size="14" lengthAdjust="spacing" textLength="133.0137" x="2568.89" y="111.292">Distributed Runner</text><text fill="#000000" font-family="sans-serif" font-size="14" lengthAdjust="spacing" textLength="254.2217" x="2568.89" y="127.5889">(main.py --role=worker|coordinator)</text></g><!--entity DataLoader--><g class="entity" data-entity="DataLoader" data-source-line="13" data-uid="ent0008" id="entity_DataLoader"><rect fill="#F1F1F1" height="46.2969" rx="2.5" ry="2.5" style="stroke:#181818;stroke-width:0.5;" width="121.6279" x="1571.19" y="345.3369"/><rect fill="#F1F1F1" height="10" style="stroke:#181818;stroke-width:0.5;" width="15" x="1672.8179" y="350.3369"/><rect fill="#F1F1F1" height="2" style="stroke:#181818;stroke-width:0.5;" width="4" x="1670.8179" y="352.3369"/><rect fill="#F1F1F1" height="2" style="stroke:#181818;stroke-width:0.5;" width="4" x="1670.8179" y="356.3369"/><text fill="#000000" font-family="sans-serif" font-size="14" lengthAdjust="spacing" textLength="81.6279" x="1586.19" y="378.332">DataLoader</text></g><!--entity ModelInitializer--><g class="entity" data-entity="ModelInitializer" data-source-line="14" data-uid="ent0009" id="entity_ModelInitializer"><rect fill="#F1F1F1" height="46.2969" rx="2.5" ry="2.5" style="stroke:#181818;stroke-width:0.5;" width="146.3809" x="1727.81" y="345.3369"/><rect fill="#F1F1F1" height="10" style="stroke:#181818;stroke-width:0.5;" width="15" x="1854.1909" y="350.3369"/><rect fill="#F1F1F1" height="2" style="stroke:#181818;stroke-width:0.5;" width="4" x="1852.1909" y="352.3369"/><rect fill="#F1F1F1" height="2" style="stroke:#181818;stroke-width:0.5;" width="4" x="1852.1909" y="356.3369"/><text fill="#000000" font-family="sans-serif" font-size="14" lengthAdjust="spacing" textLength="106.3809" x="1742.81" y="378.332">ModelInitializer</text></g><!--entity ResultSerializer--><g class="entity" data-entity="ResultSerializer" data-source-line="15" data-uid="ent0010" id="entity_ResultSerializer"><rect fill="#F1F1F1" height="46.2969" rx="2.5" ry="2.5" style="stroke:#181818;stroke-width:0.5;" width="149.1084" x="1387.45" y="345.3369"/><rect fill="#F1F1F1" height="10" style="stroke:#181818;stroke-width:0.5;" width="15" x="1516.5584" y="350.3369"/><rect fill="#F1F1F1" height="2" style="stroke:#181818;stroke-width:0.5;" width="4" x="1514.5584" y="352.3369"/><rect fill="#F1F1F1" height="2" style="stroke:#181818;stroke-width:0.5;" width="4" x="1514.5584" y="356.3369"/><text fill="#000000" font-family="sans-serif" font-size="14" lengthAdjust="spacing" textLength="109.1084" x="1402.45" y="378.332">ResultSerializer</text></g><!--entity evaluate_results.py--><g class="entity" data-entity="evaluate_results.py" data-source-line="19" data-uid="ent0012" id="entity_evaluate_results.py"><rect fill="#F1F1F1" height="46.2969" rx="2.5" ry="2.5" style="stroke:#181818;stroke-width:0.5;" width="176.7529" x="2528.62" y="215.8869"/><rect fill="#F1F1F1" height="10" style="stroke:#181818;stroke-width:0.5;" width="15" x="2685.3729" y="220.8869"/><rect fill="#F1F1F1" height="2" style="stroke:#181818;stroke-width:0.5;" width="4" x="2683.3729" y="222.8869"/><rect fill="#F1F1F1" height="2" style="stroke:#181818;stroke-width:0.5;" width="4" x="2683.3729" y="226.8869"/><text fill="#000000" font-family="sans-serif" font-size="14" lengthAdjust="spacing" textLength="136.7529" x="2543.62" y="248.882">evaluate_results.py</text></g><!--entity generate_visuals.py--><g class="entity" data-entity="generate_visuals.py" data-source-line="20" data-uid="ent0013" id="entity_generate_visuals.py"><rect fill="#F1F1F1" height="46.2969" rx="2.5" ry="2.5" style="stroke:#181818;stroke-width:0.5;" width="180.1504" x="2739.92" y="215.8869"/><rect fill="#F1F1F1" height="10" style="stroke:#181818;stroke-width:0.5;" width="15" x="2900.0704" y="220.8869"/><rect fill="#F1F1F1" height="2" style="stroke:#181818;stroke-width:0.5;" width="4" x="2898.0704" y="222.8869"/><rect fill="#F1F1F1" height="2" style="stroke:#181818;stroke-width:0.5;" width="4" x="2898.0704" y="226.8869"/><text fill="#000000" font-family="sans-serif" font-size="14" lengthAdjust="spacing" textLength="140.1504" x="2754.92" y="248.882">generate_visuals.py</text></g><!--entity Task Coordinator--><g class="entity" data-entity="Task Coordinator" data-source-line="24" data-uid="ent0015" id="entity_Task Coordinator"><rect fill="#F1F1F1" height="46.2969" rx="2.5" ry="2.5" style="stroke:#181818;stroke-width:0.5;" width="159.6836" x="1980.16" y="345.3369"/><rect fill="#F1F1F1" height="10" style="stroke:#181818;stroke-width:0.5;" width="15" x="2119.8436" y="350.3369"/><rect fill="#F1F1F1" height="2" style="stroke:#181818;stroke-width:0.5;" width="4" x="2117.8436" y="352.3369"/><rect fill="#F1F1F1" height="2" style="stroke:#181818;stroke-width:0.5;" width="4" x="2117.8436" y="356.3369"/><text fill="#000000" font-family="sans-serif" font-size="14" lengthAdjust="spacing" textLength="119.6836" x="1995.16" y="378.332">Task Coordinator</text></g><!--entity Worker Handler--><g class="entity" data-entity="Worker Handler" data-source-line="25" data-uid="ent0016" id="entity_Worker Handler"><rect fill="#F1F1F1" height="46.2969" rx="2.5" ry="2.5" style="stroke:#181818;stroke-width:0.5;" width="150.2158" x="1984.89" y="459.7769"/><rect fill="#F1F1F1" height="10" style="stroke:#181818;stroke-width:0.5;" width="15" x="2115.1058" y="464.7769"/><rect fill="#F1F1F1" height="2" style="stroke:#181818;stroke-width:0.5;" width="4" x="2113.1058" y="466.7769"/><rect fill="#F1F1F1" height="2" style="stroke:#181818;stroke-width:0.5;" width="4" x="2113.1058" y="470.7769"/><text fill="#000000" font-family="sans-serif" font-size="14" lengthAdjust="spacing" textLength="110.2158" x="1999.89" y="492.772">Worker Handler</text></g><!--entity Fold State Tracker\n(READY, FAILED, DONE)--><g class="entity" data-entity="Fold State Tracker\n(READY, FAILED, DONE)" data-source-line="26" data-uid="ent0017" id="entity_Fold State Tracker\n(READY, FAILED, DONE)"><rect fill="#F1F1F1" height="62.5938" rx="2.5" ry="2.5" style="stroke:#181818;stroke-width:0.5;" width="206.5098" x="2174.75" y="337.1869"/><rect fill="#F1F1F1" height="10" style="stroke:#181818;stroke-width:0.5;" width="15" x="2361.2598" y="342.1869"/><rect fill="#F1F1F1" height="2" style="stroke:#181818;stroke-width:0.5;" width="4" x="2359.2598" y="344.1869"/><rect fill="#F1F1F1" height="2" style="stroke:#181818;stroke-width:0.5;" width="4" x="2359.2598" y="348.1869"/><text fill="#000000" font-family="sans-serif" font-size="14" lengthAdjust="spacing" textLength="128.4131" x="2189.75" y="370.182">Fold State Tracker</text><text fill="#000000" font-family="sans-serif" font-size="14" lengthAdjust="spacing" textLength="166.5098" x="2189.75" y="386.4789">(READY, FAILED, DONE)</text></g><!--entity Datasets (.csv)--><g class="entity" data-entity="Datasets (.csv)" data-source-line="30" data-uid="ent0019" id="entity_Datasets (.csv)"><rect fill="#F1F1F1" height="46.2969" rx="2.5" ry="2.5" style="stroke:#181818;stroke-width:0.5;" width="145.2188" x="22.39" y="215.8869"/><rect fill="#F1F1F1" height="10" style="stroke:#181818;stroke-width:0.5;" width="15" x="147.6088" y="220.8869"/><rect fill="#F1F1F1" height="2" style="stroke:#181818;stroke-width:0.5;" width="4" x="145.6088" y="222.8869"/><rect fill="#F1F1F1" height="2" style="stroke:#181818;stroke-width:0.5;" width="4" x="145.6088" y="226.8869"/><text fill="#000000" font-family="sans-serif" font-size="14" lengthAdjust="spacing" textLength="105.2188" x="37.39" y="248.882">Datasets (.csv)</text></g><!--entity job.json--><g class="entity" data-entity="job.json" data-source-line="31" data-uid="ent0020" id="entity_job.json"><rect fill="#F1F1F1" height="46.2969" rx="2.5" ry="2.5" style="stroke:#181818;stroke-width:0.5;" width="94.4141" x="202.79" y="215.8869"/><rect fill="#F1F1F1" height="10" style="stroke:#181818;stroke-width:0.5;" width="15" x="277.2041" y="220.8869"/><rect fill="#F1F1F1" height="2" style="stroke:#181818;stroke-width:0.5;" width="4" x="275.2041" y="222.8869"/><rect fill="#F1F1F1" height="2" style="stroke:#181818;stroke-width:0.5;" width="4" x="275.2041" y="226.8869"/><text fill="#000000" font-family="sans-serif" font-size="14" lengthAdjust="spacing" textLength="54.4141" x="217.79" y="248.882">job.json</text></g><!--entity system.json--><g class="entity" data-entity="system.json" data-source-line="32" data-uid="ent0021" id="entity_system.json"><rect fill="#F1F1F1" height="46.2969" rx="2.5" ry="2.5" style="stroke:#181818;stroke-width:0.5;" width="123.6855" x="33.16" y="345.3369"/><rect fill="#F1F1F1" height="10" style="stroke:#181818;stroke-width:0.5;" width="15" x="136.8455" y="350.3369"/><rect fill="#F1F1F1" height="2" style="stroke:#181818;stroke-width:0.5;" width="4" x="134.8455" y="352.3369"/><rect fill="#F1F1F1" height="2" style="stroke:#181818;stroke-width:0.5;" width="4" x="134.8455" y="356.3369"/><text fill="#000000" font-family="sans-serif" font-size="14" lengthAdjust="spacing" textLength="83.6855" x="48.16" y="378.332">system.json</text></g><!--entity feature_mapping.csv--><g class="entity" data-entity="feature_mapping.csv" data-source-line="33" data-uid="ent0022" id="entity_feature_mapping.csv"><rect fill="#F1F1F1" height="46.2969" rx="2.5" ry="2.5" style="stroke:#181818;stroke-width:0.5;" width="187.2188" x="191.39" y="345.3369"/><rect fill="#F1F1F1" height="10" style="stroke:#181818;stroke-width:0.5;" width="15" x="358.6088" y="350.3369"/><rect fill="#F1F1F1" height="2" style="stroke:#181818;stroke-width:0.5;" width="4" x="356.6088" y="352.3369"/><rect fill="#F1F1F1" height="2" style="stroke:#181818;stroke-width:0.5;" width="4" x="356.6088" y="356.3369"/><text fill="#000000" font-family="sans-serif" font-size="14" lengthAdjust="spacing" textLength="147.2188" x="206.39" y="378.332">feature_mapping.csv</text></g><!--entity experiment_pipeline.yml--><g class="entity" data-entity="experiment_pipeline.yml" data-source-line="34" data-uid="ent0023" id="entity_experiment_pipeline.yml"><rect fill="#F1F1F1" height="46.2969" rx="2.5" ry="2.5" style="stroke:#181818;stroke-width:0.5;" width="213.4619" x="332.27" y="215.8869"/><rect fill="#F1F1F1" height="10" style="stroke:#181818;stroke-width:0.5;" width="15" x="525.7319" y="220.8869"/><rect fill="#F1F1F1" height="2" style="stroke:#181818;stroke-width:0.5;" width="4" x="523.7319" y="222.8869"/><rect fill="#F1F1F1" height="2" style="stroke:#181818;stroke-width:0.5;" width="4" x="523.7319" y="226.8869"/><text fill="#000000" font-family="sans-serif" font-size="14" lengthAdjust="spacing" textLength="173.4619" x="347.27" y="248.882">experiment_pipeline.yml</text></g><!--entity status/<dataset>/status.json--><g class="entity" data-entity="status/&lt;dataset&gt;/status.json" data-source-line="38" data-uid="ent0025" id="entity_status/&lt;dataset&gt;/status.json"><rect fill="#F1F1F1" height="46.2969" rx="2.5" ry="2.5" style="stroke:#181818;stroke-width:0.5;" width="244.9346" x="601.53" y="345.3369"/><rect fill="#F1F1F1" height="10" style="stroke:#181818;stroke-width:0.5;" width="15" x="826.4646" y="350.3369"/><rect fill="#F1F1F1" height="2" style="stroke:#181818;stroke-width:0.5;" width="4" x="824.4646" y="352.3369"/><rect fill="#F1F1F1" height="2" style="stroke:#181818;stroke-width:0.5;" width="4" x="824.4646" y="356.3369"/><text fill="#000000" font-family="sans-serif" font-size="14" lengthAdjust="spacing" textLength="204.9346" x="616.53" y="378.332">status/&lt;dataset&gt;/status.json</text></g><!--entity status/<dataset>/fold_<i>.json--><g class="entity" data-entity="status/&lt;dataset&gt;/fold_&lt;i&gt;.json" data-source-line="39" data-uid="ent0026" id="entity_status/&lt;dataset&gt;/fold_&lt;i&gt;.json"><rect fill="#F1F1F1" height="46.2969" rx="2.5" ry="2.5" style="stroke:#181818;stroke-width:0.5;" width="235.1865" x="1095.41" y="345.3369"/><rect fill="#F1F1F1" height="10" style="stroke:#181818;stroke-width:0.5;" width="15" x="1310.5965" y="350.3369"/><rect fill="#F1F1F1" height="2" style="stroke:#181818;stroke-width:0.5;" width="4" x="1308.5965" y="352.3369"/><rect fill="#F1F1F1" height="2" style="stroke:#181818;stroke-width:0.5;" width="4" x="1308.5965" y="356.3369"/><text fill="#000000" font-family="sans-serif" font-size="14" lengthAdjust="spacing" textLength="162.1143" x="1110.41" y="378.332">status/&lt;dataset&gt;/fold_</text><text fill="#000000" font-family="sans-serif" font-size="14" font-style="italic" lengthAdjust="spacing" textLength="33.0723" x="1272.5243" y="378.332">.json</text></g><!--entity pipeline_status.json--><g class="entity" data-entity="pipeline_status.json" data-source-line="40" data-uid="ent0027" id="entity_pipeline_status.json"><rect fill="#F1F1F1" height="46.2969" rx="2.5" ry="2.5" style="stroke:#181818;stroke-width:0.5;" width="178.6328" x="881.68" y="345.3369"/><rect fill="#F1F1F1" height="10" style="stroke:#181818;stroke-width:0.5;" width="15" x="1040.3128" y="350.3369"/><rect fill="#F1F1F1" height="2" style="stroke:#181818;stroke-width:0.5;" width="4" x="1038.3128" y="352.3369"/><rect fill="#F1F1F1" height="2" style="stroke:#181818;stroke-width:0.5;" width="4" x="1038.3128" y="356.3369"/><text fill="#000000" font-family="sans-serif" font-size="14" lengthAdjust="spacing" textLength="138.6328" x="896.68" y="378.332">pipeline_status.json</text></g><!--entity Fold Output (.csv/.json)\n(predictions, probs, ranks)--><g class="entity" data-entity="Fold Output (.csv/.json)\n(predictions, probs, ranks)" data-source-line="44" data-uid="ent0029" id="entity_Fold Output (.csv/.json)\n(predictions, probs, ranks)"><rect fill="#F1F1F1" height="62.5938" rx="2.5" ry="2.5" style="stroke:#181818;stroke-width:0.5;" width="224.5635" x="2436.72" y="337.1869"/><rect fill="#F1F1F1" height="10" style="stroke:#181818;stroke-width:0.5;" width="15" x="2641.2835" y="342.1869"/><rect fill="#F1F1F1" height="2" style="stroke:#181818;stroke-width:0.5;" width="4" x="2639.2835" y="344.1869"/><rect fill="#F1F1F1" height="2" style="stroke:#181818;stroke-width:0.5;" width="4" x="2639.2835" y="348.1869"/><text fill="#000000" font-family="sans-serif" font-size="14" lengthAdjust="spacing" textLength="163.3652" x="2451.72" y="370.182">Fold Output (.csv/.json)</text><text fill="#000000" font-family="sans-serif" font-size="14" lengthAdjust="spacing" textLength="184.5635" x="2451.72" y="386.4789">(predictions, probs, ranks)</text></g><!--entity Evaluation Summary (.json/.csv)--><g class="entity" data-entity="Evaluation Summary (.json/.csv)" data-source-line="45" data-uid="ent0030" id="entity_Evaluation Summary (.json/.csv)"><rect fill="#F1F1F1" height="46.2969" rx="2.5" ry="2.5" style="stroke:#181818;stroke-width:0.5;" width="266.8643" x="2696.57" y="345.3369"/><rect fill="#F1F1F1" height="10" style="stroke:#181818;stroke-width:0.5;" width="15" x="2943.4343" y="350.3369"/><rect fill="#F1F1F1" height="2" style="stroke:#181818;stroke-width:0.5;" width="4" x="2941.4343" y="352.3369"/><rect fill="#F1F1F1" height="2" style="stroke:#181818;stroke-width:0.5;" width="4" x="2941.4343" y="356.3369"/><text fill="#000000" font-family="sans-serif" font-size="14" lengthAdjust="spacing" textLength="226.8643" x="2711.57" y="378.332">Evaluation Summary (.json/.csv)</text></g><!--entity Plots (.png)--><g class="entity" data-entity="Plots (.png)" data-source-line="46" data-uid="ent0031" id="entity_Plots (.png)"><rect fill="#F1F1F1" height="46.2969" rx="2.5" ry="2.5" style="stroke:#181818;stroke-width:0.5;" width="120.1514" x="2998.92" y="345.3369"/><rect fill="#F1F1F1" height="10" style="stroke:#181818;stroke-width:0.5;" width="15" x="3099.0714" y="350.3369"/><rect fill="#F1F1F1" height="2" style="stroke:#181818;stroke-width:0.5;" width="4" x="3097.0714" y="352.3369"/><rect fill="#F1F1F1" height="2" style="stroke:#181818;stroke-width:0.5;" width="4" x="3097.0714" y="356.3369"/><text fill="#000000" font-family="sans-serif" font-size="14" lengthAdjust="spacing" textLength="80.1514" x="3013.92" y="378.332">Plots (.png)</text></g><!--entity Motion Canvas Data (.json)--><g class="entity" data-entity="Motion Canvas Data (.json)" data-source-line="47" data-uid="ent0032" id="entity_Motion Canvas Data (.json)"><rect fill="#F1F1F1" height="46.2969" rx="2.5" ry="2.5" style="stroke:#181818;stroke-width:0.5;" width="229.6221" x="3154.19" y="345.3369"/><rect fill="#F1F1F1" height="10" style="stroke:#181818;stroke-width:0.5;" width="15" x="3363.8121" y="350.3369"/><rect fill="#F1F1F1" height="2" style="stroke:#181818;stroke-width:0.5;" width="4" x="3361.8121" y="352.3369"/><rect fill="#F1F1F1" height="2" style="stroke:#181818;stroke-width:0.5;" width="4" x="3361.8121" y="356.3369"/><text fill="#000000" font-family="sans-serif" font-size="14" lengthAdjust="spacing" textLength="189.6221" x="3169.19" y="378.332">Motion Canvas Data (.json)</text></g><!--entity Monolithic Runner--><g class="entity" data-entity="Monolithic Runner" data-source-line="51" data-uid="ent0034" id="entity_Monolithic Runner"><rect fill="#F1F1F1" height="46.2969" rx="2.5" ry="2.5" style="stroke:#181818;stroke-width:0.5;" width="166.9775" x="1378.51" y="215.8869"/><rect fill="#F1F1F1" height="10" style="stroke:#181818;stroke-width:0.5;" width="15" x="1525.4875" y="220.8869"/><rect fill="#F1F1F1" height="2" style="stroke:#181818;stroke-width:0.5;" width="4" x="1523.4875" y="222.8869"/><rect fill="#F1F1F1" height="2" style="stroke:#181818;stroke-width:0.5;" width="4" x="1523.4875" y="226.8869"/><text fill="#000000" font-family="sans-serif" font-size="14" lengthAdjust="spacing" textLength="126.9775" x="1393.51" y="248.882">Monolithic Runner</text></g><!--entity Distributed Runner--><g class="entity" data-entity="Distributed Runner" data-source-line="52" data-uid="ent0036" id="entity_Distributed Runner"><rect fill="#F1F1F1" height="46.2969" rx="2.5" ry="2.5" style="stroke:#181818;stroke-width:0.5;" width="173.0137" x="1580.49" y="215.8869"/><rect fill="#F1F1F1" height="10" style="stroke:#181818;stroke-width:0.5;" width="15" x="1733.5037" y="220.8869"/><rect fill="#F1F1F1" height="2" style="stroke:#181818;stroke-width:0.5;" width="4" x="1731.5037" y="222.8869"/><rect fill="#F1F1F1" height="2" style="stroke:#181818;stroke-width:0.5;" width="4" x="1731.5037" y="226.8869"/><text fill="#000000" font-family="sans-serif" font-size="14" lengthAdjust="spacing" textLength="133.0137" x="1595.49" y="248.882">Distributed Runner</text></g><!--entity Fold State Tracker--><g class="entity" data-entity="Fold State Tracker" data-source-line="67" data-uid="ent0050" id="entity_Fold State Tracker"><rect fill="#F1F1F1" height="46.2969" rx="2.5" ry="2.5" style="stroke:#181818;stroke-width:0.5;" width="168.4131" x="1779.79" y="459.7769"/><rect fill="#F1F1F1" height="10" style="stroke:#181818;stroke-width:0.5;" width="15" x="1928.2031" y="464.7769"/><rect fill="#F1F1F1" height="2" style="stroke:#181818;stroke-width:0.5;" width="4" x="1926.2031" y="466.7769"/><rect fill="#F1F1F1" height="2" style="stroke:#181818;stroke-width:0.5;" width="4" x="1926.2031" y="470.7769"/><text fill="#000000" font-family="sans-serif" font-size="14" lengthAdjust="spacing" textLength="128.4131" x="1794.79" y="492.772">Fold State Tracker</text></g><!--entity Fold Output (.csv/.json)--><g class="entity" data-entity="Fold Output (.csv/.json)" data-source-line="70" data-uid="ent0053" id="entity_Fold Output (.csv/.json)"><rect fill="#F1F1F1" height="46.2969" rx="2.5" ry="2.5" style="stroke:#181818;stroke-width:0.5;" width="203.3652" x="1451.32" y="459.7769"/><rect fill="#F1F1F1" height="10" style="stroke:#181818;stroke-width:0.5;" width="15" x="1634.6852" y="464.7769"/><rect fill="#F1F1F1" height="2" style="stroke:#181818;stroke-width:0.5;" width="4" x="1632.6852" y="466.7769"/><rect fill="#F1F1F1" height="2" style="stroke:#181818;stroke-width:0.5;" width="4" x="1632.6852" y="470.7769"/><text fill="#000000" font-family="sans-serif" font-size="14" lengthAdjust="spacing" textLength="163.3652" x="1466.32" y="492.772">Fold Output (.csv/.json)</text></g><!--link run_pipeline.py to experiment_pipeline.yml--><g class="link" data-entity-1="run_pipeline.py" data-entity-2="experiment_pipeline.yml" data-source-line="50" data-uid="lnk33" id="link_run_pipeline.py_experiment_pipeline.yml"><path d="M1489.75,119.0069 C1295.67,140.9869 778.6019,199.5614 552.0319,225.2314" fill="none" id="run_pipeline.py-to-experiment_pipeline.yml" style="stroke:#181818;stroke-width:1;"/><polygon fill="#181818" points="546.07,225.9069,555.4631,228.8682,551.0382,225.344,554.5625,220.9191,546.07,225.9069" style="stroke:#181818;stroke-width:1;"/></g><!--link run_pipeline.py to Monolithic Runner--><g class="link" data-entity-1="run_pipeline.py" data-entity-2="Monolithic Runner" data-source-line="51" data-uid="lnk35" id="link_run_pipeline.py_Monolithic Runner"><path d="M1546,133.0869 C1527.35,156.3769 1502.1496,187.8728 1483.5696,211.0828" fill="none" id="run_pipeline.py-to-Monolithic Runner" style="stroke:#181818;stroke-width:1;"/><polygon fill="#181818" points="1479.82,215.7669,1488.5672,211.2406,1482.9447,211.8635,1482.3218,206.2411,1479.82,215.7669" style="stroke:#181818;stroke-width:1;"/></g><!--link run_pipeline.py to Distributed Runner--><g class="link" data-entity-1="run_pipeline.py" data-entity-2="Distributed Runner" data-source-line="52" data-uid="lnk37" id="link_run_pipeline.py_Distributed Runner"><path d="M1582.18,133.0869 C1601,156.3769 1626.4683,187.8906 1645.2283,211.1006" fill="none" id="run_pipeline.py-to-Distributed Runner" style="stroke:#181818;stroke-width:1;"/><polygon fill="#181818" points="1649,215.7669,1646.4534,206.2529,1645.8569,211.8783,1640.2316,211.2818,1649,215.7669" style="stroke:#181818;stroke-width:1;"/></g><!--link run_pipeline.py to evaluate_results.py--><g class="link" data-entity-1="run_pipeline.py" data-entity-2="evaluate_results.py" data-source-line="53" data-uid="lnk38" id="link_run_pipeline.py_evaluate_results.py"><path d="M1638.04,119.5569 C1826.7,142.3869 2318.9235,201.9559 2522.4835,226.5959" fill="none" id="run_pipeline.py-to-evaluate_results.py" style="stroke:#181818;stroke-width:1;"/><polygon fill="#181818" points="2528.44,227.3169,2519.9859,222.2643,2523.4762,226.716,2519.0245,230.2064,2528.44,227.3169" style="stroke:#181818;stroke-width:1;"/></g><!--link run_pipeline.py to generate_visuals.py--><g class="link" data-entity-1="run_pipeline.py" data-entity-2="generate_visuals.py" data-source-line="54" data-uid="lnk39" id="link_run_pipeline.py_generate_visuals.py"><path d="M1638.27,117.2669 C1773,129.0769 2066.73,153.4869 2315,164.8869 C2360.29,166.9669 2679.46,160.2169 2723,172.8869 C2752.44,181.4569 2777.0915,196.7817 2797.6315,212.0217" fill="none" id="run_pipeline.py-to-generate_visuals.py" style="stroke:#181818;stroke-width:1;"/><polygon fill="#181818" points="2802.45,215.5969,2797.6057,207.0218,2798.4346,212.6176,2792.8388,213.4465,2802.45,215.5969" style="stroke:#181818;stroke-width:1;"/></g><!--link run_pipeline.py to pipeline_status.json--><g class="link" data-entity-1="run_pipeline.py" data-entity-2="pipeline_status.json" data-source-line="55" data-uid="lnk40" id="link_run_pipeline.py_pipeline_status.json"><path d="M1489.94,131.3869 C1392.13,160.4269 1216.11,218.2369 1078,294.1869 C1050.57,309.2669 1026.223,326.0213 1005.263,341.4413" fill="none" id="run_pipeline.py-to-pipeline_status.json" style="stroke:#181818;stroke-width:1;"/><polygon fill="#181818" points="1000.43,344.9969,1010.0499,342.8855,1004.4575,342.0339,1005.3091,336.4415,1000.43,344.9969" style="stroke:#181818;stroke-width:1;"/></g><!--link Monolithic Runner to DataLoader--><g class="link" data-entity-1="Monolithic Runner" data-entity-2="DataLoader" data-source-line="57" data-uid="lnk41" id="link_Monolithic Runner_DataLoader"><path d="M1504.94,262.6769 C1520.85,271.7369 1538.72,282.7369 1554,294.1869 C1574.52,309.5669 1591.3654,325.3963 1606.4254,340.6563" fill="none" id="Monolithic Runner-to-DataLoader" style="stroke:#181818;stroke-width:1;"/><polygon fill="#181818" points="1610.64,344.9269,1607.1652,335.7114,1607.1279,341.3681,1601.4711,341.3308,1610.64,344.9269" style="stroke:#181818;stroke-width:1;"/></g><!--link Monolithic Runner to ModelInitializer--><g class="link" data-entity-1="Monolithic Runner" data-entity-2="ModelInitializer" data-source-line="58" data-uid="lnk42" id="link_Monolithic Runner_ModelInitializer"><path d="M1502.02,262.5169 C1520.08,271.5469 1542.03,281.0269 1563,286.1869 C1594.77,294.0069 1679.45,282.4669 1710,294.1869 C1738.03,304.9369 1759.8734,323.4687 1776.8434,340.8087" fill="none" id="Monolithic Runner-to-ModelInitializer" style="stroke:#181818;stroke-width:1;"/><polygon fill="#181818" points="1781.04,345.0969,1777.6038,335.8669,1777.5428,341.5234,1771.8863,341.4624,1781.04,345.0969" style="stroke:#181818;stroke-width:1;"/></g><!--link Monolithic Runner to ResultSerializer--><g class="link" data-entity-1="Monolithic Runner" data-entity-2="ResultSerializer" data-source-line="59" data-uid="lnk43" id="link_Monolithic Runner_ResultSerializer"><path d="M1462,262.5269 C1462,285.8269 1462,316.0069 1462,339.2169" fill="none" id="Monolithic Runner-to-ResultSerializer" style="stroke:#181818;stroke-width:1;"/><polygon fill="#181818" points="1462,345.2169,1466,336.2169,1462,340.2169,1458,336.2169,1462,345.2169" style="stroke:#181818;stroke-width:1;"/></g><!--link Monolithic Runner to status/<dataset>/fold_<i>.json--><g class="link" data-entity-1="Monolithic Runner" data-entity-2="status/&lt;dataset&gt;/fold_&lt;i&gt;.json" data-source-line="60" data-uid="lnk44" id="link_Monolithic Runner_status/&lt;dataset&gt;/fold_&lt;i&gt;.json"><path d="M1417.77,262.6769 C1372.49,285.8469 1307.8613,318.9337 1262.5813,342.1037" fill="none" id="Monolithic Runner-to-status/&lt;dataset&gt;/fold_&lt;i&gt;.json" style="stroke:#181818;stroke-width:1;"/><polygon fill="#181818" points="1257.24,344.8369,1267.0741,344.298,1261.6911,342.5592,1263.4299,337.1762,1257.24,344.8369" style="stroke:#181818;stroke-width:1;"/></g><!--link Distributed Runner to DataLoader--><g class="link" data-entity-1="Distributed Runner" data-entity-2="DataLoader" data-source-line="62" data-uid="lnk45" id="link_Distributed Runner_DataLoader"><path d="M1660.82,262.5269 C1654.43,285.8269 1646.0803,316.2215 1639.7003,339.4315" fill="none" id="Distributed Runner-to-DataLoader" style="stroke:#181818;stroke-width:1;"/><polygon fill="#181818" points="1638.11,345.2169,1644.3524,337.599,1639.4353,340.3957,1636.6385,335.4786,1638.11,345.2169" style="stroke:#181818;stroke-width:1;"/></g><!--link Distributed Runner to ModelInitializer--><g class="link" data-entity-1="Distributed Runner" data-entity-2="ModelInitializer" data-source-line="63" data-uid="lnk46" id="link_Distributed Runner_ModelInitializer"><path d="M1690.65,262.5269 C1715.14,285.8269 1748.8318,317.8725 1773.2418,341.0825" fill="none" id="Distributed Runner-to-ModelInitializer" style="stroke:#181818;stroke-width:1;"/><polygon fill="#181818" points="1777.59,345.2169,1773.824,336.1165,1773.9665,341.7715,1768.3115,341.914,1777.59,345.2169" style="stroke:#181818;stroke-width:1;"/></g><!--link Distributed Runner to ResultSerializer--><g class="link" data-entity-1="Distributed Runner" data-entity-2="ResultSerializer" data-source-line="64" data-uid="lnk47" id="link_Distributed Runner_ResultSerializer"><path d="M1613.65,262.5869 C1594.35,271.5169 1572.71,282.4569 1554,294.1869 C1529.95,309.2569 1509.4337,325.6583 1491.5537,341.0783" fill="none" id="Distributed Runner-to-ResultSerializer" style="stroke:#181818;stroke-width:1;"/><polygon fill="#181818" points="1487.01,344.9969,1496.4379,342.1482,1490.7964,341.7314,1491.2132,336.0899,1487.01,344.9969" style="stroke:#181818;stroke-width:1;"/></g><!--link Distributed Runner to Task Coordinator--><g class="link" data-entity-1="Distributed Runner" data-entity-2="Task Coordinator" data-source-line="65" data-uid="lnk48" id="link_Distributed Runner_Task Coordinator"><path d="M1754.01,257.5769 C1795.63,266.8769 1845.89,279.4369 1890,294.1869 C1932.83,308.5069 1974.4134,326.6484 2008.1234,342.3884" fill="none" id="Distributed Runner-to-Task Coordinator" style="stroke:#181818;stroke-width:1;"/><polygon fill="#181818" points="2013.56,344.9269,2007.0975,337.4948,2009.0295,342.8115,2003.7128,344.7436,2013.56,344.9269" style="stroke:#181818;stroke-width:1;"/></g><!--link Task Coordinator to Worker Handler--><g class="link" data-entity-1="Task Coordinator" data-entity-2="Worker Handler" data-source-line="66" data-uid="lnk49" id="link_Task Coordinator_Worker Handler"><path d="M2060,391.9669 C2060,411.5769 2060,433.8869 2060,453.4869" fill="none" id="Task Coordinator-to-Worker Handler" style="stroke:#181818;stroke-width:1;"/><polygon fill="#181818" points="2060,459.4869,2064,450.4869,2060,454.4869,2056,450.4869,2060,459.4869" style="stroke:#181818;stroke-width:1;"/></g><!--link Task Coordinator to Fold State Tracker--><g class="link" data-entity-1="Task Coordinator" data-entity-2="Fold State Tracker" data-source-line="67" data-uid="lnk51" id="link_Task Coordinator_Fold State Tracker"><path d="M2020.81,391.9669 C1986.73,411.5169 1942.8145,436.7113 1908.6645,456.3013" fill="none" id="Task Coordinator-to-Fold State Tracker" style="stroke:#181818;stroke-width:1;"/><polygon fill="#181818" points="1903.46,459.2869,1913.2571,458.2782,1907.7971,456.7989,1909.2764,451.3389,1903.46,459.2869" style="stroke:#181818;stroke-width:1;"/></g><!--link Distributed Runner to status/<dataset>/fold_<i>.json--><g class="link" data-entity-1="Distributed Runner" data-entity-2="status/&lt;dataset&gt;/fold_&lt;i&gt;.json" data-source-line="68" data-uid="lnk52" id="link_Distributed Runner_status/&lt;dataset&gt;/fold_&lt;i&gt;.json"><path d="M1625.75,262.6369 C1607.14,271.6869 1584.54,281.1469 1563,286.1869 C1479.83,305.6269 1454,274.0469 1371,294.1869 C1327.51,304.7369 1286.7358,324.6566 1255.6458,342.0566" fill="none" id="Distributed Runner-to-status/&lt;dataset&gt;/fold_&lt;i&gt;.json" style="stroke:#181818;stroke-width:1;"/><polygon fill="#181818" points="1250.41,344.9869,1260.2172,344.082,1254.7732,342.545,1256.3101,337.1009,1250.41,344.9869" style="stroke:#181818;stroke-width:1;"/></g><!--link ResultSerializer to Fold Output (.csv/.json)--><g class="link" data-entity-1="ResultSerializer" data-entity-2="Fold Output (.csv/.json)" data-source-line="70" data-uid="lnk54" id="link_ResultSerializer_Fold Output (.csv/.json)"><path d="M1480.2,391.9669 C1496.07,411.5769 1515.1943,435.2238 1531.0643,454.8238" fill="none" id="ResultSerializer-to-Fold Output (.csv/.json)" style="stroke:#181818;stroke-width:1;"/><polygon fill="#181818" points="1534.84,459.4869,1532.2852,449.9751,1531.6936,455.601,1526.0678,455.0094,1534.84,459.4869" style="stroke:#181818;stroke-width:1;"/></g><!--link evaluate_results.py to Fold Output (.csv/.json)--><g class="link" data-entity-1="evaluate_results.py" data-entity-2="Fold Output (.csv/.json)" data-source-line="72" data-uid="lnk55" id="link_evaluate_results.py_Fold Output (.csv/.json)"><path d="M2528.19,242.8369 C2360.64,248.7669 2010.47,264.5769 1964,294.1869 C1908.07,329.8269 1944.31,385.7069 1890,423.7769 C1870.8,437.2469 1752.8748,455.4249 1660.8448,467.9949" fill="none" id="evaluate_results.py-to-Fold Output (.csv/.json)" style="stroke:#181818;stroke-width:1;"/><polygon fill="#181818" points="1654.9,468.8069,1664.3585,471.5521,1659.854,468.1302,1663.2759,463.6257,1654.9,468.8069" style="stroke:#181818;stroke-width:1;"/></g><!--link evaluate_results.py to Evaluation Summary (.json/.csv)--><g class="link" data-entity-1="evaluate_results.py" data-entity-2="Evaluation Summary (.json/.csv)" data-source-line="73" data-uid="lnk56" id="link_evaluate_results.py_Evaluation Summary (.json/.csv)"><path d="M2654.59,262.5269 C2693.4,285.7569 2748.4712,318.7063 2787.2812,341.9263" fill="none" id="evaluate_results.py-to-Evaluation Summary (.json/.csv)" style="stroke:#181818;stroke-width:1;"/><polygon fill="#181818" points="2792.43,345.0069,2786.7605,336.9535,2788.1393,342.4398,2782.6531,343.8186,2792.43,345.0069" style="stroke:#181818;stroke-width:1;"/></g><!--link generate_visuals.py to Evaluation Summary (.json/.csv)--><g class="link" data-entity-1="generate_visuals.py" data-entity-2="Evaluation Summary (.json/.csv)" data-source-line="75" data-uid="lnk57" id="link_generate_visuals.py_Evaluation Summary (.json/.csv)"><path d="M2830,262.5269 C2830,285.8269 2830,316.0069 2830,339.2169" fill="none" id="generate_visuals.py-to-Evaluation Summary (.json/.csv)" style="stroke:#181818;stroke-width:1;"/><polygon fill="#181818" points="2830,345.2169,2834,336.2169,2830,340.2169,2826,336.2169,2830,345.2169" style="stroke:#181818;stroke-width:1;"/></g><!--link generate_visuals.py to Motion Canvas Data (.json)--><g class="link" data-entity-1="generate_visuals.py" data-entity-2="Motion Canvas Data (.json)" data-source-line="76" data-uid="lnk58" id="link_generate_visuals.py_Motion Canvas Data (.json)"><path d="M2920.34,247.9969 C2982.59,255.3969 3066.48,269.1869 3137,294.1869 C3172.58,306.7969 3204.8325,325.1887 3230.6825,341.6887" fill="none" id="generate_visuals.py-to-Motion Canvas Data (.json)" style="stroke:#181818;stroke-width:1;"/><polygon fill="#181818" points="3235.74,344.9169,3230.3058,336.7029,3231.5254,342.2267,3226.0016,343.4462,3235.74,344.9169" style="stroke:#181818;stroke-width:1;"/></g><!--link generate_visuals.py to Plots (.png)--><g class="link" data-entity-1="generate_visuals.py" data-entity-2="Plots (.png)" data-source-line="77" data-uid="lnk59" id="link_generate_visuals.py_Plots (.png)"><path d="M2911.95,262.5769 C2935.17,270.7569 2959.86,281.2469 2981,294.1869 C3003.5,307.9669 3020.979,324.59 3035.699,340.6" fill="none" id="generate_visuals.py-to-Plots (.png)" style="stroke:#181818;stroke-width:1;"/><polygon fill="#181818" points="3039.76,345.0169,3036.6131,335.6843,3036.3759,341.3362,3030.724,341.0989,3039.76,345.0169" style="stroke:#181818;stroke-width:1;"/></g><!--SRC=[ZLHTRzem57tFhx3wC1M9Zp_G8I52jKfiJD1jcZOKcUGIN1pRyWShs_hVvzXf2IGEUm8kv_YUUtokDT4Kq8mfA3RsonomP8JbQ7LK6WeqG5z4XZLaQ2BJ7T6GQYCXYWHEzpW7TBEmPL1QOaqukq5_8eH-ICCIGGHGmc0eZklefKQOFKDgIh1jcbk0gaWVEUEKw1r9qT8m1l8dkoqmOKdnzeSzgxSkiJ6n7Sd6bBhEm1Q11WF9ARp_nUKUvD-KSvaHXZMNlNCXgnsMbZ_dEKah3J7MUCvn1dBj9ML07nZH15FokoekGHcgLo3VYcVJ7J0rpWlq3dqbofIWkZVW0P18Tuvo_jXw3dQAidvm9DNmhJvpNVCZLdiqFKtfJllcXaSVCCjefVkUqmojj6s17gKzr7csd4tYxtrqFtcOp-8-YXUVPXSkbPROKQQSRKckQZufq0hT3bDry7Von3V39yMP-w5SUaw_ju3Bt2G55iAcgsIvEZmBQsG1J9y2SopenKLPqKPvrPPSQL2kEhhBl9Rno1Tg6Yu1M-j0SaV69yXhp-ICM-_jR_jrRkVXmcXXj1zzv2WzwwImMI9fUT6gZuJa6_iXCTihxquj5ojJ55WUxG4bTtHoy3FbpbB1ybwLFqUOOdR02hcRy2H_Huqziz4VTtWQm3SMBuXihbqGsXhp0BOr-W5i-ur5BKDKaciR7GGrzpm8RMv_47ejVr6RdosgWwWMsK5iY-uWjlcYD4iUUVdCX73DjwUh_tNZ6jFKshIiPqbf2-GrLWVfwZv7hR7-Jt87j-jDwA2TlIt_0000]--></g></svg>