<svg xmlns="http://www.w3.org/2000/svg" xmlns:xlink="http://www.w3.org/1999/xlink" contentStyleType="text/css" data-diagram-type="DESCRIPTION" height="511px" preserveAspectRatio="none" style="width:1010px;height:511px;background:#FFFFFF;" version="1.1" viewBox="0 0 1010 511" width="1010px" zoomAndPan="magnify"><title>Monolithic Runner - Component View</title><defs/><g><g class="title" data-source-line="1"><text fill="#000000" font-family="sans-serif" font-size="14" font-weight="bold" lengthAdjust="spacing" textLength="293.1797" x="351.4102" y="22.9951">Monolithic Runner - Component View</text></g><!--cluster Execution Logic--><g class="cluster" data-entity="Execution Logic" data-source-line="3" data-uid="ent0002" id="cluster_Execution Logic"><path d="M337.5,164.5969 L462.4629,164.5969 A3.75,3.75 0 0 1 464.9629,167.0969 L471.9629,186.8938 L540.5,186.8938 A2.5,2.5 0 0 1 543,189.3938 L543,259.3969 A2.5,2.5 0 0 1 540.5,261.8969 L337.5,261.8969 A2.5,2.5 0 0 1 335,259.3969 L335,167.0969 A2.5,2.5 0 0 1 337.5,164.5969" fill="none" style="stroke:#000000;stroke-width:1.5;"/><line style="stroke:#000000;stroke-width:1.5;" x1="335" x2="471.9629" y1="186.8938" y2="186.8938"/><text fill="#000000" font-family="sans-serif" font-size="14" font-weight="bold" lengthAdjust="spacing" textLength="123.9629" x="339" y="179.592">Execution Logic</text></g><!--cluster Common Modules--><g class="cluster" data-entity="Common Modules" data-source-line="7" data-uid="ent0004" id="cluster_Common Modules"><path d="M97.5,285.8969 L238.1924,285.8969 A3.75,3.75 0 0 1 240.6924,288.3969 L247.6924,308.1937 L612.5,308.1937 A2.5,2.5 0 0 1 615,310.6937 L615,380.6869 A2.5,2.5 0 0 1 612.5,383.1869 L97.5,383.1869 A2.5,2.5 0 0 1 95,380.6869 L95,288.3969 A2.5,2.5 0 0 1 97.5,285.8969" fill="none" style="stroke:#000000;stroke-width:1.5;"/><line style="stroke:#000000;stroke-width:1.5;" x1="95" x2="247.6924" y1="308.1937" y2="308.1937"/><text fill="#000000" font-family="sans-serif" font-size="14" font-weight="bold" lengthAdjust="spacing" textLength="139.6924" x="99" y="300.892">Common Modules</text></g><!--cluster Configuration--><g class="cluster" data-entity="Configuration" data-source-line="13" data-uid="ent0008" id="cluster_Configuration"><path d="M234.5,43.2969 L343.665,43.2969 A3.75,3.75 0 0 1 346.165,45.7969 L353.165,65.5938 L736.5,65.5938 A2.5,2.5 0 0 1 739,68.0938 L739,138.0969 A2.5,2.5 0 0 1 736.5,140.5969 L234.5,140.5969 A2.5,2.5 0 0 1 232,138.0969 L232,45.7969 A2.5,2.5 0 0 1 234.5,43.2969" fill="none" style="stroke:#000000;stroke-width:1.5;"/><line style="stroke:#000000;stroke-width:1.5;" x1="232" x2="353.165" y1="65.5938" y2="65.5938"/><text fill="#000000" font-family="sans-serif" font-size="14" font-weight="bold" lengthAdjust="spacing" textLength="108.165" x="236" y="58.292">Configuration</text></g><!--cluster Fold Output--><g class="cluster" data-entity="Fold Output" data-source-line="20" data-uid="ent0013" id="cluster_Fold Output"><path d="M8.5,407.1869 L103.6172,407.1869 A3.75,3.75 0 0 1 106.1172,409.6869 L113.1172,429.4838 L687.5,429.4838 A2.5,2.5 0 0 1 690,431.9838 L690,501.9869 A2.5,2.5 0 0 1 687.5,504.4869 L8.5,504.4869 A2.5,2.5 0 0 1 6,501.9869 L6,409.6869 A2.5,2.5 0 0 1 8.5,407.1869" fill="none" style="stroke:#000000;stroke-width:1.5;"/><line style="stroke:#000000;stroke-width:1.5;" x1="6" x2="113.1172" y1="429.4838" y2="429.4838"/><text fill="#000000" font-family="sans-serif" font-size="14" font-weight="bold" lengthAdjust="spacing" textLength="94.1172" x="10" y="422.182">Fold Output</text></g><!--cluster Status Tracking--><g class="cluster" data-entity="Status Tracking" data-source-line="26" data-uid="ent0018" id="cluster_Status Tracking"><path d="M716.5,407.1869 L841.8867,407.1869 A3.75,3.75 0 0 1 844.3867,409.6869 L851.3867,429.4838 L1000.5,429.4838 A2.5,2.5 0 0 1 1003,431.9838 L1003,501.9869 A2.5,2.5 0 0 1 1000.5,504.4869 L716.5,504.4869 A2.5,2.5 0 0 1 714,501.9869 L714,409.6869 A2.5,2.5 0 0 1 716.5,407.1869" fill="none" style="stroke:#000000;stroke-width:1.5;"/><line style="stroke:#000000;stroke-width:1.5;" x1="714" x2="851.3867" y1="429.4838" y2="429.4838"/><text fill="#000000" font-family="sans-serif" font-size="14" font-weight="bold" lengthAdjust="spacing" textLength="124.3867" x="718" y="422.182">Status Tracking</text></g><!--entity Runner--><g class="entity" data-entity="Runner" data-source-line="4" data-uid="ent0003" id="entity_Runner"><rect fill="#F1F1F1" height="46.2969" rx="2.5" ry="2.5" style="stroke:#181818;stroke-width:0.5;" width="176.9717" x="350.51" y="199.5969"/><rect fill="#F1F1F1" height="10" style="stroke:#181818;stroke-width:0.5;" width="15" x="507.4817" y="204.5969"/><rect fill="#F1F1F1" height="2" style="stroke:#181818;stroke-width:0.5;" width="4" x="505.4817" y="206.5969"/><rect fill="#F1F1F1" height="2" style="stroke:#181818;stroke-width:0.5;" width="4" x="505.4817" y="210.5969"/><text fill="#000000" font-family="sans-serif" font-size="14" lengthAdjust="spacing" textLength="136.9717" x="365.51" y="232.592">main_monolithic.py</text></g><!--entity DataLoader--><g class="entity" data-entity="DataLoader" data-source-line="8" data-uid="ent0005" id="entity_DataLoader"><rect fill="#F1F1F1" height="46.2969" rx="2.5" ry="2.5" style="stroke:#181818;stroke-width:0.5;" width="121.6279" x="111.19" y="320.8969"/><rect fill="#F1F1F1" height="10" style="stroke:#181818;stroke-width:0.5;" width="15" x="212.8179" y="325.8969"/><rect fill="#F1F1F1" height="2" style="stroke:#181818;stroke-width:0.5;" width="4" x="210.8179" y="327.8969"/><rect fill="#F1F1F1" height="2" style="stroke:#181818;stroke-width:0.5;" width="4" x="210.8179" y="331.8969"/><text fill="#000000" font-family="sans-serif" font-size="14" lengthAdjust="spacing" textLength="81.6279" x="126.19" y="353.892">DataLoader</text></g><!--entity ModelInitializer--><g class="entity" data-entity="ModelInitializer" data-source-line="9" data-uid="ent0006" id="entity_ModelInitializer"><rect fill="#F1F1F1" height="46.2969" rx="2.5" ry="2.5" style="stroke:#181818;stroke-width:0.5;" width="146.3809" x="267.81" y="320.8969"/><rect fill="#F1F1F1" height="10" style="stroke:#181818;stroke-width:0.5;" width="15" x="394.1909" y="325.8969"/><rect fill="#F1F1F1" height="2" style="stroke:#181818;stroke-width:0.5;" width="4" x="392.1909" y="327.8969"/><rect fill="#F1F1F1" height="2" style="stroke:#181818;stroke-width:0.5;" width="4" x="392.1909" y="331.8969"/><text fill="#000000" font-family="sans-serif" font-size="14" lengthAdjust="spacing" textLength="106.3809" x="282.81" y="353.892">ModelInitializer</text></g><!--entity ResultSerializer--><g class="entity" data-entity="ResultSerializer" data-source-line="10" data-uid="ent0007" id="entity_ResultSerializer"><rect fill="#F1F1F1" height="46.2969" rx="2.5" ry="2.5" style="stroke:#181818;stroke-width:0.5;" width="149.1084" x="449.45" y="320.8969"/><rect fill="#F1F1F1" height="10" style="stroke:#181818;stroke-width:0.5;" width="15" x="578.5584" y="325.8969"/><rect fill="#F1F1F1" height="2" style="stroke:#181818;stroke-width:0.5;" width="4" x="576.5584" y="327.8969"/><rect fill="#F1F1F1" height="2" style="stroke:#181818;stroke-width:0.5;" width="4" x="576.5584" y="331.8969"/><text fill="#000000" font-family="sans-serif" font-size="14" lengthAdjust="spacing" textLength="109.1084" x="464.45" y="353.892">ResultSerializer</text></g><!--entity job.json--><g class="entity" data-entity="job.json" data-source-line="14" data-uid="ent0009" id="entity_job.json"><rect fill="#F1F1F1" height="46.2969" rx="2.5" ry="2.5" style="stroke:#181818;stroke-width:0.5;" width="94.4141" x="247.79" y="78.2969"/><rect fill="#F1F1F1" height="10" style="stroke:#181818;stroke-width:0.5;" width="15" x="322.2041" y="83.2969"/><rect fill="#F1F1F1" height="2" style="stroke:#181818;stroke-width:0.5;" width="4" x="320.2041" y="85.2969"/><rect fill="#F1F1F1" height="2" style="stroke:#181818;stroke-width:0.5;" width="4" x="320.2041" y="89.2969"/><text fill="#000000" font-family="sans-serif" font-size="14" lengthAdjust="spacing" textLength="54.4141" x="262.79" y="111.292">job.json</text></g><!--entity system.json--><g class="entity" data-entity="system.json" data-source-line="15" data-uid="ent0010" id="entity_system.json"><rect fill="#F1F1F1" height="46.2969" rx="2.5" ry="2.5" style="stroke:#181818;stroke-width:0.5;" width="123.6855" x="377.16" y="78.2969"/><rect fill="#F1F1F1" height="10" style="stroke:#181818;stroke-width:0.5;" width="15" x="480.8455" y="83.2969"/><rect fill="#F1F1F1" height="2" style="stroke:#181818;stroke-width:0.5;" width="4" x="478.8455" y="85.2969"/><rect fill="#F1F1F1" height="2" style="stroke:#181818;stroke-width:0.5;" width="4" x="478.8455" y="89.2969"/><text fill="#000000" font-family="sans-serif" font-size="14" lengthAdjust="spacing" textLength="83.6855" x="392.16" y="111.292">system.json</text></g><!--entity feature_mapping.csv--><g class="entity" data-entity="feature_mapping.csv" data-source-line="16" data-uid="ent0011" id="entity_feature_mapping.csv"><rect fill="#F1F1F1" height="46.2969" rx="2.5" ry="2.5" style="stroke:#181818;stroke-width:0.5;" width="187.2188" x="535.39" y="78.2969"/><rect fill="#F1F1F1" height="10" style="stroke:#181818;stroke-width:0.5;" width="15" x="702.6088" y="83.2969"/><rect fill="#F1F1F1" height="2" style="stroke:#181818;stroke-width:0.5;" width="4" x="700.6088" y="85.2969"/><rect fill="#F1F1F1" height="2" style="stroke:#181818;stroke-width:0.5;" width="4" x="700.6088" y="89.2969"/><text fill="#000000" font-family="sans-serif" font-size="14" lengthAdjust="spacing" textLength="147.2188" x="550.39" y="111.292">feature_mapping.csv</text></g><!--entity predictions.csv--><g class="entity" data-entity="predictions.csv" data-source-line="21" data-uid="ent0014" id="entity_predictions.csv"><rect fill="#F1F1F1" height="46.2969" rx="2.5" ry="2.5" style="stroke:#181818;stroke-width:0.5;" width="145.5674" x="22.22" y="442.1869"/><rect fill="#F1F1F1" height="10" style="stroke:#181818;stroke-width:0.5;" width="15" x="147.7874" y="447.1869"/><rect fill="#F1F1F1" height="2" style="stroke:#181818;stroke-width:0.5;" width="4" x="145.7874" y="449.1869"/><rect fill="#F1F1F1" height="2" style="stroke:#181818;stroke-width:0.5;" width="4" x="145.7874" y="453.1869"/><text fill="#000000" font-family="sans-serif" font-size="14" lengthAdjust="spacing" textLength="105.5674" x="37.22" y="475.182">predictions.csv</text></g><!--entity probabilities.csv--><g class="entity" data-entity="probabilities.csv" data-source-line="22" data-uid="ent0015" id="entity_probabilities.csv"><rect fill="#F1F1F1" height="46.2969" rx="2.5" ry="2.5" style="stroke:#181818;stroke-width:0.5;" width="154.2422" x="202.88" y="442.1869"/><rect fill="#F1F1F1" height="10" style="stroke:#181818;stroke-width:0.5;" width="15" x="337.1222" y="447.1869"/><rect fill="#F1F1F1" height="2" style="stroke:#181818;stroke-width:0.5;" width="4" x="335.1222" y="449.1869"/><rect fill="#F1F1F1" height="2" style="stroke:#181818;stroke-width:0.5;" width="4" x="335.1222" y="453.1869"/><text fill="#000000" font-family="sans-serif" font-size="14" lengthAdjust="spacing" textLength="114.2422" x="217.88" y="475.182">probabilities.csv</text></g><!--entity ranks.csv--><g class="entity" data-entity="ranks.csv" data-source-line="23" data-uid="ent0016" id="entity_ranks.csv"><rect fill="#F1F1F1" height="46.2969" rx="2.5" ry="2.5" style="stroke:#181818;stroke-width:0.5;" width="106.3359" x="391.83" y="442.1869"/><rect fill="#F1F1F1" height="10" style="stroke:#181818;stroke-width:0.5;" width="15" x="478.1659" y="447.1869"/><rect fill="#F1F1F1" height="2" style="stroke:#181818;stroke-width:0.5;" width="4" x="476.1659" y="449.1869"/><rect fill="#F1F1F1" height="2" style="stroke:#181818;stroke-width:0.5;" width="4" x="476.1659" y="453.1869"/><text fill="#000000" font-family="sans-serif" font-size="14" lengthAdjust="spacing" textLength="66.3359" x="406.83" y="475.182">ranks.csv</text></g><!--entity metadata.json--><g class="entity" data-entity="metadata.json" data-source-line="24" data-uid="ent0017" id="entity_metadata.json"><rect fill="#F1F1F1" height="46.2969" rx="2.5" ry="2.5" style="stroke:#181818;stroke-width:0.5;" width="140.9258" x="533.54" y="442.1869"/><rect fill="#F1F1F1" height="10" style="stroke:#181818;stroke-width:0.5;" width="15" x="654.4658" y="447.1869"/><rect fill="#F1F1F1" height="2" style="stroke:#181818;stroke-width:0.5;" width="4" x="652.4658" y="449.1869"/><rect fill="#F1F1F1" height="2" style="stroke:#181818;stroke-width:0.5;" width="4" x="652.4658" y="453.1869"/><text fill="#000000" font-family="sans-serif" font-size="14" lengthAdjust="spacing" textLength="100.9258" x="548.54" y="475.182">metadata.json</text></g><!--entity fold_<i>.json--><g class="entity" data-entity="fold_&lt;i&gt;.json" data-source-line="27" data-uid="ent0019" id="entity_fold_&lt;i&gt;.json"><rect fill="#F1F1F1" height="46.2969" rx="2.5" ry="2.5" style="stroke:#181818;stroke-width:0.5;" width="106.3428" x="729.83" y="442.1869"/><rect fill="#F1F1F1" height="10" style="stroke:#181818;stroke-width:0.5;" width="15" x="816.1728" y="447.1869"/><rect fill="#F1F1F1" height="2" style="stroke:#181818;stroke-width:0.5;" width="4" x="814.1728" y="449.1869"/><rect fill="#F1F1F1" height="2" style="stroke:#181818;stroke-width:0.5;" width="4" x="814.1728" y="453.1869"/><text fill="#000000" font-family="sans-serif" font-size="14" lengthAdjust="spacing" textLength="33.2705" x="744.83" y="475.182">fold_</text><text fill="#000000" font-family="sans-serif" font-size="14" font-style="italic" lengthAdjust="spacing" textLength="33.0723" x="778.1005" y="475.182">.json</text></g><!--entity status.json--><g class="entity" data-entity="status.json" data-source-line="28" data-uid="ent0020" id="entity_status.json"><rect fill="#F1F1F1" height="46.2969" rx="2.5" ry="2.5" style="stroke:#181818;stroke-width:0.5;" width="116.0908" x="870.95" y="442.1869"/><rect fill="#F1F1F1" height="10" style="stroke:#181818;stroke-width:0.5;" width="15" x="967.0408" y="447.1869"/><rect fill="#F1F1F1" height="2" style="stroke:#181818;stroke-width:0.5;" width="4" x="965.0408" y="449.1869"/><rect fill="#F1F1F1" height="2" style="stroke:#181818;stroke-width:0.5;" width="4" x="965.0408" y="453.1869"/><text fill="#000000" font-family="sans-serif" font-size="14" lengthAdjust="spacing" textLength="76.0908" x="885.95" y="475.182">status.json</text></g><!--entity Dataset--><g class="entity" data-entity="Dataset" data-source-line="19" data-uid="ent0012" id="entity_Dataset"><path d="M113.04,210.0969 C113.04,200.0969 172.0024,200.0969 172.0024,200.0969 C172.0024,200.0969 230.9648,200.0969 230.9648,210.0969 L230.9648,235.3938 C230.9648,245.3938 172.0024,245.3938 172.0024,245.3938 C172.0024,245.3938 113.04,245.3938 113.04,235.3938 L113.04,210.0969" fill="#F1F1F1" style="stroke:#181818;stroke-width:0.5;"/><path d="M113.04,210.0969 C113.04,220.0969 172.0024,220.0969 172.0024,220.0969 C172.0024,220.0969 230.9648,220.0969 230.9648,210.0969" fill="none" style="stroke:#181818;stroke-width:0.5;"/><text fill="#000000" font-family="sans-serif" font-size="14" lengthAdjust="spacing" textLength="97.9248" x="123.04" y="237.092">Dataset (.csv)</text></g><!--link job.json to Runner--><g class="link" data-entity-1="job.json" data-entity-2="Runner" data-source-line="31" data-uid="lnk21" id="link_job.json_Runner"><path d="M322.09,124.8869 C347.83,146.2169 381.7096,174.279 407.4196,195.579" fill="none" id="job.json-to-Runner" style="stroke:#181818;stroke-width:1;"/><polygon fill="#181818" points="412.04,199.4069,407.6614,190.5849,408.1897,196.217,402.5576,196.7454,412.04,199.4069" style="stroke:#181818;stroke-width:1;"/></g><!--link system.json to Runner--><g class="link" data-entity-1="system.json" data-entity-2="Runner" data-source-line="32" data-uid="lnk22" id="link_system.json_Runner"><path d="M439,124.8869 C439,146.2169 439,172.1069 439,193.4069" fill="none" id="system.json-to-Runner" style="stroke:#181818;stroke-width:1;"/><polygon fill="#181818" points="439,199.4069,443,190.4069,439,194.4069,435,190.4069,439,199.4069" style="stroke:#181818;stroke-width:1;"/></g><!--link feature_mapping.csv to Runner--><g class="link" data-entity-1="feature_mapping.csv" data-entity-2="Runner" data-source-line="33" data-uid="lnk23" id="link_feature_mapping.csv_Runner"><path d="M593.26,124.8869 C559.4,146.1469 513.8908,174.7154 479.9808,196.0154" fill="none" id="feature_mapping.csv-to-Runner" style="stroke:#181818;stroke-width:1;"/><polygon fill="#181818" points="474.9,199.2069,484.6489,197.8069,479.134,196.5473,480.3936,191.0325,474.9,199.2069" style="stroke:#181818;stroke-width:1;"/></g><!--link Dataset to DataLoader--><g class="link" data-entity-1="Dataset" data-entity-2="DataLoader" data-source-line="34" data-uid="lnk24" id="link_Dataset_DataLoader"><path d="M172,245.6269 C172,266.8769 172,293.0069 172,314.4869" fill="none" id="Dataset-to-DataLoader" style="stroke:#181818;stroke-width:1;"/><polygon fill="#181818" points="172,320.4869,176,311.4869,172,315.4869,168,311.4869,172,320.4869" style="stroke:#181818;stroke-width:1;"/></g><!--link Runner to DataLoader--><g class="link" data-entity-1="Runner" data-entity-2="DataLoader" data-source-line="35" data-uid="lnk25" id="link_Runner_DataLoader"><path d="M350.45,241.0069 C317.72,249.4469 281.06,261.4269 250,277.8969 C228.95,289.0469 212.7474,302.4111 198.0374,316.4711" fill="none" id="Runner-to-DataLoader" style="stroke:#181818;stroke-width:1;"/><polygon fill="#181818" points="193.7,320.6169,202.9699,317.2899,197.3145,317.1621,197.4423,311.5067,193.7,320.6169" style="stroke:#181818;stroke-width:1;"/></g><!--link Runner to ModelInitializer--><g class="link" data-entity-1="Runner" data-entity-2="ModelInitializer" data-source-line="36" data-uid="lnk26" id="link_Runner_ModelInitializer"><path d="M420.57,246.1869 C403.05,267.5169 380.6476,294.7698 363.1576,316.0698" fill="none" id="Runner-to-ModelInitializer" style="stroke:#181818;stroke-width:1;"/><polygon fill="#181818" points="359.35,320.7069,368.1528,316.2897,362.523,316.8427,361.97,311.2129,359.35,320.7069" style="stroke:#181818;stroke-width:1;"/></g><!--link Runner to ResultSerializer--><g class="link" data-entity-1="Runner" data-entity-2="ResultSerializer" data-source-line="37" data-uid="lnk27" id="link_Runner_ResultSerializer"><path d="M454.99,246.1869 C470.18,267.5169 489.4293,294.5197 504.5993,315.8197" fill="none" id="Runner-to-ResultSerializer" style="stroke:#181818;stroke-width:1;"/><polygon fill="#181818" points="508.08,320.7069,506.1171,311.0556,505.1794,316.6342,499.6008,315.6965,508.08,320.7069" style="stroke:#181818;stroke-width:1;"/></g><!--link ResultSerializer to predictions.csv--><g class="link" data-entity-1="ResultSerializer" data-entity-2="predictions.csv" data-source-line="39" data-uid="lnk28" id="link_ResultSerializer_predictions.csv"><path d="M488.27,367.4969 C471.79,376.6469 451.57,386.2169 432,391.1869 C378.77,404.7069 236.96,381.4169 185,399.1869 C159.45,407.9269 139.411,422.6068 122.431,437.7268" fill="none" id="ResultSerializer-to-predictions.csv" style="stroke:#181818;stroke-width:1;"/><polygon fill="#181818" points="117.95,441.7169,127.3315,438.719,121.6841,438.3918,122.0114,432.7444,117.95,441.7169" style="stroke:#181818;stroke-width:1;"/></g><!--link ResultSerializer to probabilities.csv--><g class="link" data-entity-1="ResultSerializer" data-entity-2="probabilities.csv" data-source-line="40" data-uid="lnk29" id="link_ResultSerializer_probabilities.csv"><path d="M486.23,367.5069 C470.04,376.1969 450.6,385.4169 432,391.1869 C407.15,398.9069 398.25,389.7469 374,399.1869 C348.47,409.1369 327.7991,423.504 309.8791,438.124" fill="none" id="ResultSerializer-to-probabilities.csv" style="stroke:#181818;stroke-width:1;"/><polygon fill="#181818" points="305.23,441.9169,314.7322,439.3269,309.1042,438.7561,309.675,433.1281,305.23,441.9169" style="stroke:#181818;stroke-width:1;"/></g><!--link ResultSerializer to ranks.csv--><g class="link" data-entity-1="ResultSerializer" data-entity-2="ranks.csv" data-source-line="41" data-uid="lnk30" id="link_ResultSerializer_ranks.csv"><path d="M509.14,367.4769 C495.02,388.8069 477.203,415.7045 463.103,436.9945" fill="none" id="ResultSerializer-to-ranks.csv" style="stroke:#181818;stroke-width:1;"/><polygon fill="#181818" points="459.79,441.9969,468.0944,436.7019,462.5508,437.8282,461.4246,432.2846,459.79,441.9969" style="stroke:#181818;stroke-width:1;"/></g><!--link ResultSerializer to metadata.json--><g class="link" data-entity-1="ResultSerializer" data-entity-2="metadata.json" data-source-line="42" data-uid="lnk31" id="link_ResultSerializer_metadata.json"><path d="M539.05,367.4769 C553.35,388.8069 571.3978,415.724 585.6778,437.014" fill="none" id="ResultSerializer-to-metadata.json" style="stroke:#181818;stroke-width:1;"/><polygon fill="#181818" points="589.02,441.9969,587.3286,432.2943,586.2348,437.8444,580.6847,436.7506,589.02,441.9969" style="stroke:#181818;stroke-width:1;"/></g><!--link ResultSerializer to fold_<i>.json--><g class="link" data-entity-1="ResultSerializer" data-entity-2="fold_&lt;i&gt;.json" data-source-line="43" data-uid="lnk32" id="link_ResultSerializer_fold_&lt;i&gt;.json"><path d="M598.99,364.3669 C628.17,373.1969 661.39,384.8969 690,399.1869 C713.46,410.9069 732.89,424.3611 750.72,438.1211" fill="none" id="ResultSerializer-to-fold_&lt;i&gt;.json" style="stroke:#181818;stroke-width:1;"/><polygon fill="#181818" points="755.47,441.7869,750.7888,433.1216,751.5117,438.7321,745.9012,439.4549,755.47,441.7869" style="stroke:#181818;stroke-width:1;"/></g><!--link Runner to status.json--><g class="link" data-entity-1="Runner" data-entity-2="status.json" data-source-line="44" data-uid="lnk33" id="link_Runner_status.json"><path d="M522.84,246.3469 C552.35,255.1369 585.51,265.9769 615,277.8969 C725.44,322.5269 755.18,332.6769 854,399.1869 C872.74,411.8069 887.5601,424.4661 901.8401,437.8361" fill="none" id="Runner-to-status.json" style="stroke:#181818;stroke-width:1;"/><polygon fill="#181818" points="906.22,441.9369,902.384,432.8658,902.5701,438.5196,896.9163,438.7056,906.22,441.9369" style="stroke:#181818;stroke-width:1;"/></g><!--SRC=[TLBBJiD03BplLrWvmQ7z0jGB3mcf2Ab5N12gdCGDRZUxqJw0WlhlxAPfNgIdoEFPyNWSnquIF6cb9RiFpc3bbI83CxZLPQKLAGUlJ5z2L9ZjiI18xhyfyuwrWgKkE4lWLm1aBJifaTMcR1NdrI41j8smEFQKmeZ02zDpBycUXDxkqE5IOqxcFPQXIV9HiMEK_DE0Ax9UkZMP5XpAgYqNtc0qsQZkT3hVMQtgv_PW7PLTlILqtj2cnAfYLSmp-rahvi5AYZP8HbEM75p5tdMzJmE9hPR1AoGFuGlFtbNUDJChGpbdqOGzITQOJZ7b40rJXnfK-wugoM4StHWyjYFMBlYqy6B2fi5dCoPsDpUywErNyzhdejiUPhF5-HA360QDgJpwX7CQ4UhE9Sw_paLqVCj-RtnI8SP8JViVwYNQlvodYRtefmcZQqoJHZVexJKunXy0]--></g></svg>