<svg xmlns="http://www.w3.org/2000/svg" xmlns:xlink="http://www.w3.org/1999/xlink" contentStyleType="text/css" data-diagram-type="ACTIVITY" height="1592px" preserveAspectRatio="none" style="width:550px;height:1592px;background:#FFFFFF;" version="1.1" viewBox="0 0 550 1592" width="550px" zoomAndPan="magnify"><title>Pipeline Runner (run_pipeline.py) - Full Execution Flow</title><defs/><g><g class="title" data-source-line="1"><text fill="#000000" font-family="sans-serif" font-size="14" font-weight="bold" lengthAdjust="spacing" textLength="433.7402" x="56.6622" y="32.9951">Pipeline Runner (run_pipeline.py) - Full Execution Flow</text></g><ellipse cx="282.9933" cy="57.2969" fill="#222222" rx="10" ry="10" style="stroke:#222222;stroke-width:1;"/><rect fill="#F1F1F1" height="33.9688" rx="12.5" ry="12.5" style="stroke:#181818;stroke-width:0.5;" width="201.4941" x="182.2462" y="87.2969"/><text fill="#000000" font-family="sans-serif" font-size="12" lengthAdjust="spacing" textLength="181.4941" x="192.2462" y="108.4355">Load experiment_pipeline.yml</text><rect fill="#F1F1F1" height="33.9688" rx="12.5" ry="12.5" style="stroke:#181818;stroke-width:0.5;" width="210.8047" x="177.5909" y="141.2656"/><text fill="#000000" font-family="sans-serif" font-size="12" lengthAdjust="spacing" textLength="190.8047" x="187.5909" y="162.4043">Initialize global status in status/</text><rect fill="#F1F1F1" height="33.9688" rx="12.5" ry="12.5" style="stroke:#181818;stroke-width:0.5;" width="136.8125" x="214.587" y="239.2344"/><text fill="#000000" font-family="sans-serif" font-size="12" lengthAdjust="spacing" textLength="116.8125" x="224.587" y="260.373">Select next dataset</text><rect fill="#F1F1F1" height="33.9688" rx="12.5" ry="12.5" style="stroke:#181818;stroke-width:0.5;" width="236.3867" x="164.7999" y="293.2031"/><text fill="#000000" font-family="sans-serif" font-size="12" lengthAdjust="spacing" textLength="216.3867" x="174.7999" y="314.3418">Check status/&lt;dataset&gt;/status.json</text><path d="M110.5511,337.1719 L110.5511,362.3047 L217.8221,362.3047 L217.8221,347.1719 L207.8221,337.1719 L110.5511,337.1719" fill="#FEFFDD" style="stroke:#181818;stroke-width:0.5;"/><path d="M207.8221,337.1719 L207.8221,347.1719 L217.8221,347.1719 L207.8221,337.1719" fill="#FEFFDD" style="stroke:#181818;stroke-width:0.5;"/><text fill="#000000" font-family="sans-serif" font-size="13" lengthAdjust="spacing" textLength="86.271" x="116.5511" y="354.2388">Skip training.</text><polygon fill="#F1F1F1" points="222.9391,410.707,343.0475,410.707,355.0475,422.707,343.0475,434.707,222.9391,434.707,210.9391,422.707,222.9391,410.707" style="stroke:#181818;stroke-width:0.5;"/><text fill="#000000" font-family="sans-serif" font-size="11" lengthAdjust="spacing" textLength="120.1084" x="222.9391" y="426.5151">mode == monolithic?</text><text fill="#000000" font-family="sans-serif" font-size="11" lengthAdjust="spacing" textLength="19.0083" x="191.9308" y="420.1128">yes</text><text fill="#000000" font-family="sans-serif" font-size="11" lengthAdjust="spacing" textLength="13.7017" x="355.0475" y="420.1128">no</text><rect fill="#F1F1F1" height="33.9688" rx="12.5" ry="12.5" style="stroke:#181818;stroke-width:0.5;" width="164.7676" x="96.7911" y="444.707"/><text fill="#000000" font-family="sans-serif" font-size="12" lengthAdjust="spacing" textLength="144.7676" x="106.7911" y="465.8457">Run main_monolithic.py</text><rect fill="#F1F1F1" height="33.9688" rx="12.5" ry="12.5" style="stroke:#181818;stroke-width:0.5;" width="210.5059" x="281.5587" y="444.707"/><text fill="#000000" font-family="sans-serif" font-size="12" lengthAdjust="spacing" textLength="190.5059" x="291.5587" y="465.8457">Run main.py --role=coordinator</text><polygon fill="#F1F1F1" points="282.9933,484.6758,294.9933,496.6758,282.9933,508.6758,270.9933,496.6758,282.9933,484.6758" style="stroke:#181818;stroke-width:0.5;"/><rect fill="#F1F1F1" height="33.9688" rx="12.5" ry="12.5" style="stroke:#181818;stroke-width:0.5;" width="242.6797" x="161.6534" y="543.6758"/><text fill="#000000" font-family="sans-serif" font-size="12" lengthAdjust="spacing" textLength="75.791" x="171.6534" y="564.8145">Update fold_</text><text fill="#000000" font-family="sans-serif" font-size="12" font-style="italic" lengthAdjust="spacing" textLength="146.8887" x="247.4445" y="564.8145">.json as DONE or FAILED</text><rect fill="#F1F1F1" height="33.9688" rx="12.5" ry="12.5" style="stroke:#181818;stroke-width:0.5;" width="238.9297" x="163.5284" y="597.6445"/><text fill="#000000" font-family="sans-serif" font-size="12" lengthAdjust="spacing" textLength="218.9297" x="173.5284" y="618.7832">Update train_status if all folds DONE</text><polygon fill="#F1F1F1" points="229.8221,362.3047,336.1644,362.3047,348.1644,374.3047,336.1644,386.3047,229.8221,386.3047,217.8221,374.3047,229.8221,362.3047" style="stroke:#181818;stroke-width:0.5;"/><text fill="#000000" font-family="sans-serif" font-size="11" lengthAdjust="spacing" textLength="13.7017" x="286.9933" y="396.5151">no</text><text fill="#000000" font-family="sans-serif" font-size="11" lengthAdjust="spacing" textLength="106.3423" x="229.8221" y="378.1128">Train phase DONE?</text><text fill="#000000" font-family="sans-serif" font-size="11" lengthAdjust="spacing" textLength="19.0083" x="348.1644" y="371.7104">yes</text><polygon fill="#F1F1F1" points="282.9933,651.6133,294.9933,663.6133,282.9933,675.6133,270.9933,663.6133,282.9933,651.6133" style="stroke:#181818;stroke-width:0.5;"/><path d="M61.889,685.6133 L61.889,710.7461 L213.4984,710.7461 L213.4984,695.6133 L203.4984,685.6133 L61.889,685.6133" fill="#FEFFDD" style="stroke:#181818;stroke-width:0.5;"/><path d="M203.4984,685.6133 L203.4984,695.6133 L213.4984,695.6133 L203.4984,685.6133" fill="#FEFFDD" style="stroke:#181818;stroke-width:0.5;"/><text fill="#000000" font-family="sans-serif" font-size="13" lengthAdjust="spacing" textLength="130.6094" x="67.889" y="702.6802">Skip transfer phase.</text><rect fill="#F1F1F1" height="33.9688" rx="12.5" ry="12.5" style="stroke:#181818;stroke-width:0.5;" width="258.2422" x="153.8722" y="759.1484"/><text fill="#000000" font-family="sans-serif" font-size="12" lengthAdjust="spacing" textLength="238.2422" x="163.8722" y="780.2871">Transfer fold outputs to shared location</text><rect fill="#F1F1F1" height="33.9688" rx="12.5" ry="12.5" style="stroke:#181818;stroke-width:0.5;" width="297.0371" x="134.4747" y="828.1172"/><text fill="#000000" font-family="sans-serif" font-size="12" lengthAdjust="spacing" textLength="75.791" x="144.4747" y="849.2559">Update fold_</text><text fill="#000000" font-family="sans-serif" font-size="12" font-style="italic" lengthAdjust="spacing" textLength="201.2461" x="220.2657" y="849.2559">.json &#8594; output_transferred = true</text><polygon fill="#F1F1F1" points="225.4984,710.7461,340.4882,710.7461,352.4882,722.7461,340.4882,734.7461,225.4984,734.7461,213.4984,722.7461,225.4984,710.7461" style="stroke:#181818;stroke-width:0.5;"/><text fill="#000000" font-family="sans-serif" font-size="11" lengthAdjust="spacing" textLength="13.7017" x="286.9933" y="744.9565">no</text><text fill="#000000" font-family="sans-serif" font-size="11" lengthAdjust="spacing" textLength="114.9897" x="225.4984" y="726.5542">Outputs transferred?</text><text fill="#000000" font-family="sans-serif" font-size="11" lengthAdjust="spacing" textLength="19.0083" x="352.4882" y="720.1519">yes</text><polygon fill="#F1F1F1" points="282.9933,882.0859,294.9933,894.0859,282.9933,906.0859,270.9933,894.0859,282.9933,882.0859" style="stroke:#181818;stroke-width:0.5;"/><polygon fill="#F1F1F1" points="237.9191,926.0859,328.0675,926.0859,340.0675,938.0859,328.0675,950.0859,237.9191,950.0859,225.9191,938.0859,237.9191,926.0859" style="stroke:#181818;stroke-width:0.5;"/><text fill="#000000" font-family="sans-serif" font-size="11" lengthAdjust="spacing" textLength="90.1484" x="237.9191" y="941.894">All folds READY?</text><text fill="#000000" font-family="sans-serif" font-size="11" lengthAdjust="spacing" textLength="19.0083" x="206.9108" y="935.4917">yes</text><text fill="#000000" font-family="sans-serif" font-size="11" lengthAdjust="spacing" textLength="13.7017" x="340.0675" y="935.4917">no</text><path d="M10,960.0859 L10,985.2188 L135.2856,985.2188 L135.2856,970.0859 L125.2856,960.0859 L10,960.0859" fill="#FEFFDD" style="stroke:#181818;stroke-width:0.5;"/><path d="M125.2856,960.0859 L125.2856,970.0859 L135.2856,970.0859 L125.2856,960.0859" fill="#FEFFDD" style="stroke:#181818;stroke-width:0.5;"/><text fill="#000000" font-family="sans-serif" font-size="13" lengthAdjust="spacing" textLength="104.2856" x="16" y="977.1528">Skip evaluation.</text><rect fill="#F1F1F1" height="33.9688" rx="12.5" ry="12.5" style="stroke:#181818;stroke-width:0.5;" width="164.5801" x="114.8367" y="1033.6211"/><text fill="#000000" font-family="sans-serif" font-size="12" lengthAdjust="spacing" textLength="144.5801" x="124.8367" y="1054.7598">Run evaluate_results.py</text><rect fill="#F1F1F1" height="33.9688" rx="12.5" ry="12.5" style="stroke:#181818;stroke-width:0.5;" width="217.2852" x="88.4841" y="1102.5898"/><text fill="#000000" font-family="sans-serif" font-size="12" lengthAdjust="spacing" textLength="197.2852" x="98.4841" y="1123.7285">Update evaluate_status to DONE</text><polygon fill="#F1F1F1" points="147.2856,985.2188,246.9678,985.2188,258.9678,997.2188,246.9678,1009.2188,147.2856,1009.2188,135.2856,997.2188,147.2856,985.2188" style="stroke:#181818;stroke-width:0.5;"/><text fill="#000000" font-family="sans-serif" font-size="11" lengthAdjust="spacing" textLength="13.7017" x="201.1267" y="1019.4292">no</text><text fill="#000000" font-family="sans-serif" font-size="11" lengthAdjust="spacing" textLength="99.6821" x="147.2856" y="1001.0269">Evaluation DONE?</text><text fill="#000000" font-family="sans-serif" font-size="11" lengthAdjust="spacing" textLength="19.0083" x="258.9678" y="994.6245">yes</text><polygon fill="#F1F1F1" points="197.1267,1156.5586,209.1267,1168.5586,197.1267,1180.5586,185.1267,1168.5586,197.1267,1156.5586" style="stroke:#181818;stroke-width:0.5;"/><rect fill="#F1F1F1" height="33.9688" rx="12.5" ry="12.5" style="stroke:#181818;stroke-width:0.5;" width="165.8633" x="285.9282" y="960.0859"/><text fill="#000000" font-family="sans-serif" font-size="12" lengthAdjust="spacing" textLength="145.8633" x="295.9282" y="981.2246">Wait or retry failed folds</text><polygon fill="#F1F1F1" points="282.9933,1186.5586,294.9933,1198.5586,282.9933,1210.5586,270.9933,1198.5586,282.9933,1186.5586" style="stroke:#181818;stroke-width:0.5;"/><path d="M77.2032,1220.5586 L77.2032,1245.6914 L215.3112,1245.6914 L215.3112,1230.5586 L205.3112,1220.5586 L77.2032,1220.5586" fill="#FEFFDD" style="stroke:#181818;stroke-width:0.5;"/><path d="M205.3112,1220.5586 L205.3112,1230.5586 L215.3112,1230.5586 L205.3112,1220.5586" fill="#FEFFDD" style="stroke:#181818;stroke-width:0.5;"/><text fill="#000000" font-family="sans-serif" font-size="13" lengthAdjust="spacing" textLength="117.1079" x="83.2032" y="1237.6255">Skip visualization.</text><rect fill="#F1F1F1" height="33.9688" rx="12.5" ry="12.5" style="stroke:#181818;stroke-width:0.5;" width="167.4922" x="199.2472" y="1294.0938"/><text fill="#000000" font-family="sans-serif" font-size="12" lengthAdjust="spacing" textLength="147.4922" x="209.2472" y="1315.2324">Run generate_visuals.py</text><rect fill="#F1F1F1" height="33.9688" rx="12.5" ry="12.5" style="stroke:#181818;stroke-width:0.5;" width="217.0625" x="174.462" y="1363.0625"/><text fill="#000000" font-family="sans-serif" font-size="12" lengthAdjust="spacing" textLength="197.0625" x="184.462" y="1384.2012">Update visualize_status to DONE</text><polygon fill="#F1F1F1" points="227.3112,1245.6914,338.6754,1245.6914,350.6754,1257.6914,338.6754,1269.6914,227.3112,1269.6914,215.3112,1257.6914,227.3112,1245.6914" style="stroke:#181818;stroke-width:0.5;"/><text fill="#000000" font-family="sans-serif" font-size="11" lengthAdjust="spacing" textLength="13.7017" x="286.9933" y="1279.9019">no</text><text fill="#000000" font-family="sans-serif" font-size="11" lengthAdjust="spacing" textLength="111.3643" x="227.3112" y="1261.4995">Visualization DONE?</text><text fill="#000000" font-family="sans-serif" font-size="11" lengthAdjust="spacing" textLength="19.0083" x="350.6754" y="1255.0972">yes</text><polygon fill="#F1F1F1" points="282.9933,1417.0313,294.9933,1429.0313,282.9933,1441.0313,270.9933,1429.0313,282.9933,1417.0313" style="stroke:#181818;stroke-width:0.5;"/><polygon fill="#F1F1F1" points="282.9933,195.2344,294.9933,207.2344,282.9933,219.2344,270.9933,207.2344,282.9933,195.2344" style="stroke:#181818;stroke-width:0.5;"/><polygon fill="#F1F1F1" points="210.0243,1461.0313,355.9623,1461.0313,367.9623,1473.0313,355.9623,1485.0313,210.0243,1485.0313,198.0243,1473.0313,210.0243,1461.0313" style="stroke:#181818;stroke-width:0.5;"/><text fill="#000000" font-family="sans-serif" font-size="11" lengthAdjust="spacing" textLength="145.938" x="210.0243" y="1476.8394">more datasets to process?</text><rect fill="#F1F1F1" height="33.9688" rx="12.5" ry="12.5" style="stroke:#181818;stroke-width:0.5;" width="268.3789" x="148.8038" y="1505.0313"/><text fill="#000000" font-family="sans-serif" font-size="12" lengthAdjust="spacing" textLength="248.3789" x="158.8038" y="1526.1699">Update pipeline_status.json &#8594; COMPLETE</text><ellipse cx="282.9933" cy="1570" fill="none" rx="11" ry="11" style="stroke:#222222;stroke-width:1;"/><ellipse cx="282.9933" cy="1570" fill="#222222" rx="6" ry="6" style="stroke:#222222;stroke-width:1;"/><line style="stroke:#181818;stroke-width:1;" x1="282.9933" x2="282.9933" y1="67.2969" y2="87.2969"/><polygon fill="#181818" points="278.9933,77.2969,282.9933,87.2969,286.9933,77.2969,282.9933,81.2969" style="stroke:#181818;stroke-width:1;"/><line style="stroke:#181818;stroke-width:1;" x1="282.9933" x2="282.9933" y1="121.2656" y2="141.2656"/><polygon fill="#181818" points="278.9933,131.2656,282.9933,141.2656,286.9933,131.2656,282.9933,135.2656" style="stroke:#181818;stroke-width:1;"/><line style="stroke:#181818;stroke-width:1;" x1="282.9933" x2="282.9933" y1="273.2031" y2="293.2031"/><polygon fill="#181818" points="278.9933,283.2031,282.9933,293.2031,286.9933,283.2031,282.9933,287.2031" style="stroke:#181818;stroke-width:1;"/><line style="stroke:#181818;stroke-width:1;" x1="210.9391" x2="179.1749" y1="422.707" y2="422.707"/><line style="stroke:#181818;stroke-width:1;" x1="179.1749" x2="179.1749" y1="422.707" y2="444.707"/><polygon fill="#181818" points="175.1749,434.707,179.1749,444.707,183.1749,434.707,179.1749,438.707" style="stroke:#181818;stroke-width:1;"/><line style="stroke:#181818;stroke-width:1;" x1="355.0475" x2="386.8116" y1="422.707" y2="422.707"/><line style="stroke:#181818;stroke-width:1;" x1="386.8116" x2="386.8116" y1="422.707" y2="444.707"/><polygon fill="#181818" points="382.8116,434.707,386.8116,444.707,390.8116,434.707,386.8116,438.707" style="stroke:#181818;stroke-width:1;"/><line style="stroke:#181818;stroke-width:1;" x1="179.1749" x2="179.1749" y1="478.6758" y2="496.6758"/><line style="stroke:#181818;stroke-width:1;" x1="179.1749" x2="270.9933" y1="496.6758" y2="496.6758"/><polygon fill="#181818" points="260.9933,492.6758,270.9933,496.6758,260.9933,500.6758,264.9933,496.6758" style="stroke:#181818;stroke-width:1;"/><line style="stroke:#181818;stroke-width:1;" x1="386.8116" x2="386.8116" y1="478.6758" y2="496.6758"/><line style="stroke:#181818;stroke-width:1;" x1="386.8116" x2="294.9933" y1="496.6758" y2="496.6758"/><polygon fill="#181818" points="304.9933,492.6758,294.9933,496.6758,304.9933,500.6758,300.9933,496.6758" style="stroke:#181818;stroke-width:1;"/><line style="stroke:#181818;stroke-width:1;" x1="282.9933" x2="282.9933" y1="508.6758" y2="543.6758"/><polygon fill="#181818" points="278.9933,533.6758,282.9933,543.6758,286.9933,533.6758,282.9933,537.6758" style="stroke:#181818;stroke-width:1;"/><line style="stroke:#181818;stroke-width:1;" x1="282.9933" x2="282.9933" y1="577.6445" y2="597.6445"/><polygon fill="#181818" points="278.9933,587.6445,282.9933,597.6445,286.9933,587.6445,282.9933,591.6445" style="stroke:#181818;stroke-width:1;"/><line style="stroke:#181818;stroke-width:1;" x1="282.9933" x2="282.9933" y1="386.3047" y2="410.707"/><polygon fill="#181818" points="278.9933,400.707,282.9933,410.707,286.9933,400.707,282.9933,404.707" style="stroke:#181818;stroke-width:1;"/><line style="stroke:#181818;stroke-width:1;" x1="348.1644" x2="506.0646" y1="374.3047" y2="374.3047"/><polygon fill="#181818" points="502.0646,518.6602,506.0646,528.6602,510.0646,518.6602,506.0646,522.6602" style="stroke:#181818;stroke-width:1;"/><line style="stroke:#181818;stroke-width:1;" x1="506.0646" x2="506.0646" y1="374.3047" y2="663.6133"/><line style="stroke:#181818;stroke-width:1;" x1="506.0646" x2="294.9933" y1="663.6133" y2="663.6133"/><polygon fill="#181818" points="304.9933,659.6133,294.9933,663.6133,304.9933,667.6133,300.9933,663.6133" style="stroke:#181818;stroke-width:1;"/><line style="stroke:#181818;stroke-width:1;" x1="282.9933" x2="282.9933" y1="631.6133" y2="651.6133"/><polygon fill="#181818" points="278.9933,641.6133,282.9933,651.6133,286.9933,641.6133,282.9933,645.6133" style="stroke:#181818;stroke-width:1;"/><line style="stroke:#181818;stroke-width:1;" x1="282.9933" x2="282.9933" y1="327.1719" y2="362.3047"/><polygon fill="#181818" points="278.9933,352.3047,282.9933,362.3047,286.9933,352.3047,282.9933,356.3047" style="stroke:#181818;stroke-width:1;"/><line style="stroke:#181818;stroke-width:1;" x1="282.9933" x2="282.9933" y1="793.1172" y2="828.1172"/><polygon fill="#181818" points="278.9933,818.1172,282.9933,828.1172,286.9933,818.1172,282.9933,822.1172" style="stroke:#181818;stroke-width:1;"/><line style="stroke:#181818;stroke-width:1;" x1="282.9933" x2="282.9933" y1="734.7461" y2="759.1484"/><polygon fill="#181818" points="278.9933,749.1484,282.9933,759.1484,286.9933,749.1484,282.9933,753.1484" style="stroke:#181818;stroke-width:1;"/><line style="stroke:#181818;stroke-width:1;" x1="352.4882" x2="441.5118" y1="722.7461" y2="722.7461"/><polygon fill="#181818" points="437.5118,800.6172,441.5118,810.6172,445.5118,800.6172,441.5118,804.6172" style="stroke:#181818;stroke-width:1;"/><line style="stroke:#181818;stroke-width:1;" x1="441.5118" x2="441.5118" y1="722.7461" y2="894.0859"/><line style="stroke:#181818;stroke-width:1;" x1="441.5118" x2="294.9933" y1="894.0859" y2="894.0859"/><polygon fill="#181818" points="304.9933,890.0859,294.9933,894.0859,304.9933,898.0859,300.9933,894.0859" style="stroke:#181818;stroke-width:1;"/><line style="stroke:#181818;stroke-width:1;" x1="282.9933" x2="282.9933" y1="862.0859" y2="882.0859"/><polygon fill="#181818" points="278.9933,872.0859,282.9933,882.0859,286.9933,872.0859,282.9933,876.0859" style="stroke:#181818;stroke-width:1;"/><line style="stroke:#181818;stroke-width:1;" x1="282.9933" x2="282.9933" y1="675.6133" y2="710.7461"/><polygon fill="#181818" points="278.9933,700.7461,282.9933,710.7461,286.9933,700.7461,282.9933,704.7461" style="stroke:#181818;stroke-width:1;"/><line style="stroke:#181818;stroke-width:1;" x1="197.1267" x2="197.1267" y1="1067.5898" y2="1102.5898"/><polygon fill="#181818" points="193.1267,1092.5898,197.1267,1102.5898,201.1267,1092.5898,197.1267,1096.5898" style="stroke:#181818;stroke-width:1;"/><line style="stroke:#181818;stroke-width:1;" x1="197.1267" x2="197.1267" y1="1009.2188" y2="1033.6211"/><polygon fill="#181818" points="193.1267,1023.6211,197.1267,1033.6211,201.1267,1023.6211,197.1267,1027.6211" style="stroke:#181818;stroke-width:1;"/><line style="stroke:#181818;stroke-width:1;" x1="258.9678" x2="315.7693" y1="997.2188" y2="997.2188"/><polygon fill="#181818" points="311.7693,1075.0898,315.7693,1085.0898,319.7693,1075.0898,315.7693,1079.0898" style="stroke:#181818;stroke-width:1;"/><line style="stroke:#181818;stroke-width:1;" x1="315.7693" x2="315.7693" y1="997.2188" y2="1168.5586"/><line style="stroke:#181818;stroke-width:1;" x1="315.7693" x2="209.1267" y1="1168.5586" y2="1168.5586"/><polygon fill="#181818" points="219.1267,1164.5586,209.1267,1168.5586,219.1267,1172.5586,215.1267,1168.5586" style="stroke:#181818;stroke-width:1;"/><line style="stroke:#181818;stroke-width:1;" x1="197.1267" x2="197.1267" y1="1136.5586" y2="1156.5586"/><polygon fill="#181818" points="193.1267,1146.5586,197.1267,1156.5586,201.1267,1146.5586,197.1267,1150.5586" style="stroke:#181818;stroke-width:1;"/><line style="stroke:#181818;stroke-width:1;" x1="225.9191" x2="197.1267" y1="938.0859" y2="938.0859"/><line style="stroke:#181818;stroke-width:1;" x1="197.1267" x2="197.1267" y1="938.0859" y2="985.2188"/><polygon fill="#181818" points="193.1267,975.2188,197.1267,985.2188,201.1267,975.2188,197.1267,979.2188" style="stroke:#181818;stroke-width:1;"/><line style="stroke:#181818;stroke-width:1;" x1="340.0675" x2="368.8599" y1="938.0859" y2="938.0859"/><line style="stroke:#181818;stroke-width:1;" x1="368.8599" x2="368.8599" y1="938.0859" y2="960.0859"/><polygon fill="#181818" points="364.8599,950.0859,368.8599,960.0859,372.8599,950.0859,368.8599,954.0859" style="stroke:#181818;stroke-width:1;"/><line style="stroke:#181818;stroke-width:1;" x1="197.1267" x2="197.1267" y1="1180.5586" y2="1198.5586"/><line style="stroke:#181818;stroke-width:1;" x1="197.1267" x2="270.9933" y1="1198.5586" y2="1198.5586"/><polygon fill="#181818" points="260.9933,1194.5586,270.9933,1198.5586,260.9933,1202.5586,264.9933,1198.5586" style="stroke:#181818;stroke-width:1;"/><line style="stroke:#181818;stroke-width:1;" x1="368.8599" x2="368.8599" y1="994.0547" y2="1198.5586"/><line style="stroke:#181818;stroke-width:1;" x1="368.8599" x2="294.9933" y1="1198.5586" y2="1198.5586"/><polygon fill="#181818" points="304.9933,1194.5586,294.9933,1198.5586,304.9933,1202.5586,300.9933,1198.5586" style="stroke:#181818;stroke-width:1;"/><line style="stroke:#181818;stroke-width:1;" x1="282.9933" x2="282.9933" y1="906.0859" y2="926.0859"/><polygon fill="#181818" points="278.9933,916.0859,282.9933,926.0859,286.9933,916.0859,282.9933,920.0859" style="stroke:#181818;stroke-width:1;"/><line style="stroke:#181818;stroke-width:1;" x1="282.9933" x2="282.9933" y1="1328.0625" y2="1363.0625"/><polygon fill="#181818" points="278.9933,1353.0625,282.9933,1363.0625,286.9933,1353.0625,282.9933,1357.0625" style="stroke:#181818;stroke-width:1;"/><line style="stroke:#181818;stroke-width:1;" x1="282.9933" x2="282.9933" y1="1269.6914" y2="1294.0938"/><polygon fill="#181818" points="278.9933,1284.0938,282.9933,1294.0938,286.9933,1284.0938,282.9933,1288.0938" style="stroke:#181818;stroke-width:1;"/><line style="stroke:#181818;stroke-width:1;" x1="350.6754" x2="401.5245" y1="1257.6914" y2="1257.6914"/><polygon fill="#181818" points="397.5245,1335.5625,401.5245,1345.5625,405.5245,1335.5625,401.5245,1339.5625" style="stroke:#181818;stroke-width:1;"/><line style="stroke:#181818;stroke-width:1;" x1="401.5245" x2="401.5245" y1="1257.6914" y2="1429.0313"/><line style="stroke:#181818;stroke-width:1;" x1="401.5245" x2="294.9933" y1="1429.0313" y2="1429.0313"/><polygon fill="#181818" points="304.9933,1425.0313,294.9933,1429.0313,304.9933,1433.0313,300.9933,1429.0313" style="stroke:#181818;stroke-width:1;"/><line style="stroke:#181818;stroke-width:1;" x1="282.9933" x2="282.9933" y1="1397.0313" y2="1417.0313"/><polygon fill="#181818" points="278.9933,1407.0313,282.9933,1417.0313,286.9933,1407.0313,282.9933,1411.0313" style="stroke:#181818;stroke-width:1;"/><line style="stroke:#181818;stroke-width:1;" x1="282.9933" x2="282.9933" y1="1210.5586" y2="1245.6914"/><polygon fill="#181818" points="278.9933,1235.6914,282.9933,1245.6914,286.9933,1235.6914,282.9933,1239.6914" style="stroke:#181818;stroke-width:1;"/><line style="stroke:#181818;stroke-width:1;" x1="282.9933" x2="282.9933" y1="219.2344" y2="239.2344"/><polygon fill="#181818" points="278.9933,229.2344,282.9933,239.2344,286.9933,229.2344,282.9933,233.2344" style="stroke:#181818;stroke-width:1;"/><line style="stroke:#181818;stroke-width:1;" x1="367.9623" x2="524.0646" y1="1473.0313" y2="1473.0313"/><polygon fill="#181818" points="520.0646,834.5352,524.0646,824.5352,528.0646,834.5352,524.0646,830.5352" style="stroke:#181818;stroke-width:1;"/><line style="stroke:#181818;stroke-width:1;" x1="524.0646" x2="524.0646" y1="207.2344" y2="1473.0313"/><line style="stroke:#181818;stroke-width:1;" x1="524.0646" x2="294.9933" y1="207.2344" y2="207.2344"/><polygon fill="#181818" points="304.9933,203.2344,294.9933,207.2344,304.9933,211.2344,300.9933,207.2344" style="stroke:#181818;stroke-width:1;"/><line style="stroke:#181818;stroke-width:1;" x1="282.9933" x2="282.9933" y1="1441.0313" y2="1461.0313"/><polygon fill="#181818" points="278.9933,1451.0313,282.9933,1461.0313,286.9933,1451.0313,282.9933,1455.0313" style="stroke:#181818;stroke-width:1;"/><line style="stroke:#181818;stroke-width:1;" x1="282.9933" x2="282.9933" y1="175.2344" y2="195.2344"/><polygon fill="#181818" points="278.9933,185.2344,282.9933,195.2344,286.9933,185.2344,282.9933,189.2344" style="stroke:#181818;stroke-width:1;"/><line style="stroke:#181818;stroke-width:1;" x1="282.9933" x2="282.9933" y1="1485.0313" y2="1505.0313"/><polygon fill="#181818" points="278.9933,1495.0313,282.9933,1505.0313,286.9933,1495.0313,282.9933,1499.0313" style="stroke:#181818;stroke-width:1;"/><line style="stroke:#181818;stroke-width:1;" x1="282.9933" x2="282.9933" y1="1539" y2="1559"/><polygon fill="#181818" points="278.9933,1549,282.9933,1559,286.9933,1549,282.9933,1553" style="stroke:#181818;stroke-width:1;"/><!--SRC=[bLH1Rjim4Bph5Nkq3tRkLfp0Y1KWW5i7YTkY9u6LLXORcXJ8PMBt0Nr0dzYNT4b9jWCx2NgJg9dPdLbgIP92k9SDAgaH7hpMQ65WlSwRxd3Sx8OmWbkl56HRB3n9e-5McPSaSIGi9SbaOKG9k6tGoWrgEd1t6vKcapijIGebVo6ibVaX532Hl0EfkwUBD4aiDYWe0PWyeiA2GEEMe1Ga758QpczgB9vwncNtvUgYFHZ_T4Qp382iOB2oWiMRcX4mNtxEheT0DMeOxD0D6GEW3I5OkQuflW8yFia6AF2aNe_Z8UeoulW55IiDj6d9eSJ6b0ZJAMoCDafIBOlJ8jmqPmeR5iqFE8uqRVLVYHw16G6ZaJKAfuKnjfHQaB5ftvIialWu-T9m2WYLKML-AQzY1Y1Sj0p6mktiRf7DqrVWQ37l9r21uC46WPOLiFiAmURIK-F91Pfs5LgBvN-46Idj73w8TBBgqQ4PC7rP0wuMN1IKAKIuU-axrl_-_jCnywD-OSgjU3onDjixVyXcy- -djW8eUnRAny9lNAGpxZl_kAUEkmz7xj-OViV1tABpYjp-hXmixo7T33cYVdAzmPDmlmb9uK9O9Bk3IaZ5iKJl9wbybSw7d_Kzp-Vd_NpC_6ZSmUmQUTq49otpOBQtsYkUyzertQuDUAdPKlWfBVOx8w8RQmfqxdh8QweJxRTJVhGuuisvMNwwNsGhLkVDPff_]--></g></svg>