<svg xmlns="http://www.w3.org/2000/svg" xmlns:xlink="http://www.w3.org/1999/xlink" contentStyleType="text/css" data-diagram-type="DESCRIPTION" height="716px" preserveAspectRatio="none" style="width:1944px;height:716px;background:#FFFFFF;" version="1.1" viewBox="0 0 1944 716" width="1944px" zoomAndPan="magnify"><title>Platform Architecture - Dynamic Roles and Deployment</title><defs/><g><g class="title" data-source-line="1"><text fill="#000000" font-family="sans-serif" font-size="14" font-weight="bold" lengthAdjust="spacing" textLength="437.5342" x="746.6365" y="22.9951">Platform Architecture - Dynamic Roles and Deployment</text></g><!--cluster Any Node (Docker Compose)--><g class="cluster" data-entity="Any Node (Docker Compose)" data-source-line="5" data-uid="ent0003" id="cluster_Any Node (Docker Compose)"><path d="M8.5,207.0763 L234.8945,207.0763 A3.75,3.75 0 0 1 237.3945,209.5763 L244.3945,229.3732 L558.5,229.3732 A2.5,2.5 0 0 1 561,231.8732 L561,446.1663 A2.5,2.5 0 0 1 558.5,448.6663 L8.5,448.6663 A2.5,2.5 0 0 1 6,446.1663 L6,209.5763 A2.5,2.5 0 0 1 8.5,207.0763" fill="none" style="stroke:#000000;stroke-width:1.5;"/><line style="stroke:#000000;stroke-width:1.5;" x1="6" x2="244.3945" y1="229.3732" y2="229.3732"/><text fill="#000000" font-family="sans-serif" font-size="14" font-weight="bold" lengthAdjust="spacing" textLength="225.3945" x="10" y="222.0714">Any Node (Docker Compose)</text></g><!--cluster Other Nodes--><g class="cluster" data-entity="Other Nodes" data-source-line="12" data-uid="ent0008" id="cluster_Other Nodes"><path d="M590.5965,55.9258 C596.8637,47.6699 603.8002,50.0987 607.6724,58.3965 C611.7551,50.4029 618.193,48.9215 624.0077,56.59 C629.7492,46.1355 638.0423,43.9282 645.3106,55.0849 C649.2727,48.2794 656.4001,48.803 660.1491,55.3222 C664.2142,44.9465 673.1821,44.6584 679.3703,53.1605 C685.0494,43.2969 692.8767,44.4687 698.2312,53.4848 C704.5064,45.7479 710.7285,45.358 716.4645,54.082 C721.8888,46.3675 730.1121,46.2196 734.5656,55.1383 C738.7496,47.5024 744.5088,45.8283 750.8562,52.7108 C757.027,44.9459 763.9568,45.8766 769.3636,53.6224 C774.88,45.129 784.2929,44.7007 789.2977,54.1895 C795.4919,45.3988 802.4577,47.4766 807.2657,55.6572 C813.4302,47.83 820.9967,49.9918 825.1018,57.9797 C828.8453,50.038 834.8919,49.062 840.613,55.9051 C854.4957,60.3658 855.5824,68.1572 847.345,79.0514 C855.7568,83.5033 858.4016,89.3927 850.8183,96.9488 C859.573,105.8399 856.4311,111.6835 846.8016,116.8673 C854.8944,126.7941 854.9677,134.2323 842.2006,140.0122 C836.8952,150.4617 827.5111,150.6896 822.3222,139.9033 C816.1936,147.7266 811.0593,147.7808 805.2499,139.5635 C800.3684,146.3489 792.8107,146.0974 788.7382,138.6265 C782.5525,148.6432 774.6445,149.1674 768.2978,138.7878 C764.9861,147.0525 758.2262,148.7934 752.4474,141.2637 C745.5768,147.6886 740.069,148.3468 735.3207,138.9643 C728.929,146.8041 722.1215,148.1205 715.8422,138.8365 C711.903,149.0688 704.5582,148.8452 698.0196,141.4671 C692.4719,148.7119 684.4057,147.8729 681.1002,139.0988 C676.0585,150.6975 667.1764,150.1108 660.1801,141.0812 C654.1761,147.3317 648.082,147.0558 644.3086,138.6635 C637.9617,148.2432 630.6796,148.2334 624.0971,138.9154 C619.8225,146.5796 613.5639,147.4418 608.2368,140.022 C602.2434,149.7586 594.6213,148.4282 589.1258,139.5119 C576.8554,132.1873 579.3481,124.8901 588.5717,117.0357 C578.0991,114.674 578.0009,106.3558 583.9706,99.6441 C573.8409,91.4718 575.6248,83.6917 586.4153,77.868 C576.3727,68.6912 579.7221,61.1168 590.5965,55.9258" fill="none" style="stroke:#181818;stroke-width:1;"/><text fill="#000000" font-family="sans-serif" font-size="14" font-weight="bold" lengthAdjust="spacing" textLength="99.0186" x="664.4907" y="73.7714">Other Nodes</text></g><!--cluster Key Roles (dynamic)--><g class="cluster" data-entity="Key Roles (dynamic)" data-source-line="18" data-uid="ent0011" id="cluster_Key Roles (dynamic)"><rect fill="none" height="240.27" rx="2.5" ry="2.5" style="stroke:#181818;stroke-width:1;" width="325" x="1001" y="351.3763"/><text fill="#000000" font-family="sans-serif" font-size="14" font-weight="bold" lengthAdjust="spacing" textLength="161.2871" x="1082.8564" y="366.3714">Key Roles (dynamic)</text></g><!--entity Agent--><g class="entity" data-entity="Agent" data-source-line="6" data-uid="ent0004" id="entity_Agent"><polygon fill="#F1F1F1" points="210.78,252.0763,220.78,242.0763,331.2116,242.0763,331.2116,278.3732,321.2116,288.3732,210.78,288.3732,210.78,252.0763" style="stroke:#181818;stroke-width:0.5;"/><line style="stroke:#181818;stroke-width:0.5;" x1="321.2116" x2="331.2116" y1="252.0763" y2="242.0763"/><line style="stroke:#181818;stroke-width:0.5;" x1="210.78" x2="321.2116" y1="252.0763" y2="252.0763"/><line style="stroke:#181818;stroke-width:0.5;" x1="321.2116" x2="321.2116" y1="252.0763" y2="288.3732"/><text fill="#000000" font-family="sans-serif" font-size="14" lengthAdjust="spacing" textLength="80.4316" x="225.78" y="275.0714">agent-node</text></g><!--entity API--><g class="entity" data-entity="API" data-source-line="7" data-uid="ent0005" id="entity_API"><polygon fill="#F1F1F1" points="165.33,396.3763,175.33,386.3763,266.6757,386.3763,266.6757,422.6732,256.6757,432.6732,165.33,432.6732,165.33,396.3763" style="stroke:#181818;stroke-width:0.5;"/><line style="stroke:#181818;stroke-width:0.5;" x1="256.6757" x2="266.6757" y1="396.3763" y2="386.3763"/><line style="stroke:#181818;stroke-width:0.5;" x1="165.33" x2="256.6757" y1="396.3763" y2="396.3763"/><line style="stroke:#181818;stroke-width:0.5;" x1="256.6757" x2="256.6757" y1="396.3763" y2="432.6732"/><text fill="#000000" font-family="sans-serif" font-size="14" lengthAdjust="spacing" textLength="61.3457" x="180.33" y="419.3714">api-node</text></g><!--entity UI--><g class="entity" data-entity="UI" data-source-line="8" data-uid="ent0006" id="entity_UI"><polygon fill="#F1F1F1" points="21.62,252.0763,31.62,242.0763,114.3729,242.0763,114.3729,278.3732,104.3729,288.3732,21.62,288.3732,21.62,252.0763" style="stroke:#181818;stroke-width:0.5;"/><line style="stroke:#181818;stroke-width:0.5;" x1="104.3729" x2="114.3729" y1="252.0763" y2="242.0763"/><line style="stroke:#181818;stroke-width:0.5;" x1="21.62" x2="104.3729" y1="252.0763" y2="252.0763"/><line style="stroke:#181818;stroke-width:0.5;" x1="104.3729" x2="104.3729" y1="252.0763" y2="288.3732"/><text fill="#000000" font-family="sans-serif" font-size="14" lengthAdjust="spacing" textLength="52.7529" x="36.62" y="275.0714">ui-node</text></g><!--entity Evaluator--><g class="entity" data-entity="Evaluator" data-source-line="9" data-uid="ent0007" id="entity_Evaluator"><polygon fill="#F1F1F1" points="366.51,252.0763,376.51,242.0763,545.4846,242.0763,545.4846,278.3732,535.4846,288.3732,366.51,288.3732,366.51,252.0763" style="stroke:#181818;stroke-width:0.5;"/><line style="stroke:#181818;stroke-width:0.5;" x1="535.4846" x2="545.4846" y1="252.0763" y2="242.0763"/><line style="stroke:#181818;stroke-width:0.5;" x1="366.51" x2="535.4846" y1="252.0763" y2="252.0763"/><line style="stroke:#181818;stroke-width:0.5;" x1="535.4846" x2="535.4846" y1="252.0763" y2="288.3732"/><text fill="#000000" font-family="sans-serif" font-size="14" lengthAdjust="spacing" textLength="138.9746" x="381.51" y="275.0714">Evaluator (optional)</text></g><!--entity Other agent-node instances--><g class="entity" data-entity="Other agent-node instances" data-source-line="13" data-uid="ent0009" id="entity_Other agent-node instances"><polygon fill="#F1F1F1" points="596.16,92.7763,606.16,82.7763,831.8455,82.7763,831.8455,119.0732,821.8455,129.0732,596.16,129.0732,596.16,92.7763" style="stroke:#181818;stroke-width:0.5;"/><line style="stroke:#181818;stroke-width:0.5;" x1="821.8455" x2="831.8455" y1="92.7763" y2="82.7763"/><line style="stroke:#181818;stroke-width:0.5;" x1="596.16" x2="821.8455" y1="92.7763" y2="92.7763"/><line style="stroke:#181818;stroke-width:0.5;" x1="821.8455" x2="821.8455" y1="92.7763" y2="129.0732"/><text fill="#000000" font-family="sans-serif" font-size="14" lengthAdjust="spacing" textLength="195.6855" x="611.16" y="115.7714">Other agent-node instances</text></g><!--entity Experimenter--><g class="entity" data-entity="Experimenter" data-source-line="19" data-uid="ent0012" id="entity_Experimenter"><rect fill="#F1F1F1" height="46.2969" rx="2.5" ry="2.5" style="stroke:#181818;stroke-width:0.5;" width="135.2588" x="1017.37" y="386.3763"/><rect fill="#F1F1F1" height="10" style="stroke:#181818;stroke-width:0.5;" width="15" x="1132.6288" y="391.3763"/><rect fill="#F1F1F1" height="2" style="stroke:#181818;stroke-width:0.5;" width="4" x="1130.6288" y="393.3763"/><rect fill="#F1F1F1" height="2" style="stroke:#181818;stroke-width:0.5;" width="4" x="1130.6288" y="397.3763"/><text fill="#000000" font-family="sans-serif" font-size="14" lengthAdjust="spacing" textLength="95.2588" x="1032.37" y="419.3714">Experimenter</text></g><!--entity Coordinator--><g class="entity" data-entity="Coordinator" data-source-line="20" data-uid="ent0013" id="entity_Coordinator"><rect fill="#F1F1F1" height="46.2969" rx="2.5" ry="2.5" style="stroke:#181818;stroke-width:0.5;" width="122.7012" x="1187.65" y="386.3763"/><rect fill="#F1F1F1" height="10" style="stroke:#181818;stroke-width:0.5;" width="15" x="1290.3512" y="391.3763"/><rect fill="#F1F1F1" height="2" style="stroke:#181818;stroke-width:0.5;" width="4" x="1288.3512" y="393.3763"/><rect fill="#F1F1F1" height="2" style="stroke:#181818;stroke-width:0.5;" width="4" x="1288.3512" y="397.3763"/><text fill="#000000" font-family="sans-serif" font-size="14" lengthAdjust="spacing" textLength="82.7012" x="1202.65" y="419.3714">Coordinator</text></g><!--entity Worker--><g class="entity" data-entity="Worker" data-source-line="21" data-uid="ent0014" id="entity_Worker"><rect fill="#F1F1F1" height="46.2969" rx="2.5" ry="2.5" style="stroke:#181818;stroke-width:0.5;" width="90.6406" x="1191.68" y="529.3563"/><rect fill="#F1F1F1" height="10" style="stroke:#181818;stroke-width:0.5;" width="15" x="1262.3206" y="534.3563"/><rect fill="#F1F1F1" height="2" style="stroke:#181818;stroke-width:0.5;" width="4" x="1260.3206" y="536.3563"/><rect fill="#F1F1F1" height="2" style="stroke:#181818;stroke-width:0.5;" width="4" x="1260.3206" y="540.3563"/><text fill="#000000" font-family="sans-serif" font-size="14" lengthAdjust="spacing" textLength="50.6406" x="1206.68" y="562.3514">Worker</text></g><!--entity User--><g class="entity" data-entity="User" data-source-line="3" data-uid="ent0002" id="entity_User"><ellipse cx="67.9951" cy="76.2763" fill="#F1F1F1" rx="8" ry="8" style="stroke:#181818;stroke-width:0.5;"/><path d="M67.9951,84.2763 L67.9951,111.2763 M54.9951,92.2763 L80.9951,92.2763 M67.9951,111.2763 L54.9951,126.2763 M67.9951,111.2763 L80.9951,126.2763" fill="none" style="stroke:#181818;stroke-width:0.5;"/><text fill="#000000" font-family="sans-serif" font-size="14" lengthAdjust="spacing" textLength="31.9102" x="52.04" y="140.7714">User</text></g><!--entity SharedStorage--><g class="entity" data-entity="SharedStorage" data-source-line="16" data-uid="ent0010" id="entity_SharedStorage"><path d="M958.57,664.6463 C958.57,654.6463 1093.9992,654.6463 1093.9992,654.6463 C1093.9992,654.6463 1229.4284,654.6463 1229.4284,664.6463 L1229.4284,689.9432 C1229.4284,699.9432 1093.9992,699.9432 1093.9992,699.9432 C1093.9992,699.9432 958.57,699.9432 958.57,689.9432 L958.57,664.6463" fill="#F1F1F1" style="stroke:#181818;stroke-width:0.5;"/><path d="M958.57,664.6463 C958.57,674.6463 1093.9992,674.6463 1093.9992,674.6463 C1093.9992,674.6463 1229.4284,674.6463 1229.4284,664.6463" fill="none" style="stroke:#181818;stroke-width:0.5;"/><text fill="#000000" font-family="sans-serif" font-size="14" lengthAdjust="spacing" textLength="250.8584" x="968.57" y="691.6414">Shared Storage (NAS, NFS, or Sync)</text></g><g class="entity" data-entity="GMN29" data-source-line="44" data-uid="ent0030" id="entity_GMN29"><path d="M661.64,366.6863 L661.64,452.3504 L982.3573,452.3504 L982.3573,376.6863 L972.3573,366.6863 L661.64,366.6863" fill="#FEFFDD" style="stroke:#181818;stroke-width:0.5;"/><path d="M972.3573,366.6863 L972.3573,376.6863 L982.3573,376.6863 L972.3573,366.6863" fill="#FEFFDD" style="stroke:#181818;stroke-width:1;"/><text fill="#000000" font-family="sans-serif" font-size="13" lengthAdjust="spacing" textLength="110.0874" x="667.64" y="383.7532">Each agent may:</text><text fill="#000000" font-family="sans-serif" font-size="13" lengthAdjust="spacing" textLength="239.3066" x="667.64" y="398.886">- Become Experimenter (if no UI/API)</text><text fill="#000000" font-family="sans-serif" font-size="13" lengthAdjust="spacing" textLength="183.6377" x="667.64" y="414.0188">- Act as Worker or Evaluator</text><text fill="#000000" font-family="sans-serif" font-size="13" lengthAdjust="spacing" textLength="226.9731" x="667.64" y="429.1516">- Promote to Coordinator if needed</text><text fill="#000000" font-family="sans-serif" font-size="13" lengthAdjust="spacing" textLength="299.7173" x="667.64" y="444.2845">- Auto-detect role via BOOT_MODE or network</text></g><!--link User to UI--><g class="link" data-entity-1="User" data-entity-2="UI" data-source-line="24" data-uid="lnk15" id="link_User_UI"><path d="M68,144.2063 C68,174.5463 68,210.3763 68,235.7963" fill="none" id="User-to-UI" style="stroke:#181818;stroke-width:1;"/><polygon fill="#181818" points="68,241.7963,72,232.7963,68,236.7963,64,232.7963,68,241.7963" style="stroke:#181818;stroke-width:1;"/><text fill="#000000" font-family="sans-serif" font-size="13" lengthAdjust="spacing" textLength="84.9761" x="69" y="187.1432">Upload YAML</text></g><!--link UI to API--><g class="link" data-entity-1="UI" data-entity-2="API" data-source-line="25" data-uid="lnk16" id="link_UI_API"><path d="M65.88,288.6563 C65.64,303.1863 67.6,321.8563 77,335.3763 C97.71,365.1463 128.7747,381.694 159.2747,392.674" fill="none" id="UI-to-API" style="stroke:#181818;stroke-width:1;"/><polygon fill="#181818" points="164.92,394.7063,157.8069,387.8943,160.2156,393.0127,155.0971,395.4214,164.92,394.7063" style="stroke:#181818;stroke-width:1;"/><text fill="#000000" font-family="sans-serif" font-size="13" lengthAdjust="spacing" textLength="94.3516" x="78" y="331.4432">POST /pipeline</text></g><!--link API to SharedStorage--><g class="link" data-entity-1="API" data-entity-2="SharedStorage" data-source-line="26" data-uid="lnk17" id="link_API_SharedStorage"><path d="M220.42,433.0863 C229.69,473.8363 255.27,559.2163 313,599.6463 C364.54,635.7463 742.4575,659.366 952.1675,669.876" fill="none" id="API-to-SharedStorage" style="stroke:#181818;stroke-width:1;"/><polygon fill="#181818" points="958.16,670.1763,949.3715,665.7308,953.1663,669.926,948.9711,673.7208,958.16,670.1763" style="stroke:#181818;stroke-width:1;"/><text fill="#000000" font-family="sans-serif" font-size="13" lengthAdjust="spacing" textLength="197.1138" x="314" y="557.0632">Save experiment_pipeline.yml</text></g><!--link Agent to API--><g class="link" data-entity-1="Agent" data-entity-2="API" data-source-line="28" data-uid="lnk18" id="link_Agent_API"><path d="M331.65,281.9863 C362.95,293.3663 391.63,311.0363 376,335.3763 C352.15,372.5063 310.0685,389.6021 272.8685,398.6921" fill="none" id="Agent-to-API" style="stroke:#181818;stroke-width:1;"/><polygon fill="#181818" points="267.04,400.1163,276.7323,401.8656,271.8971,398.9295,274.8333,394.0943,267.04,400.1163" style="stroke:#181818;stroke-width:1;"/><text fill="#000000" font-family="sans-serif" font-size="13" lengthAdjust="spacing" textLength="128.832" x="381" y="331.4432">Announce presence</text></g><!--link API to Agent--><g class="link" data-entity-1="API" data-entity-2="Agent" data-source-line="32" data-uid="lnk21" id="link_API_Agent"><path d="M198.61,386.0563 C186.29,367.2063 173.92,339.9663 186,318.3763 C192.85,306.1363 198.808,299.6376 210.688,292.0776" fill="none" id="API-to-Agent" style="stroke:#181818;stroke-width:1;"/><polygon fill="#181818" points="215.75,288.8563,206.0095,290.3135,211.5317,291.5407,210.3045,297.0628,215.75,288.8563" style="stroke:#181818;stroke-width:1;"/><text fill="#000000" font-family="sans-serif" font-size="13" lengthAdjust="spacing" textLength="180.4512" x="187" y="331.4432">Assign task (train, eval, vis)</text></g><!--link Agent to SharedStorage--><g class="link" data-entity-1="Agent" data-entity-2="SharedStorage" data-source-line="29" data-uid="lnk19" id="link_Agent_SharedStorage"><path d="M331.31,283.9963 C337.27,285.5563 343.24,287.0463 349,288.3763 C423.34,305.4763 466.32,262.2663 518,318.3763 C572.74,377.7963 504.76,424.4363 535,499.3563 C561.67,565.4263 572.63,590.2063 635,624.6463 C688.87,654.4063 837.1765,666.7673 952.0865,672.1173" fill="none" id="Agent-to-SharedStorage" style="stroke:#181818;stroke-width:1;"/><polygon fill="#181818" points="958.08,672.3963,949.2758,667.9821,953.0854,672.1638,948.9037,675.9734,958.08,672.3963" style="stroke:#181818;stroke-width:1;"/><text fill="#000000" font-family="sans-serif" font-size="13" lengthAdjust="spacing" textLength="81.707" x="536" y="495.4232">Read status/</text></g><!--link Agent to SharedStorage--><g class="link" data-entity-1="Agent" data-entity-2="SharedStorage" data-source-line="30" data-uid="lnk20" id="link_Agent_SharedStorage"><path d="M331.7,284.2763 C337.52,285.7563 343.36,287.1563 349,288.3763 C437.29,307.4163 473.52,270.3163 550,318.3763 C612.93,357.9163 587.83,408.0063 644,456.6663 C758.98,556.2863 921.3616,620.4378 1016.2016,652.2578" fill="none" id="Agent-to-SharedStorage-1" style="stroke:#181818;stroke-width:1;"/><polygon fill="#181818" points="1021.89,654.1663,1014.6298,647.5113,1017.1497,652.5759,1012.0851,655.0958,1021.89,654.1663" style="stroke:#181818;stroke-width:1;"/><text fill="#000000" font-family="sans-serif" font-size="13" lengthAdjust="spacing" textLength="79.0601" x="698" y="495.4232">Push results</text></g><!--link Agent to Worker--><g class="link" data-entity-1="Agent" data-entity-2="Worker" data-source-line="33" data-uid="lnk22" id="link_Agent_Worker"><path d="M331.57,284.9863 C337.42,286.3263 343.3,287.4863 349,288.3763 C403.98,296.8663 1311.25,278.4463 1350,318.3763 C1365.75,334.5963 1458.31,299.1863 1323,499.3563 C1313.12,513.9663 1302.9235,522.3045 1287.8135,530.5045" fill="none" id="Agent-to-Worker" style="stroke:#181818;stroke-width:1;"/><polygon fill="#181818" points="1282.54,533.3663,1292.3582,532.5892,1286.9346,530.9814,1288.5423,525.5579,1282.54,533.3663" style="stroke:#181818;stroke-width:1;"/><text fill="#000000" font-family="sans-serif" font-size="13" lengthAdjust="spacing" textLength="84.6396" x="1396" y="414.0832">Execute step</text></g><!--link Worker to SharedStorage--><g class="link" data-entity-1="Worker" data-entity-2="SharedStorage" data-source-line="34" data-uid="lnk23" id="link_Worker_SharedStorage"><path d="M1228.86,576.0063 C1222.41,591.2763 1212.12,611.0863 1198,624.6463 C1185.42,636.7263 1174.851,643.882 1159.241,651.582" fill="none" id="Worker-to-SharedStorage" style="stroke:#181818;stroke-width:1;"/><polygon fill="#181818" points="1153.86,654.2363,1163.701,653.8422,1158.3441,652.0244,1160.1619,646.6676,1153.86,654.2363" style="stroke:#181818;stroke-width:1;"/><text fill="#000000" font-family="sans-serif" font-size="13" lengthAdjust="spacing" textLength="107.4468" x="1213" y="620.7132">Save fold output</text></g><!--link Worker to SharedStorage--><g class="link" data-entity-1="Worker" data-entity-2="SharedStorage" data-source-line="38" data-uid="lnk26" id="link_Worker_SharedStorage"><path d="M1191.3,556.4763 C1156.38,561.4363 1110.39,574.3463 1087,607.6463 C1077.57,621.0863 1078.458,634.067 1082.968,648.567" fill="none" id="Worker-to-SharedStorage-1" style="stroke:#181818;stroke-width:1;"/><polygon fill="#181818" points="1084.75,654.2963,1085.8965,644.5144,1083.265,649.5219,1078.2575,646.8904,1084.75,654.2963" style="stroke:#181818;stroke-width:1;"/><text fill="#000000" font-family="sans-serif" font-size="13" lengthAdjust="spacing" textLength="101.6323" x="1088" y="620.7132">Save fold result</text></g><!--link Agent to Coordinator--><g class="link" data-entity-1="Agent" data-entity-2="Coordinator" data-source-line="36" data-uid="lnk24" id="link_Agent_Coordinator"><path d="M331.61,284.7663 C337.45,286.1463 343.31,287.3863 349,288.3763 C529.16,319.6263 1000.07,275.8463 1170,343.3763 C1193.13,352.5663 1210.389,366.9024 1225.089,381.8924" fill="none" id="Agent-to-Coordinator" style="stroke:#181818;stroke-width:1;"/><polygon fill="#181818" points="1229.29,386.1763,1225.8444,376.9498,1225.7892,382.6064,1220.1326,382.5512,1229.29,386.1763" style="stroke:#181818;stroke-width:1;"/><text fill="#000000" font-family="sans-serif" font-size="13" lengthAdjust="spacing" textLength="204.915" x="1137" y="331.4432">Connect for distributed training</text></g><!--link Coordinator to Worker--><g class="link" data-entity-1="Coordinator" data-entity-2="Worker" data-source-line="37" data-uid="lnk25" id="link_Coordinator_Worker"><path d="M1247.1,432.8563 C1244.85,459.2563 1241.6505,496.9381 1239.4005,523.2881" fill="none" id="Coordinator-to-Worker" style="stroke:#181818;stroke-width:1;"/><polygon fill="#181818" points="1238.89,529.2663,1243.6412,520.6393,1239.3154,524.2844,1235.6702,519.9586,1238.89,529.2663" style="stroke:#181818;stroke-width:1;"/><text fill="#000000" font-family="sans-serif" font-size="13" lengthAdjust="spacing" textLength="71.0684" x="1243" y="495.4232">Assign fold</text></g><!--link Evaluator to SharedStorage--><g class="link" data-entity-1="Evaluator" data-entity-2="SharedStorage" data-source-line="40" data-uid="lnk27" id="link_Evaluator_SharedStorage"><path d="M545.75,265.5263 C786.46,264.6463 1432.04,269.2763 1489,343.3763 C1576.66,457.3963 1454.31,554.0563 1329,624.6463 C1298.88,641.6163 1269.532,651.682 1235.682,659.342" fill="none" id="Evaluator-to-SharedStorage" style="stroke:#181818;stroke-width:1;"/><polygon fill="#181818" points="1229.83,660.6663,1239.4909,662.5813,1234.7067,659.5628,1237.7252,654.7785,1229.83,660.6663" style="stroke:#181818;stroke-width:1;"/><text fill="#000000" font-family="sans-serif" font-size="13" lengthAdjust="spacing" textLength="204.312" x="1501" y="495.4232">Read evaluation_summary.json</text></g><!--link Evaluator to SharedStorage--><g class="link" data-entity-1="Evaluator" data-entity-2="SharedStorage" data-source-line="41" data-uid="lnk28" id="link_Evaluator_SharedStorage"><path d="M545.95,268.2963 C780.42,274.0363 1398.33,291.5563 1487,318.3763 C1565.45,342.1063 1665.99,386.2263 1714,482.3563 C1759.96,574.3563 1431.7158,632.9019 1235.6958,659.4219" fill="none" id="Evaluator-to-SharedStorage-1" style="stroke:#181818;stroke-width:1;"/><polygon fill="#181818" points="1229.75,660.2263,1239.205,662.9836,1234.7049,659.556,1238.1325,655.0558,1229.75,660.2263" style="stroke:#181818;stroke-width:1;"/><text fill="#000000" font-family="sans-serif" font-size="13" lengthAdjust="spacing" textLength="217.8071" x="1719" y="495.4232">Save motion_canvas.json or plots</text></g><!--link Agent to GMN29--><g class="link" data-entity-1="Agent" data-entity-2="GMN29" data-source-line="44" data-uid="lnk31" id="link_Agent_GMN29"><path d="M331.65,284.5363 C337.48,285.9663 343.33,287.2763 349,288.3763 C474.49,312.5863 512.06,283.4363 635,318.3763 C674.35,329.5563 715.56,348.5363 749.26,366.2163" fill="none" id="Agent-GMN29" style="stroke:#181818;stroke-width:1;stroke-dasharray:7.0,7.0;"/></g><!--SRC=[ZLJVQzj037w_lqBaAO6wVU_3m6qo65kRqBICCKfHxvJa5ljaxaTMC_Q_JsTxYJlejXTZIv-aJvyaHnihWbM5SSE-XjBhdOsaO_841SnRXxNLSCSL1K1dO4vDnMrDBYg5EhA7Xq1UgGRr7hS4azArSCk6O3fdlISFrrmt76WsWHyAm6NNH90k5lbz0XYWp9ydPsD7hjM7eoEDx0ydy-A0LS9CPSfDjEomcdMOeqFzL4fNd0nCbd4dd3B1C2RKcq-qmBeGqMb1vM234Pyn272zGqy6rf8rjpkzBTTdSFjU7b9_tJhTb-vX0qefBugYsuhIau_K3d9EJQ_keCpNnKj3tcPfoJzcmpMpDzRb3hhlp-ptsIM4ikXG5Ez41xY41va96lXItdnIOiXsqKqSg-Nw7YuQsr1b7QbipCvNx0IsnWC17Si__GuuR-jAgMuwewIbSvn46cWy1PAN4UBFp7Sal4J9cCB5Ns2h57OWsL8LWphIxF5IC0IxTH0nx64QFLft1YIpFOE33RDHsbuWYLYya4wHf38rQh2-sVY6AmESOfFYkDcH-eAyPkTaY0BsO6o8tZvB0GCT7UksQWn_nMLWdwly7vLU1wLEU_scijH3PEUVGgfhzEtvjy3k7w5TgPgxC8tkWA6BoXiiYvGdu5Z4U-OOkGRU3FUvGBthJmHgR2zL0LUakIOOBovCxKPkIlRoGiOu4r0fgib53ArBZTDP5h3oNETQaL_fdNCG6J8vFaKk3EMV4dWv71awmjLoUVzqivmlSa97yRjaLoJ_fypy5m00]--></g></svg>