<svg xmlns="http://www.w3.org/2000/svg" xmlns:xlink="http://www.w3.org/1999/xlink" contentStyleType="text/css" data-diagram-type="SEQUENCE" height="887px" preserveAspectRatio="none" style="width:1576px;height:887px;background:#FFFFFF;" version="1.1" viewBox="0 0 1576 887" width="1576px" zoomAndPan="magnify"><title>Distributed Execution - With Pipeline Runner &lt;&lt;Data Parallelism&gt;&gt;</title><defs/><g><text fill="#000000" font-family="sans-serif" font-size="14" font-weight="bold" lengthAdjust="spacing" textLength="507.2881" x="535.96" y="27.9951">Distributed Execution - With Pipeline Runner &#171;Data Parallelism&#187;</text><rect fill="#DDDDDD" height="838.5156" style="stroke:#181818;stroke-width:0.5;" width="305.4268" x="366.999" y="43.2969"/><text fill="#000000" font-family="sans-serif" font-size="13" font-weight="bold" lengthAdjust="spacing" textLength="123.627" x="457.8989" y="55.3638">Coordinator Side</text><rect fill="#DDDDDD" height="838.5156" style="stroke:#181818;stroke-width:0.5;" width="564.8789" x="674.4258" y="43.2969"/><text fill="#000000" font-family="sans-serif" font-size="13" font-weight="bold" lengthAdjust="spacing" textLength="90.0225" x="911.854" y="55.3638">Worker Side</text><rect fill="none" height="46.2656" style="stroke:#000000;stroke-width:1.5;" width="364.7129" x="112.9873" y="193.8594"/><rect fill="none" height="104.5313" style="stroke:#000000;stroke-width:1.5;" width="392.0674" x="360.999" y="254.125"/><rect fill="none" height="175.7969" style="stroke:#000000;stroke-width:1.5;" width="576.8789" x="668.4258" y="372.6563"/><rect fill="none" height="75.3984" style="stroke:#000000;stroke-width:1.5;" width="392.0674" x="360.999" y="562.4531"/><rect fill="none" height="133.6641" style="stroke:#000000;stroke-width:1.5;" width="1457.2207" x="112.9873" y="651.8516"/><g><title>User</title><rect fill="#000000" fill-opacity="0.00000" height="683.9219" width="8" x="19.9551" y="118.5938"/><line style="stroke:#181818;stroke-width:0.5;stroke-dasharray:5.0,5.0;" x1="23" x2="23" y1="118.5938" y2="802.5156"/></g><g><title>run_pipeline.py</title><rect fill="#000000" fill-opacity="0.00000" height="683.9219" width="8" x="179.8203" y="118.5938"/><line style="stroke:#181818;stroke-width:0.5;stroke-dasharray:5.0,5.0;" x1="182.9873" x2="182.9873" y1="118.5938" y2="802.5156"/></g><g><title>Coordinator</title><rect fill="#000000" fill-opacity="0.00000" height="683.9219" width="8" x="415.3496" y="118.5938"/><line style="stroke:#181818;stroke-width:0.5;stroke-dasharray:5.0,5.0;" x1="418.999" x2="418.999" y1="118.5938" y2="802.5156"/></g><g><title>FoldStatus</title><rect fill="#000000" fill-opacity="0.00000" height="683.9219" width="8" x="620.4229" y="118.5938"/><line style="stroke:#181818;stroke-width:0.5;stroke-dasharray:5.0,5.0;" x1="624.4199" x2="624.4199" y1="118.5938" y2="802.5156"/></g><g><title>Worker</title><rect fill="#000000" fill-opacity="0.00000" height="683.9219" width="8" x="706.7461" y="118.5938"/><line style="stroke:#181818;stroke-width:0.5;stroke-dasharray:5.0,5.0;" x1="710.4258" x2="710.4258" y1="118.5938" y2="802.5156"/></g><g><title>DataLoader</title><rect fill="#000000" fill-opacity="0.00000" height="683.9219" width="8" x="920.0015" y="118.5938"/><line style="stroke:#181818;stroke-width:0.5;stroke-dasharray:5.0,5.0;" x1="923.1875" x2="923.1875" y1="118.5938" y2="802.5156"/></g><g><title>ModelInitializer</title><rect fill="#000000" fill-opacity="0.00000" height="683.9219" width="8" x="1038.0059" y="118.5938"/><line style="stroke:#181818;stroke-width:0.5;stroke-dasharray:5.0,5.0;" x1="1041.8154" x2="1041.8154" y1="118.5938" y2="802.5156"/></g><g><title>ResultSerializer</title><rect fill="#000000" fill-opacity="0.00000" height="683.9219" width="8" x="1169.7505" y="118.5938"/><line style="stroke:#181818;stroke-width:0.5;stroke-dasharray:5.0,5.0;" x1="1173.1963" x2="1173.1963" y1="118.5938" y2="802.5156"/></g><g><title>evaluate_results.py</title><rect fill="#000000" fill-opacity="0.00000" height="683.9219" width="8" x="1316.6812" y="118.5938"/><line style="stroke:#181818;stroke-width:0.5;stroke-dasharray:5.0,5.0;" x1="1320.3047" x2="1320.3047" y1="118.5938" y2="802.5156"/></g><g><title>generate_visuals.py</title><rect fill="#000000" fill-opacity="0.00000" height="683.9219" width="8" x="1479.1328" y="118.5938"/><line style="stroke:#181818;stroke-width:0.5;stroke-dasharray:5.0,5.0;" x1="1483.0576" x2="1483.0576" y1="118.5938" y2="802.5156"/></g><g class="participant participant-head" data-participant="User"><text fill="#000000" font-family="sans-serif" font-size="14" lengthAdjust="spacing" textLength="31.9102" x="5" y="115.292">User</text><ellipse cx="23.9551" cy="50.7969" fill="#E2E2F0" rx="8" ry="8" style="stroke:#181818;stroke-width:0.5;"/><path d="M23.9551,58.7969 L23.9551,85.7969 M10.9551,66.7969 L36.9551,66.7969 M23.9551,85.7969 L10.9551,100.7969 M23.9551,85.7969 L36.9551,100.7969" fill="none" style="stroke:#181818;stroke-width:0.5;"/></g><g class="participant participant-tail" data-participant="User"><text fill="#000000" font-family="sans-serif" font-size="14" lengthAdjust="spacing" textLength="31.9102" x="5" y="814.5107">User</text><ellipse cx="23.9551" cy="826.3125" fill="#E2E2F0" rx="8" ry="8" style="stroke:#181818;stroke-width:0.5;"/><path d="M23.9551,834.3125 L23.9551,861.3125 M10.9551,842.3125 L36.9551,842.3125 M23.9551,861.3125 L10.9551,876.3125 M23.9551,861.3125 L36.9551,876.3125" fill="none" style="stroke:#181818;stroke-width:0.5;"/></g><g class="participant participant-head" data-participant="PipelineRunner"><rect fill="#E2E2F0" height="30.2969" rx="2.5" ry="2.5" style="stroke:#181818;stroke-width:0.5;" width="121.666" x="122.9873" y="87.2969"/><text fill="#000000" font-family="sans-serif" font-size="14" lengthAdjust="spacing" textLength="107.666" x="129.9873" y="107.292">run_pipeline.py</text></g><g class="participant participant-tail" data-participant="PipelineRunner"><rect fill="#E2E2F0" height="30.2969" rx="2.5" ry="2.5" style="stroke:#181818;stroke-width:0.5;" width="121.666" x="122.9873" y="801.5156"/><text fill="#000000" font-family="sans-serif" font-size="14" lengthAdjust="spacing" textLength="107.666" x="129.9873" y="821.5107">run_pipeline.py</text></g><g class="participant participant-head" data-participant="Coordinator"><rect fill="#E2E2F0" height="30.2969" rx="2.5" ry="2.5" style="stroke:#181818;stroke-width:0.5;" width="96.7012" x="370.999" y="87.2969"/><text fill="#000000" font-family="sans-serif" font-size="14" lengthAdjust="spacing" textLength="82.7012" x="377.999" y="107.292">Coordinator</text></g><g class="participant participant-tail" data-participant="Coordinator"><rect fill="#E2E2F0" height="30.2969" rx="2.5" ry="2.5" style="stroke:#181818;stroke-width:0.5;" width="96.7012" x="370.999" y="801.5156"/><text fill="#000000" font-family="sans-serif" font-size="14" lengthAdjust="spacing" textLength="82.7012" x="377.999" y="821.5107">Coordinator</text></g><g class="participant participant-head" data-participant="FoldStatus"><rect fill="#E2E2F0" height="30.2969" rx="2.5" ry="2.5" style="stroke:#181818;stroke-width:0.5;" width="88.0059" x="580.4199" y="87.2969"/><text fill="#000000" font-family="sans-serif" font-size="14" lengthAdjust="spacing" textLength="74.0059" x="587.4199" y="107.292">FoldStatus</text></g><g class="participant participant-tail" data-participant="FoldStatus"><rect fill="#E2E2F0" height="30.2969" rx="2.5" ry="2.5" style="stroke:#181818;stroke-width:0.5;" width="88.0059" x="580.4199" y="801.5156"/><text fill="#000000" font-family="sans-serif" font-size="14" lengthAdjust="spacing" textLength="74.0059" x="587.4199" y="821.5107">FoldStatus</text></g><g class="participant participant-head" data-participant="Worker"><rect fill="#E2E2F0" height="30.2969" rx="2.5" ry="2.5" style="stroke:#181818;stroke-width:0.5;" width="64.6406" x="678.4258" y="87.2969"/><text fill="#000000" font-family="sans-serif" font-size="14" lengthAdjust="spacing" textLength="50.6406" x="685.4258" y="107.292">Worker</text></g><g class="participant participant-tail" data-participant="Worker"><rect fill="#E2E2F0" height="30.2969" rx="2.5" ry="2.5" style="stroke:#181818;stroke-width:0.5;" width="64.6406" x="678.4258" y="801.5156"/><text fill="#000000" font-family="sans-serif" font-size="14" lengthAdjust="spacing" textLength="50.6406" x="685.4258" y="821.5107">Worker</text></g><g class="participant participant-head" data-participant="DataLoader"><rect fill="#E2E2F0" height="30.2969" rx="2.5" ry="2.5" style="stroke:#181818;stroke-width:0.5;" width="95.6279" x="876.1875" y="87.2969"/><text fill="#000000" font-family="sans-serif" font-size="14" lengthAdjust="spacing" textLength="81.6279" x="883.1875" y="107.292">DataLoader</text></g><g class="participant participant-tail" data-participant="DataLoader"><rect fill="#E2E2F0" height="30.2969" rx="2.5" ry="2.5" style="stroke:#181818;stroke-width:0.5;" width="95.6279" x="876.1875" y="801.5156"/><text fill="#000000" font-family="sans-serif" font-size="14" lengthAdjust="spacing" textLength="81.6279" x="883.1875" y="821.5107">DataLoader</text></g><g class="participant participant-head" data-participant="ModelInitializer"><rect fill="#E2E2F0" height="30.2969" rx="2.5" ry="2.5" style="stroke:#181818;stroke-width:0.5;" width="120.3809" x="981.8154" y="87.2969"/><text fill="#000000" font-family="sans-serif" font-size="14" lengthAdjust="spacing" textLength="106.3809" x="988.8154" y="107.292">ModelInitializer</text></g><g class="participant participant-tail" data-participant="ModelInitializer"><rect fill="#E2E2F0" height="30.2969" rx="2.5" ry="2.5" style="stroke:#181818;stroke-width:0.5;" width="120.3809" x="981.8154" y="801.5156"/><text fill="#000000" font-family="sans-serif" font-size="14" lengthAdjust="spacing" textLength="106.3809" x="988.8154" y="821.5107">ModelInitializer</text></g><g class="participant participant-head" data-participant="ResultSerializer"><rect fill="#E2E2F0" height="30.2969" rx="2.5" ry="2.5" style="stroke:#181818;stroke-width:0.5;" width="123.1084" x="1112.1963" y="87.2969"/><text fill="#000000" font-family="sans-serif" font-size="14" lengthAdjust="spacing" textLength="109.1084" x="1119.1963" y="107.292">ResultSerializer</text></g><g class="participant participant-tail" data-participant="ResultSerializer"><rect fill="#E2E2F0" height="30.2969" rx="2.5" ry="2.5" style="stroke:#181818;stroke-width:0.5;" width="123.1084" x="1112.1963" y="801.5156"/><text fill="#000000" font-family="sans-serif" font-size="14" lengthAdjust="spacing" textLength="109.1084" x="1119.1963" y="821.5107">ResultSerializer</text></g><g class="participant participant-head" data-participant="evaluate_results.py"><rect fill="#E2E2F0" height="30.2969" rx="2.5" ry="2.5" style="stroke:#181818;stroke-width:0.5;" width="150.7529" x="1245.3047" y="87.2969"/><text fill="#000000" font-family="sans-serif" font-size="14" lengthAdjust="spacing" textLength="136.7529" x="1252.3047" y="107.292">evaluate_results.py</text></g><g class="participant participant-tail" data-participant="evaluate_results.py"><rect fill="#E2E2F0" height="30.2969" rx="2.5" ry="2.5" style="stroke:#181818;stroke-width:0.5;" width="150.7529" x="1245.3047" y="801.5156"/><text fill="#000000" font-family="sans-serif" font-size="14" lengthAdjust="spacing" textLength="136.7529" x="1252.3047" y="821.5107">evaluate_results.py</text></g><g class="participant participant-head" data-participant="generate_visuals.py"><rect fill="#E2E2F0" height="30.2969" rx="2.5" ry="2.5" style="stroke:#181818;stroke-width:0.5;" width="154.1504" x="1406.0576" y="87.2969"/><text fill="#000000" font-family="sans-serif" font-size="14" lengthAdjust="spacing" textLength="140.1504" x="1413.0576" y="107.292">generate_visuals.py</text></g><g class="participant participant-tail" data-participant="generate_visuals.py"><rect fill="#E2E2F0" height="30.2969" rx="2.5" ry="2.5" style="stroke:#181818;stroke-width:0.5;" width="154.1504" x="1406.0576" y="801.5156"/><text fill="#000000" font-family="sans-serif" font-size="14" lengthAdjust="spacing" textLength="140.1504" x="1413.0576" y="821.5107">generate_visuals.py</text></g><g class="message" data-participant-1="User" data-participant-2="PipelineRunner"><polygon fill="#181818" points="171.8203,145.7266,181.8203,149.7266,171.8203,153.7266,175.8203,149.7266" style="stroke:#181818;stroke-width:1;"/><line style="stroke:#181818;stroke-width:1;" x1="23.9551" x2="177.8203" y1="149.7266" y2="149.7266"/><text fill="#000000" font-family="sans-serif" font-size="13" lengthAdjust="spacing" textLength="135.8652" x="30.9551" y="144.6606">Start run_pipeline.py</text></g><g class="message" data-participant-1="PipelineRunner" data-participant-2="FoldStatus"><polygon fill="#181818" points="612.4229,174.8594,622.4229,178.8594,612.4229,182.8594,616.4229,178.8594" style="stroke:#181818;stroke-width:1;"/><line style="stroke:#181818;stroke-width:1;" x1="183.8203" x2="618.4229" y1="178.8594" y2="178.8594"/><text fill="#000000" font-family="sans-serif" font-size="13" lengthAdjust="spacing" textLength="120.8276" x="190.8203" y="173.7935">Check train_status</text></g><path d="M112.9873,193.8594 L177.4302,193.8594 L177.4302,200.9922 L167.4302,210.9922 L112.9873,210.9922 L112.9873,193.8594" fill="#EEEEEE" style="stroke:#000000;stroke-width:1.5;"/><rect fill="none" height="46.2656" style="stroke:#000000;stroke-width:1.5;" width="364.7129" x="112.9873" y="193.8594"/><text fill="#000000" font-family="sans-serif" font-size="13" font-weight="bold" lengthAdjust="spacing" textLength="19.4429" x="127.9873" y="206.9263">alt</text><text fill="#000000" font-family="sans-serif" font-size="11" font-weight="bold" lengthAdjust="spacing" textLength="66.6284" x="192.4302" y="206.0698">[Not done]</text><g class="message" data-participant-1="PipelineRunner" data-participant-2="Coordinator"><polygon fill="#181818" points="407.3496,228.125,417.3496,232.125,407.3496,236.125,411.3496,232.125" style="stroke:#181818;stroke-width:1;"/><line style="stroke:#181818;stroke-width:1;" x1="183.8203" x2="413.3496" y1="232.125" y2="232.125"/><text fill="#000000" font-family="sans-serif" font-size="13" lengthAdjust="spacing" textLength="211.5293" x="190.8203" y="227.0591">Launch with dataset/fold configs</text></g><path d="M360.999,254.125 L564.2715,254.125 L564.2715,261.2578 L554.2715,271.2578 L360.999,271.2578 L360.999,254.125" fill="#EEEEEE" style="stroke:#000000;stroke-width:1.5;"/><rect fill="none" height="104.5313" style="stroke:#000000;stroke-width:1.5;" width="392.0674" x="360.999" y="254.125"/><text fill="#000000" font-family="sans-serif" font-size="13" font-weight="bold" lengthAdjust="spacing" textLength="158.2725" x="375.999" y="267.1919">Worker requests task</text><g class="message" data-participant-1="Worker" data-participant-2="Coordinator"><polygon fill="#181818" points="430.3496,288.3906,420.3496,292.3906,430.3496,296.3906,426.3496,292.3906" style="stroke:#181818;stroke-width:1;"/><line style="stroke:#181818;stroke-width:1;" x1="424.3496" x2="709.7461" y1="292.3906" y2="292.3906"/><text fill="#000000" font-family="sans-serif" font-size="13" lengthAdjust="spacing" textLength="164.7026" x="436.3496" y="287.3247">Connect and request fold</text></g><g class="message" data-participant-1="Coordinator" data-participant-2="Worker"><polygon fill="#181818" points="698.7461,317.5234,708.7461,321.5234,698.7461,325.5234,702.7461,321.5234" style="stroke:#181818;stroke-width:1;"/><line style="stroke:#181818;stroke-width:1;" x1="419.3496" x2="704.7461" y1="321.5234" y2="321.5234"/><text fill="#000000" font-family="sans-serif" font-size="13" lengthAdjust="spacing" textLength="224.396" x="426.3496" y="316.4575">Send job.json, system.json, fold_id</text></g><g class="message" data-participant-1="Coordinator" data-participant-2="FoldStatus"><polygon fill="#181818" points="612.4229,346.6563,622.4229,350.6563,612.4229,354.6563,616.4229,350.6563" style="stroke:#181818;stroke-width:1;"/><line style="stroke:#181818;stroke-width:1;" x1="419.3496" x2="618.4229" y1="350.6563" y2="350.6563"/><text fill="#000000" font-family="sans-serif" font-size="13" lengthAdjust="spacing" textLength="67.082" x="426.3496" y="345.5903">Mark fold_</text><text fill="#000000" font-family="sans-serif" font-size="13" font-style="italic" lengthAdjust="spacing" textLength="109.8589" x="497.564" y="345.5903">as IN_PROGRESS</text></g><path d="M668.4258,372.6563 L847.228,372.6563 L847.228,379.7891 L837.228,389.7891 L668.4258,389.7891 L668.4258,372.6563" fill="#EEEEEE" style="stroke:#000000;stroke-width:1.5;"/><rect fill="none" height="175.7969" style="stroke:#000000;stroke-width:1.5;" width="576.8789" x="668.4258" y="372.6563"/><text fill="#000000" font-family="sans-serif" font-size="13" font-weight="bold" lengthAdjust="spacing" textLength="133.8022" x="683.4258" y="385.7231">Worker trains fold</text><g class="message" data-participant-1="Worker" data-participant-2="DataLoader"><polygon fill="#181818" points="912.0015,406.9219,922.0015,410.9219,912.0015,414.9219,916.0015,410.9219" style="stroke:#181818;stroke-width:1;"/><line style="stroke:#181818;stroke-width:1;" x1="710.7461" x2="918.0015" y1="410.9219" y2="410.9219"/><text fill="#000000" font-family="sans-serif" font-size="13" lengthAdjust="spacing" textLength="189.2554" x="717.7461" y="405.856">Load and preprocess dataset</text></g><g class="message" data-participant-1="Worker" data-participant-2="ModelInitializer"><polygon fill="#181818" points="1030.0059,436.0547,1040.0059,440.0547,1030.0059,444.0547,1034.0059,440.0547" style="stroke:#181818;stroke-width:1;"/><line style="stroke:#181818;stroke-width:1;" x1="710.7461" x2="1036.0059" y1="440.0547" y2="440.0547"/><text fill="#000000" font-family="sans-serif" font-size="13" lengthAdjust="spacing" textLength="105.79" x="717.7461" y="434.9888">Initialize models</text></g><g class="message" data-participant-1="Worker" data-participant-2="Worker"><line style="stroke:#181818;stroke-width:1;" x1="710.7461" x2="752.7461" y1="469.1875" y2="469.1875"/><line style="stroke:#181818;stroke-width:1;" x1="752.7461" x2="752.7461" y1="469.1875" y2="482.1875"/><line style="stroke:#181818;stroke-width:1;" x1="711.7461" x2="752.7461" y1="482.1875" y2="482.1875"/><polygon fill="#181818" points="721.7461,478.1875,711.7461,482.1875,721.7461,486.1875,717.7461,482.1875" style="stroke:#181818;stroke-width:1;"/><text fill="#000000" font-family="sans-serif" font-size="13" lengthAdjust="spacing" textLength="100.769" x="717.7461" y="464.1216">Train ensemble</text></g><g class="message" data-participant-1="Worker" data-participant-2="ResultSerializer"><polygon fill="#181818" points="1161.7505,507.3203,1171.7505,511.3203,1161.7505,515.3203,1165.7505,511.3203" style="stroke:#181818;stroke-width:1;"/><line style="stroke:#181818;stroke-width:1;" x1="710.7461" x2="1167.7505" y1="511.3203" y2="511.3203"/><text fill="#000000" font-family="sans-serif" font-size="13" lengthAdjust="spacing" textLength="268.5503" x="717.7461" y="506.2544">Save predictions, probs, ranks, metadata</text></g><g class="message" data-participant-1="ResultSerializer" data-participant-2="Worker"><polygon fill="#181818" points="721.7461,536.4531,711.7461,540.4531,721.7461,544.4531,717.7461,540.4531" style="stroke:#181818;stroke-width:1;"/><line style="stroke:#181818;stroke-width:1;" x1="715.7461" x2="1172.7505" y1="540.4531" y2="540.4531"/><text fill="#000000" font-family="sans-serif" font-size="13" lengthAdjust="spacing" textLength="153.1753" x="727.7461" y="535.3872">Return fold output path</text></g><path d="M360.999,562.4531 L601.5132,562.4531 L601.5132,569.5859 L591.5132,579.5859 L360.999,579.5859 L360.999,562.4531" fill="#EEEEEE" style="stroke:#000000;stroke-width:1.5;"/><rect fill="none" height="75.3984" style="stroke:#000000;stroke-width:1.5;" width="392.0674" x="360.999" y="562.4531"/><text fill="#000000" font-family="sans-serif" font-size="13" font-weight="bold" lengthAdjust="spacing" textLength="195.5142" x="375.999" y="575.52">Send result to Coordinator</text><g class="message" data-participant-1="Worker" data-participant-2="Coordinator"><polygon fill="#181818" points="430.3496,596.7188,420.3496,600.7188,430.3496,604.7188,426.3496,600.7188" style="stroke:#181818;stroke-width:1;"/><line style="stroke:#181818;stroke-width:1;" x1="424.3496" x2="709.7461" y1="600.7188" y2="600.7188"/><text fill="#000000" font-family="sans-serif" font-size="13" lengthAdjust="spacing" textLength="88.4102" x="436.3496" y="595.6528">ACK + fold_id</text></g><g class="message" data-participant-1="Coordinator" data-participant-2="FoldStatus"><polygon fill="#181818" points="612.4229,625.8516,622.4229,629.8516,612.4229,633.8516,616.4229,629.8516" style="stroke:#181818;stroke-width:1;"/><line style="stroke:#181818;stroke-width:1;" x1="419.3496" x2="618.4229" y1="629.8516" y2="629.8516"/><text fill="#000000" font-family="sans-serif" font-size="13" lengthAdjust="spacing" textLength="67.082" x="426.3496" y="624.7856">Mark fold_</text><text fill="#000000" font-family="sans-serif" font-size="13" font-style="italic" lengthAdjust="spacing" textLength="57.0527" x="497.564" y="624.7856">as DONE</text></g><path d="M112.9873,651.8516 L177.4302,651.8516 L177.4302,658.9844 L167.4302,668.9844 L112.9873,668.9844 L112.9873,651.8516" fill="#EEEEEE" style="stroke:#000000;stroke-width:1.5;"/><rect fill="none" height="133.6641" style="stroke:#000000;stroke-width:1.5;" width="1457.2207" x="112.9873" y="651.8516"/><text fill="#000000" font-family="sans-serif" font-size="13" font-weight="bold" lengthAdjust="spacing" textLength="19.4429" x="127.9873" y="664.9185">alt</text><text fill="#000000" font-family="sans-serif" font-size="11" font-weight="bold" lengthAdjust="spacing" textLength="99.5049" x="192.4302" y="664.062">[All folds DONE]</text><g class="message" data-participant-1="Coordinator" data-participant-2="FoldStatus"><polygon fill="#181818" points="612.4229,686.1172,622.4229,690.1172,612.4229,694.1172,616.4229,690.1172" style="stroke:#181818;stroke-width:1;"/><line style="stroke:#181818;stroke-width:1;" x1="419.3496" x2="618.4229" y1="690.1172" y2="690.1172"/><text fill="#000000" font-family="sans-serif" font-size="13" lengthAdjust="spacing" textLength="159.5229" x="426.3496" y="685.0513">Set train_status = DONE</text></g><g class="message" data-participant-1="PipelineRunner" data-participant-2="FoldStatus"><polygon fill="#181818" points="612.4229,715.25,622.4229,719.25,612.4229,723.25,616.4229,719.25" style="stroke:#181818;stroke-width:1;"/><line style="stroke:#181818;stroke-width:1;" x1="183.8203" x2="618.4229" y1="719.25" y2="719.25"/><text fill="#000000" font-family="sans-serif" font-size="13" lengthAdjust="spacing" textLength="120.0088" x="190.8203" y="714.1841">Detect completion</text></g><g class="message" data-participant-1="PipelineRunner" data-participant-2="evaluate_results.py"><polygon fill="#181818" points="1308.6812,744.3828,1318.6812,748.3828,1308.6812,752.3828,1312.6812,748.3828" style="stroke:#181818;stroke-width:1;"/><line style="stroke:#181818;stroke-width:1;" x1="183.8203" x2="1314.6812" y1="748.3828" y2="748.3828"/><text fill="#000000" font-family="sans-serif" font-size="13" lengthAdjust="spacing" textLength="98.0205" x="190.8203" y="743.3169">Run evaluation</text></g><g class="message" data-participant-1="PipelineRunner" data-participant-2="generate_visuals.py"><polygon fill="#181818" points="1471.1328,773.5156,1481.1328,777.5156,1471.1328,781.5156,1475.1328,777.5156" style="stroke:#181818;stroke-width:1;"/><line style="stroke:#181818;stroke-width:1;" x1="183.8203" x2="1477.1328" y1="777.5156" y2="777.5156"/><text fill="#000000" font-family="sans-serif" font-size="13" lengthAdjust="spacing" textLength="96.5352" x="190.8203" y="772.4497">Generate plots</text></g><!--SRC=[dLDDRzim3BthLn2vzcFt8WjG95bHh4s3U4EF0MEpYHfPqYGgQ_Vh9pdAXvrq0tgoHUezyZsAB5aHZAHd9nU1gOBn6vM1fT5m1S-ILp2LbfJK1BEWDJdezqV825Dqg5JC-7em409BDWv-Ud92M7GiIsbHynwTmUYXvuAUsno-jkyz8HRc3Nf3OrmbDIQUGbRKQ_4SPLlnRqPL1IC7BqXN49aotRDnQph7j4sqGadGWy6g4tuq5QbxBLcYadywoHdveBWWjqlkooSJu6hGbNu3iK_7q94lEjSYyA0fWeOhAjV03gMU-wrGL0mJmr0PJGBWbE3OoXjumA3B5VnEmwoYKa_yvIMMWDBe5xbiZ1DYwKomsHnmz2kGPm_nzZgMoE4Jwg699Ki6ZDep1X9rX1nVZBZC44r8FhsQnVMhD_eI_BjdglCXGUVo3Bhbo2EwzVPgNmxIYxgVpAUpfxlPk2ZEQ6ciyxks3aeEGqyUnPz6XNLadId9-vrNBL3tIKJeuGHroleMOA_xHse3I7kg5ufQTxfFARc46qgzLB9Ck-Wluy4iuiUXNiTFJOoflyXpWZwkEYCEJZVYmGIsWS4YhuvjQWRY6X9WqrgqZmT_E_mE5v-Tr-XfCjvsa5xohL9DDiV_pLKGjtO1lkvG_rcZ4N5wgAMfhQ9awLa8RL05P9fl_V1nFvE9GUyo7m6N57yIS2DzG9M1TpaALXbkzkml]--></g></svg>