<svg xmlns="http://www.w3.org/2000/svg" xmlns:xlink="http://www.w3.org/1999/xlink" contentStyleType="text/css" data-diagram-type="DESCRIPTION" height="654px" preserveAspectRatio="none" style="width:751px;height:654px;background:#FFFFFF;" version="1.1" viewBox="0 0 751 654" width="751px" zoomAndPan="magnify"><title>Common Modules - Component Relationships</title><defs/><g><g class="title" data-source-line="1"><text fill="#000000" font-family="sans-serif" font-size="14" font-weight="bold" lengthAdjust="spacing" textLength="357.417" x="189.7915" y="22.9951">Common Modules - Component Relationships</text></g><!--cluster User Input--><g class="cluster" data-entity="User Input" data-source-line="3" data-uid="ent0002" id="cluster_User Input"><path d="M239.5,43.2969 L323.3311,43.2969 A3.75,3.75 0 0 1 325.8311,45.7969 L332.8311,65.5938 L741.5,65.5938 A2.5,2.5 0 0 1 744,68.0938 L744,138.0869 A2.5,2.5 0 0 1 741.5,140.5869 L239.5,140.5869 A2.5,2.5 0 0 1 237,138.0869 L237,45.7969 A2.5,2.5 0 0 1 239.5,43.2969" fill="none" style="stroke:#000000;stroke-width:1.5;"/><line style="stroke:#000000;stroke-width:1.5;" x1="237" x2="332.8311" y1="65.5938" y2="65.5938"/><text fill="#000000" font-family="sans-serif" font-size="14" font-weight="bold" lengthAdjust="spacing" textLength="82.8311" x="241" y="58.292">User Input</text></g><!--cluster Shared Logic--><g class="cluster" data-entity="Shared Logic" data-source-line="9" data-uid="ent0006" id="cluster_Shared Logic"><path d="M280.5,173.5869 L383.9502,173.5869 A3.75,3.75 0 0 1 386.4502,176.0869 L393.4502,195.8838 L475.5,195.8838 A2.5,2.5 0 0 1 478,198.3838 L478,514.9769 A2.5,2.5 0 0 1 475.5,517.4769 L280.5,517.4769 A2.5,2.5 0 0 1 278,514.9769 L278,176.0869 A2.5,2.5 0 0 1 280.5,173.5869" fill="none" style="stroke:#000000;stroke-width:1.5;"/><line style="stroke:#000000;stroke-width:1.5;" x1="278" x2="393.4502" y1="195.8838" y2="195.8838"/><text fill="#000000" font-family="sans-serif" font-size="14" font-weight="bold" lengthAdjust="spacing" textLength="102.4502" x="282" y="188.582">Shared Logic</text></g><!--cluster Fold Output--><g class="cluster" data-entity="Fold Output" data-source-line="16" data-uid="ent0011" id="cluster_Fold Output"><path d="M8.5,550.4769 L103.6172,550.4769 A3.75,3.75 0 0 1 106.1172,552.9769 L113.1172,572.7738 L687.5,572.7738 A2.5,2.5 0 0 1 690,575.2738 L690,645.2769 A2.5,2.5 0 0 1 687.5,647.7769 L8.5,647.7769 A2.5,2.5 0 0 1 6,645.2769 L6,552.9769 A2.5,2.5 0 0 1 8.5,550.4769" fill="none" style="stroke:#000000;stroke-width:1.5;"/><line style="stroke:#000000;stroke-width:1.5;" x1="6" x2="113.1172" y1="572.7738" y2="572.7738"/><text fill="#000000" font-family="sans-serif" font-size="14" font-weight="bold" lengthAdjust="spacing" textLength="94.1172" x="10" y="565.472">Fold Output</text></g><!--entity job.json--><g class="entity" data-entity="job.json" data-source-line="4" data-uid="ent0003" id="entity_job.json"><rect fill="#F1F1F1" height="46.2969" rx="2.5" ry="2.5" style="stroke:#181818;stroke-width:0.5;" width="94.4141" x="633.79" y="78.2969"/><rect fill="#F1F1F1" height="10" style="stroke:#181818;stroke-width:0.5;" width="15" x="708.2041" y="83.2969"/><rect fill="#F1F1F1" height="2" style="stroke:#181818;stroke-width:0.5;" width="4" x="706.2041" y="85.2969"/><rect fill="#F1F1F1" height="2" style="stroke:#181818;stroke-width:0.5;" width="4" x="706.2041" y="89.2969"/><text fill="#000000" font-family="sans-serif" font-size="14" lengthAdjust="spacing" textLength="54.4141" x="648.79" y="111.292">job.json</text></g><!--entity system.json--><g class="entity" data-entity="system.json" data-source-line="5" data-uid="ent0004" id="entity_system.json"><rect fill="#F1F1F1" height="46.2969" rx="2.5" ry="2.5" style="stroke:#181818;stroke-width:0.5;" width="123.6855" x="253.16" y="78.2969"/><rect fill="#F1F1F1" height="10" style="stroke:#181818;stroke-width:0.5;" width="15" x="356.8455" y="83.2969"/><rect fill="#F1F1F1" height="2" style="stroke:#181818;stroke-width:0.5;" width="4" x="354.8455" y="85.2969"/><rect fill="#F1F1F1" height="2" style="stroke:#181818;stroke-width:0.5;" width="4" x="354.8455" y="89.2969"/><text fill="#000000" font-family="sans-serif" font-size="14" lengthAdjust="spacing" textLength="83.6855" x="268.16" y="111.292">system.json</text></g><!--entity feature_mapping.csv--><g class="entity" data-entity="feature_mapping.csv" data-source-line="6" data-uid="ent0005" id="entity_feature_mapping.csv"><rect fill="#F1F1F1" height="46.2969" rx="2.5" ry="2.5" style="stroke:#181818;stroke-width:0.5;" width="187.2188" x="411.39" y="78.2969"/><rect fill="#F1F1F1" height="10" style="stroke:#181818;stroke-width:0.5;" width="15" x="578.6088" y="83.2969"/><rect fill="#F1F1F1" height="2" style="stroke:#181818;stroke-width:0.5;" width="4" x="576.6088" y="85.2969"/><rect fill="#F1F1F1" height="2" style="stroke:#181818;stroke-width:0.5;" width="4" x="576.6088" y="89.2969"/><text fill="#000000" font-family="sans-serif" font-size="14" lengthAdjust="spacing" textLength="147.2188" x="426.39" y="111.292">feature_mapping.csv</text></g><!--entity DataLoader--><g class="entity" data-entity="DataLoader" data-source-line="10" data-uid="ent0007" id="entity_DataLoader"><rect fill="#F1F1F1" height="46.2969" rx="2.5" ry="2.5" style="stroke:#181818;stroke-width:0.5;" width="121.6279" x="300.19" y="208.5869"/><rect fill="#F1F1F1" height="10" style="stroke:#181818;stroke-width:0.5;" width="15" x="401.8179" y="213.5869"/><rect fill="#F1F1F1" height="2" style="stroke:#181818;stroke-width:0.5;" width="4" x="399.8179" y="215.5869"/><rect fill="#F1F1F1" height="2" style="stroke:#181818;stroke-width:0.5;" width="4" x="399.8179" y="219.5869"/><text fill="#000000" font-family="sans-serif" font-size="14" lengthAdjust="spacing" textLength="81.6279" x="315.19" y="241.582">DataLoader</text></g><!--entity ModelInitializer--><g class="entity" data-entity="ModelInitializer" data-source-line="11" data-uid="ent0008" id="entity_ModelInitializer"><rect fill="#F1F1F1" height="46.2969" rx="2.5" ry="2.5" style="stroke:#181818;stroke-width:0.5;" width="146.3809" x="293.81" y="331.8869"/><rect fill="#F1F1F1" height="10" style="stroke:#181818;stroke-width:0.5;" width="15" x="420.1909" y="336.8869"/><rect fill="#F1F1F1" height="2" style="stroke:#181818;stroke-width:0.5;" width="4" x="418.1909" y="338.8869"/><rect fill="#F1F1F1" height="2" style="stroke:#181818;stroke-width:0.5;" width="4" x="418.1909" y="342.8869"/><text fill="#000000" font-family="sans-serif" font-size="14" lengthAdjust="spacing" textLength="106.3809" x="308.81" y="364.882">ModelInitializer</text></g><!--entity ResultSerializer--><g class="entity" data-entity="ResultSerializer" data-source-line="12" data-uid="ent0009" id="entity_ResultSerializer"><rect fill="#F1F1F1" height="46.2969" rx="2.5" ry="2.5" style="stroke:#181818;stroke-width:0.5;" width="149.1084" x="294.45" y="455.1869"/><rect fill="#F1F1F1" height="10" style="stroke:#181818;stroke-width:0.5;" width="15" x="423.5584" y="460.1869"/><rect fill="#F1F1F1" height="2" style="stroke:#181818;stroke-width:0.5;" width="4" x="421.5584" y="462.1869"/><rect fill="#F1F1F1" height="2" style="stroke:#181818;stroke-width:0.5;" width="4" x="421.5584" y="466.1869"/><text fill="#000000" font-family="sans-serif" font-size="14" lengthAdjust="spacing" textLength="109.1084" x="309.45" y="488.182">ResultSerializer</text></g><!--entity predictions.csv--><g class="entity" data-entity="predictions.csv" data-source-line="17" data-uid="ent0012" id="entity_predictions.csv"><rect fill="#F1F1F1" height="46.2969" rx="2.5" ry="2.5" style="stroke:#181818;stroke-width:0.5;" width="145.5674" x="22.22" y="585.4769"/><rect fill="#F1F1F1" height="10" style="stroke:#181818;stroke-width:0.5;" width="15" x="147.7874" y="590.4769"/><rect fill="#F1F1F1" height="2" style="stroke:#181818;stroke-width:0.5;" width="4" x="145.7874" y="592.4769"/><rect fill="#F1F1F1" height="2" style="stroke:#181818;stroke-width:0.5;" width="4" x="145.7874" y="596.4769"/><text fill="#000000" font-family="sans-serif" font-size="14" lengthAdjust="spacing" textLength="105.5674" x="37.22" y="618.472">predictions.csv</text></g><!--entity probabilities.csv--><g class="entity" data-entity="probabilities.csv" data-source-line="18" data-uid="ent0013" id="entity_probabilities.csv"><rect fill="#F1F1F1" height="46.2969" rx="2.5" ry="2.5" style="stroke:#181818;stroke-width:0.5;" width="154.2422" x="202.88" y="585.4769"/><rect fill="#F1F1F1" height="10" style="stroke:#181818;stroke-width:0.5;" width="15" x="337.1222" y="590.4769"/><rect fill="#F1F1F1" height="2" style="stroke:#181818;stroke-width:0.5;" width="4" x="335.1222" y="592.4769"/><rect fill="#F1F1F1" height="2" style="stroke:#181818;stroke-width:0.5;" width="4" x="335.1222" y="596.4769"/><text fill="#000000" font-family="sans-serif" font-size="14" lengthAdjust="spacing" textLength="114.2422" x="217.88" y="618.472">probabilities.csv</text></g><!--entity ranks.csv--><g class="entity" data-entity="ranks.csv" data-source-line="19" data-uid="ent0014" id="entity_ranks.csv"><rect fill="#F1F1F1" height="46.2969" rx="2.5" ry="2.5" style="stroke:#181818;stroke-width:0.5;" width="106.3359" x="391.83" y="585.4769"/><rect fill="#F1F1F1" height="10" style="stroke:#181818;stroke-width:0.5;" width="15" x="478.1659" y="590.4769"/><rect fill="#F1F1F1" height="2" style="stroke:#181818;stroke-width:0.5;" width="4" x="476.1659" y="592.4769"/><rect fill="#F1F1F1" height="2" style="stroke:#181818;stroke-width:0.5;" width="4" x="476.1659" y="596.4769"/><text fill="#000000" font-family="sans-serif" font-size="14" lengthAdjust="spacing" textLength="66.3359" x="406.83" y="618.472">ranks.csv</text></g><!--entity metadata.json--><g class="entity" data-entity="metadata.json" data-source-line="20" data-uid="ent0015" id="entity_metadata.json"><rect fill="#F1F1F1" height="46.2969" rx="2.5" ry="2.5" style="stroke:#181818;stroke-width:0.5;" width="140.9258" x="533.54" y="585.4769"/><rect fill="#F1F1F1" height="10" style="stroke:#181818;stroke-width:0.5;" width="15" x="654.4658" y="590.4769"/><rect fill="#F1F1F1" height="2" style="stroke:#181818;stroke-width:0.5;" width="4" x="652.4658" y="592.4769"/><rect fill="#F1F1F1" height="2" style="stroke:#181818;stroke-width:0.5;" width="4" x="652.4658" y="596.4769"/><text fill="#000000" font-family="sans-serif" font-size="14" lengthAdjust="spacing" textLength="100.9258" x="548.54" y="618.472">metadata.json</text></g><!--entity Dataset--><g class="entity" data-entity="Dataset" data-source-line="15" data-uid="ent0010" id="entity_Dataset"><path d="M99.78,88.7969 C99.78,78.7969 158.9988,78.7969 158.9988,78.7969 C158.9988,78.7969 218.2175,78.7969 218.2175,88.7969 L218.2175,114.0938 C218.2175,124.0938 158.9988,124.0938 158.9988,124.0938 C158.9988,124.0938 99.78,124.0938 99.78,114.0938 L99.78,88.7969" fill="#F1F1F1" style="stroke:#181818;stroke-width:0.5;"/><path d="M99.78,88.7969 C99.78,98.7969 158.9988,98.7969 158.9988,98.7969 C158.9988,98.7969 218.2175,98.7969 218.2175,88.7969" fill="none" style="stroke:#181818;stroke-width:0.5;"/><text fill="#000000" font-family="sans-serif" font-size="14" lengthAdjust="spacing" textLength="98.4375" x="109.78" y="115.792">Dataset (CSV)</text></g><!--link job.json to ModelInitializer--><g class="link" data-entity-1="job.json" data-entity-2="ModelInitializer" data-source-line="23" data-uid="lnk16" id="link_job.json_ModelInitializer"><path d="M659.66,124.9269 C621.94,163.9169 540.01,245.3069 461,301.8869 C445.98,312.6469 433.8002,320.0275 418.0302,328.5375" fill="none" id="job.json-to-ModelInitializer" style="stroke:#181818;stroke-width:1;"/><polygon fill="#181818" points="412.75,331.3869,422.57,330.633,417.1502,329.0124,418.7708,323.5926,412.75,331.3869" style="stroke:#181818;stroke-width:1;"/></g><!--link system.json to DataLoader--><g class="link" data-entity-1="system.json" data-entity-2="DataLoader" data-source-line="24" data-uid="lnk17" id="link_system.json_DataLoader"><path d="M323.12,125.0869 C331.53,148.5369 342.5548,179.309 350.9348,202.679" fill="none" id="system.json-to-DataLoader" style="stroke:#181818;stroke-width:1;"/><polygon fill="#181818" points="352.96,208.3269,353.6874,198.5049,351.2723,203.6203,346.1569,201.2052,352.96,208.3269" style="stroke:#181818;stroke-width:1;"/></g><!--link feature_mapping.csv to DataLoader--><g class="link" data-entity-1="feature_mapping.csv" data-entity-2="DataLoader" data-source-line="25" data-uid="lnk18" id="link_feature_mapping.csv_DataLoader"><path d="M479.59,125.0869 C453.27,148.5369 416.8698,180.9655 390.6398,204.3355" fill="none" id="feature_mapping.csv-to-DataLoader" style="stroke:#181818;stroke-width:1;"/><polygon fill="#181818" points="386.16,208.3269,395.5407,205.3264,389.8932,205.0007,390.2188,199.3533,386.16,208.3269" style="stroke:#181818;stroke-width:1;"/></g><!--link Dataset to DataLoader--><g class="link" data-entity-1="Dataset" data-entity-2="DataLoader" data-source-line="26" data-uid="lnk19" id="link_Dataset_DataLoader"><path d="M193.73,124.4969 C230.5,147.8569 283.1952,181.32 320.3052,204.89" fill="none" id="Dataset-to-DataLoader" style="stroke:#181818;stroke-width:1;"/><polygon fill="#181818" points="325.37,208.1069,319.9174,199.9051,321.1494,205.4262,315.6283,206.6581,325.37,208.1069" style="stroke:#181818;stroke-width:1;"/></g><!--link DataLoader to ModelInitializer--><g class="link" data-entity-1="DataLoader" data-entity-2="ModelInitializer" data-source-line="28" data-uid="lnk20" id="link_DataLoader_ModelInitializer"><path d="M362.11,255.2669 C363.19,277.0569 364.5252,303.8841 365.5952,325.6341" fill="none" id="DataLoader-to-ModelInitializer" style="stroke:#181818;stroke-width:1;"/><polygon fill="#181818" points="365.89,331.6269,369.4429,322.4412,365.6443,326.6329,361.4526,322.8343,365.89,331.6269" style="stroke:#181818;stroke-width:1;"/><text fill="#000000" font-family="sans-serif" font-size="13" lengthAdjust="spacing" textLength="87.1216" x="365" y="297.9538">X, y, features</text></g><!--link ModelInitializer to ResultSerializer--><g class="link" data-entity-1="ModelInitializer" data-entity-2="ResultSerializer" data-source-line="29" data-uid="lnk21" id="link_ModelInitializer_ResultSerializer"><path d="M367.37,378.5669 C367.73,400.3569 368.1707,427.1777 368.5307,448.9177" fill="none" id="ModelInitializer-to-ResultSerializer" style="stroke:#181818;stroke-width:1;"/><polygon fill="#181818" points="368.63,454.9169,372.4804,445.8519,368.5472,449.9176,364.4815,445.9843,368.63,454.9169" style="stroke:#181818;stroke-width:1;"/><text fill="#000000" font-family="sans-serif" font-size="13" lengthAdjust="spacing" textLength="131.0918" x="369" y="421.2538">trained ensemble(s)</text></g><!--link ResultSerializer to predictions.csv--><g class="link" data-entity-1="ResultSerializer" data-entity-2="predictions.csv" data-source-line="30" data-uid="lnk22" id="link_ResultSerializer_predictions.csv"><path d="M293.96,499.5569 C259.75,510.1569 219.33,524.6669 185,542.4769 C162.23,554.2969 143.5234,567.679 126.2834,581.409" fill="none" id="ResultSerializer-to-predictions.csv" style="stroke:#181818;stroke-width:1;"/><polygon fill="#181818" points="121.59,585.1469,131.1221,582.669,125.5012,582.032,126.1382,576.4111,121.59,585.1469" style="stroke:#181818;stroke-width:1;"/></g><!--link ResultSerializer to probabilities.csv--><g class="link" data-entity-1="ResultSerializer" data-entity-2="probabilities.csv" data-source-line="31" data-uid="lnk23" id="link_ResultSerializer_probabilities.csv"><path d="M353.29,501.9769 C337.03,525.4269 315.1796,556.9168 298.9696,580.2868" fill="none" id="ResultSerializer-to-probabilities.csv" style="stroke:#181818;stroke-width:1;"/><polygon fill="#181818" points="295.55,585.2169,303.9662,580.1015,298.3997,581.1084,297.3927,575.5419,295.55,585.2169" style="stroke:#181818;stroke-width:1;"/></g><!--link ResultSerializer to ranks.csv--><g class="link" data-entity-1="ResultSerializer" data-entity-2="ranks.csv" data-source-line="32" data-uid="lnk24" id="link_ResultSerializer_ranks.csv"><path d="M382.41,501.9769 C396.3,525.4269 414.8226,556.6843 428.6626,580.0543" fill="none" id="ResultSerializer-to-ranks.csv" style="stroke:#181818;stroke-width:1;"/><polygon fill="#181818" points="431.72,585.2169,430.5757,575.4347,429.1722,580.9147,423.6922,579.5112,431.72,585.2169" style="stroke:#181818;stroke-width:1;"/></g><!--link ResultSerializer to metadata.json--><g class="link" data-entity-1="ResultSerializer" data-entity-2="metadata.json" data-source-line="33" data-uid="lnk25" id="link_ResultSerializer_metadata.json"><path d="M430.25,501.9369 C457.24,512.8369 488.91,526.9169 516,542.4769 C537.59,554.8869 555.4356,567.9203 572.2956,581.3403" fill="none" id="ResultSerializer-to-metadata.json" style="stroke:#181818;stroke-width:1;"/><polygon fill="#181818" points="576.99,585.0769,572.4394,576.3423,573.078,581.963,567.4573,582.6016,576.99,585.0769" style="stroke:#181818;stroke-width:1;"/></g><!--SRC=[TL7BQiCm4BphAnQV4eZp0Jtqab88f1GIMWebbBMzIPJ8aj2k2sdflrVEetPizoJjQ7PdTYHQ3C7CbQMpyEIAoX13MWFUMR82Ip8esbdUQSzAUSmFk2L8NfW2pAsl985l1V2-TzbqpywkwuAFB5GszOPGga0V9NglxNQQy-TQ_RJ6hNOOg825s-hyF33_i_20WWk71OKREBebCxTQD1hzrNbS4bT6LXIkZr6iY7CovAXMJsGI6CrMh-C4aE62g8qpKGUIntZ2SoNDVZxwq_afYhFz4-OopBI97gX10zf3KvKaM2jVmeW-cgWWJU_xUzoaTwAq4XYCiakwxjU1LNCVL8OxU9l0SG8N3LOzHjtMpJQsIK1ju_-HPIepGoCUgnwjxkt7-1-jb-mmiHNsCE4s_ry0]--></g></svg>