<svg xmlns="http://www.w3.org/2000/svg" xmlns:xlink="http://www.w3.org/1999/xlink" contentStyleType="text/css" data-diagram-type="DESCRIPTION" height="554px" preserveAspectRatio="none" style="width:1125px;height:554px;background:#FFFFFF;" version="1.1" viewBox="0 0 1125 554" width="1125px" zoomAndPan="magnify"><title>Distributed Runner - Component View</title><defs/><g><g class="title" data-source-line="1"><text fill="#000000" font-family="sans-serif" font-size="14" font-weight="bold" lengthAdjust="spacing" textLength="300.0361" x="405.4819" y="22.9951">Distributed Runner - Component View</text></g><!--cluster Execution Logic--><g class="cluster" data-entity="Execution Logic" data-source-line="3" data-uid="ent0002" id="cluster_Execution Logic"><path d="M399.5,43.2969 L524.4629,43.2969 A3.75,3.75 0 0 1 526.9629,45.7969 L533.9629,65.5938 L782.5,65.5938 A2.5,2.5 0 0 1 785,68.0938 L785,284.3969 A2.5,2.5 0 0 1 782.5,286.8969 L399.5,286.8969 A2.5,2.5 0 0 1 397,284.3969 L397,45.7969 A2.5,2.5 0 0 1 399.5,43.2969" fill="none" style="stroke:#000000;stroke-width:1.5;"/><line style="stroke:#000000;stroke-width:1.5;" x1="397" x2="533.9629" y1="65.5938" y2="65.5938"/><text fill="#000000" font-family="sans-serif" font-size="14" font-weight="bold" lengthAdjust="spacing" textLength="123.9629" x="401" y="58.292">Execution Logic</text></g><!--cluster Common Modules--><g class="cluster" data-entity="Common Modules" data-source-line="8" data-uid="ent0005" id="cluster_Common Modules"><path d="M429.5,319.8969 L570.1924,319.8969 A3.75,3.75 0 0 1 572.6924,322.3969 L579.6924,342.1938 L943.5,342.1938 A2.5,2.5 0 0 1 946,344.6938 L946,414.6869 A2.5,2.5 0 0 1 943.5,417.1869 L429.5,417.1869 A2.5,2.5 0 0 1 427,414.6869 L427,322.3969 A2.5,2.5 0 0 1 429.5,319.8969" fill="none" style="stroke:#000000;stroke-width:1.5;"/><line style="stroke:#000000;stroke-width:1.5;" x1="427" x2="579.6924" y1="342.1938" y2="342.1938"/><text fill="#000000" font-family="sans-serif" font-size="14" font-weight="bold" lengthAdjust="spacing" textLength="139.6924" x="431" y="334.892">Common Modules</text></g><!--cluster Task Coordination--><g class="cluster" data-entity="Task Coordination" data-source-line="14" data-uid="ent0009" id="cluster_Task Coordination"><path d="M8.5,189.5969 L152.7402,189.5969 A3.75,3.75 0 0 1 155.2402,192.0969 L162.2402,211.8938 L350.5,211.8938 A2.5,2.5 0 0 1 353,214.3938 L353,284.3969 A2.5,2.5 0 0 1 350.5,286.8969 L8.5,286.8969 A2.5,2.5 0 0 1 6,284.3969 L6,192.0969 A2.5,2.5 0 0 1 8.5,189.5969" fill="none" style="stroke:#000000;stroke-width:1.5;"/><line style="stroke:#000000;stroke-width:1.5;" x1="6" x2="162.2402" y1="211.8938" y2="211.8938"/><text fill="#000000" font-family="sans-serif" font-size="14" font-weight="bold" lengthAdjust="spacing" textLength="143.2402" x="10" y="204.592">Task Coordination</text></g><!--cluster Status Tracking--><g class="cluster" data-entity="Status Tracking" data-source-line="19" data-uid="ent0012" id="cluster_Status Tracking"><path d="M124.5,450.1869 L249.8867,450.1869 A3.75,3.75 0 0 1 252.3867,452.6869 L259.3867,472.4838 L408.5,472.4838 A2.5,2.5 0 0 1 411,474.9838 L411,544.9869 A2.5,2.5 0 0 1 408.5,547.4869 L124.5,547.4869 A2.5,2.5 0 0 1 122,544.9869 L122,452.6869 A2.5,2.5 0 0 1 124.5,450.1869" fill="none" style="stroke:#000000;stroke-width:1.5;"/><line style="stroke:#000000;stroke-width:1.5;" x1="122" x2="259.3867" y1="472.4838" y2="472.4838"/><text fill="#000000" font-family="sans-serif" font-size="14" font-weight="bold" lengthAdjust="spacing" textLength="124.3867" x="126" y="465.182">Status Tracking</text></g><!--cluster Config--><g class="cluster" data-entity="Config" data-source-line="24" data-uid="ent0015" id="cluster_Config"><path d="M811.5,43.2969 L863.2705,43.2969 A3.75,3.75 0 0 1 865.7705,45.7969 L872.7705,65.5938 L1091.5,65.5938 A2.5,2.5 0 0 1 1094,68.0938 L1094,138.0969 A2.5,2.5 0 0 1 1091.5,140.5969 L811.5,140.5969 A2.5,2.5 0 0 1 809,138.0969 L809,45.7969 A2.5,2.5 0 0 1 811.5,43.2969" fill="none" style="stroke:#000000;stroke-width:1.5;"/><line style="stroke:#000000;stroke-width:1.5;" x1="809" x2="872.7705" y1="65.5938" y2="65.5938"/><text fill="#000000" font-family="sans-serif" font-size="14" font-weight="bold" lengthAdjust="spacing" textLength="50.7705" x="813" y="58.292">Config</text></g><!--cluster Fold Output--><g class="cluster" data-entity="Fold Output" data-source-line="30" data-uid="ent0019" id="cluster_Fold Output"><path d="M437.5,450.1869 L532.6172,450.1869 A3.75,3.75 0 0 1 535.1172,452.6869 L542.1172,472.4838 L1115.5,472.4838 A2.5,2.5 0 0 1 1118,474.9838 L1118,544.9869 A2.5,2.5 0 0 1 1115.5,547.4869 L437.5,547.4869 A2.5,2.5 0 0 1 435,544.9869 L435,452.6869 A2.5,2.5 0 0 1 437.5,450.1869" fill="none" style="stroke:#000000;stroke-width:1.5;"/><line style="stroke:#000000;stroke-width:1.5;" x1="435" x2="542.1172" y1="472.4838" y2="472.4838"/><text fill="#000000" font-family="sans-serif" font-size="14" font-weight="bold" lengthAdjust="spacing" textLength="94.1172" x="439" y="465.182">Fold Output</text></g><!--entity Coordinator--><g class="entity" data-entity="Coordinator" data-source-line="4" data-uid="ent0003" id="entity_Coordinator"><rect fill="#F1F1F1" height="46.2969" rx="2.5" ry="2.5" style="stroke:#181818;stroke-width:0.5;" width="237.2715" x="413.36" y="78.2969"/><rect fill="#F1F1F1" height="10" style="stroke:#181818;stroke-width:0.5;" width="15" x="630.6315" y="83.2969"/><rect fill="#F1F1F1" height="2" style="stroke:#181818;stroke-width:0.5;" width="4" x="628.6315" y="85.2969"/><rect fill="#F1F1F1" height="2" style="stroke:#181818;stroke-width:0.5;" width="4" x="628.6315" y="89.2969"/><text fill="#000000" font-family="sans-serif" font-size="14" lengthAdjust="spacing" textLength="197.2715" x="428.36" y="111.292">main.py (Coordinator Mode)</text></g><!--entity Worker--><g class="entity" data-entity="Worker" data-source-line="5" data-uid="ent0004" id="entity_Worker"><rect fill="#F1F1F1" height="46.2969" rx="2.5" ry="2.5" style="stroke:#181818;stroke-width:0.5;" width="205.2109" x="563.39" y="224.5969"/><rect fill="#F1F1F1" height="10" style="stroke:#181818;stroke-width:0.5;" width="15" x="748.6009" y="229.5969"/><rect fill="#F1F1F1" height="2" style="stroke:#181818;stroke-width:0.5;" width="4" x="746.6009" y="231.5969"/><rect fill="#F1F1F1" height="2" style="stroke:#181818;stroke-width:0.5;" width="4" x="746.6009" y="235.5969"/><text fill="#000000" font-family="sans-serif" font-size="14" lengthAdjust="spacing" textLength="165.2109" x="578.39" y="257.592">main.py (Worker Mode)</text></g><!--entity DataLoader--><g class="entity" data-entity="DataLoader" data-source-line="9" data-uid="ent0006" id="entity_DataLoader"><rect fill="#F1F1F1" height="46.2969" rx="2.5" ry="2.5" style="stroke:#181818;stroke-width:0.5;" width="121.6279" x="808.19" y="354.8969"/><rect fill="#F1F1F1" height="10" style="stroke:#181818;stroke-width:0.5;" width="15" x="909.8179" y="359.8969"/><rect fill="#F1F1F1" height="2" style="stroke:#181818;stroke-width:0.5;" width="4" x="907.8179" y="361.8969"/><rect fill="#F1F1F1" height="2" style="stroke:#181818;stroke-width:0.5;" width="4" x="907.8179" y="365.8969"/><text fill="#000000" font-family="sans-serif" font-size="14" lengthAdjust="spacing" textLength="81.6279" x="823.19" y="387.892">DataLoader</text></g><!--entity ModelInitializer--><g class="entity" data-entity="ModelInitializer" data-source-line="10" data-uid="ent0007" id="entity_ModelInitializer"><rect fill="#F1F1F1" height="46.2969" rx="2.5" ry="2.5" style="stroke:#181818;stroke-width:0.5;" width="146.3809" x="442.81" y="354.8969"/><rect fill="#F1F1F1" height="10" style="stroke:#181818;stroke-width:0.5;" width="15" x="569.1909" y="359.8969"/><rect fill="#F1F1F1" height="2" style="stroke:#181818;stroke-width:0.5;" width="4" x="567.1909" y="361.8969"/><rect fill="#F1F1F1" height="2" style="stroke:#181818;stroke-width:0.5;" width="4" x="567.1909" y="365.8969"/><text fill="#000000" font-family="sans-serif" font-size="14" lengthAdjust="spacing" textLength="106.3809" x="457.81" y="387.892">ModelInitializer</text></g><!--entity ResultSerializer--><g class="entity" data-entity="ResultSerializer" data-source-line="11" data-uid="ent0008" id="entity_ResultSerializer"><rect fill="#F1F1F1" height="46.2969" rx="2.5" ry="2.5" style="stroke:#181818;stroke-width:0.5;" width="149.1084" x="624.45" y="354.8969"/><rect fill="#F1F1F1" height="10" style="stroke:#181818;stroke-width:0.5;" width="15" x="753.5584" y="359.8969"/><rect fill="#F1F1F1" height="2" style="stroke:#181818;stroke-width:0.5;" width="4" x="751.5584" y="361.8969"/><rect fill="#F1F1F1" height="2" style="stroke:#181818;stroke-width:0.5;" width="4" x="751.5584" y="365.8969"/><text fill="#000000" font-family="sans-serif" font-size="14" lengthAdjust="spacing" textLength="109.1084" x="639.45" y="387.892">ResultSerializer</text></g><!--entity Fold Queue--><g class="entity" data-entity="Fold Queue" data-source-line="15" data-uid="ent0010" id="entity_Fold Queue"><rect fill="#F1F1F1" height="46.2969" rx="2.5" ry="2.5" style="stroke:#181818;stroke-width:0.5;" width="119.8369" x="22.08" y="224.5969"/><rect fill="#F1F1F1" height="10" style="stroke:#181818;stroke-width:0.5;" width="15" x="121.9169" y="229.5969"/><rect fill="#F1F1F1" height="2" style="stroke:#181818;stroke-width:0.5;" width="4" x="119.9169" y="231.5969"/><rect fill="#F1F1F1" height="2" style="stroke:#181818;stroke-width:0.5;" width="4" x="119.9169" y="235.5969"/><text fill="#000000" font-family="sans-serif" font-size="14" lengthAdjust="spacing" textLength="79.8369" x="37.08" y="257.592">Fold Queue</text></g><!--entity Task Assignment--><g class="entity" data-entity="Task Assignment" data-source-line="16" data-uid="ent0011" id="entity_Task Assignment"><rect fill="#F1F1F1" height="46.2969" rx="2.5" ry="2.5" style="stroke:#181818;stroke-width:0.5;" width="159.4102" x="177.29" y="224.5969"/><rect fill="#F1F1F1" height="10" style="stroke:#181818;stroke-width:0.5;" width="15" x="316.7002" y="229.5969"/><rect fill="#F1F1F1" height="2" style="stroke:#181818;stroke-width:0.5;" width="4" x="314.7002" y="231.5969"/><rect fill="#F1F1F1" height="2" style="stroke:#181818;stroke-width:0.5;" width="4" x="314.7002" y="235.5969"/><text fill="#000000" font-family="sans-serif" font-size="14" lengthAdjust="spacing" textLength="119.4102" x="192.29" y="257.592">Task Assignment</text></g><!--entity fold_<i>.json--><g class="entity" data-entity="fold_&lt;i&gt;.json" data-source-line="20" data-uid="ent0013" id="entity_fold_&lt;i&gt;.json"><rect fill="#F1F1F1" height="46.2969" rx="2.5" ry="2.5" style="stroke:#181818;stroke-width:0.5;" width="106.3428" x="137.83" y="485.1869"/><rect fill="#F1F1F1" height="10" style="stroke:#181818;stroke-width:0.5;" width="15" x="224.1728" y="490.1869"/><rect fill="#F1F1F1" height="2" style="stroke:#181818;stroke-width:0.5;" width="4" x="222.1728" y="492.1869"/><rect fill="#F1F1F1" height="2" style="stroke:#181818;stroke-width:0.5;" width="4" x="222.1728" y="496.1869"/><text fill="#000000" font-family="sans-serif" font-size="14" lengthAdjust="spacing" textLength="33.2705" x="152.83" y="518.182">fold_</text><text fill="#000000" font-family="sans-serif" font-size="14" font-style="italic" lengthAdjust="spacing" textLength="33.0723" x="186.1005" y="518.182">.json</text></g><!--entity status.json--><g class="entity" data-entity="status.json" data-source-line="21" data-uid="ent0014" id="entity_status.json"><rect fill="#F1F1F1" height="46.2969" rx="2.5" ry="2.5" style="stroke:#181818;stroke-width:0.5;" width="116.0908" x="278.95" y="485.1869"/><rect fill="#F1F1F1" height="10" style="stroke:#181818;stroke-width:0.5;" width="15" x="375.0408" y="490.1869"/><rect fill="#F1F1F1" height="2" style="stroke:#181818;stroke-width:0.5;" width="4" x="373.0408" y="492.1869"/><rect fill="#F1F1F1" height="2" style="stroke:#181818;stroke-width:0.5;" width="4" x="373.0408" y="496.1869"/><text fill="#000000" font-family="sans-serif" font-size="14" lengthAdjust="spacing" textLength="76.0908" x="293.95" y="518.182">status.json</text></g><!--entity job.json--><g class="entity" data-entity="job.json" data-source-line="25" data-uid="ent0016" id="entity_job.json"><rect fill="#F1F1F1" height="46.2969" rx="2.5" ry="2.5" style="stroke:#181818;stroke-width:0.5;" width="94.4141" x="824.79" y="78.2969"/><rect fill="#F1F1F1" height="10" style="stroke:#181818;stroke-width:0.5;" width="15" x="899.2041" y="83.2969"/><rect fill="#F1F1F1" height="2" style="stroke:#181818;stroke-width:0.5;" width="4" x="897.2041" y="85.2969"/><rect fill="#F1F1F1" height="2" style="stroke:#181818;stroke-width:0.5;" width="4" x="897.2041" y="89.2969"/><text fill="#000000" font-family="sans-serif" font-size="14" lengthAdjust="spacing" textLength="54.4141" x="839.79" y="111.292">job.json</text></g><!--entity system.json--><g class="entity" data-entity="system.json" data-source-line="26" data-uid="ent0017" id="entity_system.json"><rect fill="#F1F1F1" height="46.2969" rx="2.5" ry="2.5" style="stroke:#181818;stroke-width:0.5;" width="123.6855" x="954.16" y="78.2969"/><rect fill="#F1F1F1" height="10" style="stroke:#181818;stroke-width:0.5;" width="15" x="1057.8455" y="83.2969"/><rect fill="#F1F1F1" height="2" style="stroke:#181818;stroke-width:0.5;" width="4" x="1055.8455" y="85.2969"/><rect fill="#F1F1F1" height="2" style="stroke:#181818;stroke-width:0.5;" width="4" x="1055.8455" y="89.2969"/><text fill="#000000" font-family="sans-serif" font-size="14" lengthAdjust="spacing" textLength="83.6855" x="969.16" y="111.292">system.json</text></g><!--entity predictions.csv--><g class="entity" data-entity="predictions.csv" data-source-line="31" data-uid="ent0020" id="entity_predictions.csv"><rect fill="#F1F1F1" height="46.2969" rx="2.5" ry="2.5" style="stroke:#181818;stroke-width:0.5;" width="145.5674" x="626.22" y="485.1869"/><rect fill="#F1F1F1" height="10" style="stroke:#181818;stroke-width:0.5;" width="15" x="751.7874" y="490.1869"/><rect fill="#F1F1F1" height="2" style="stroke:#181818;stroke-width:0.5;" width="4" x="749.7874" y="492.1869"/><rect fill="#F1F1F1" height="2" style="stroke:#181818;stroke-width:0.5;" width="4" x="749.7874" y="496.1869"/><text fill="#000000" font-family="sans-serif" font-size="14" lengthAdjust="spacing" textLength="105.5674" x="641.22" y="518.182">predictions.csv</text></g><!--entity probabilities.csv--><g class="entity" data-entity="probabilities.csv" data-source-line="32" data-uid="ent0021" id="entity_probabilities.csv"><rect fill="#F1F1F1" height="46.2969" rx="2.5" ry="2.5" style="stroke:#181818;stroke-width:0.5;" width="154.2422" x="806.88" y="485.1869"/><rect fill="#F1F1F1" height="10" style="stroke:#181818;stroke-width:0.5;" width="15" x="941.1222" y="490.1869"/><rect fill="#F1F1F1" height="2" style="stroke:#181818;stroke-width:0.5;" width="4" x="939.1222" y="492.1869"/><rect fill="#F1F1F1" height="2" style="stroke:#181818;stroke-width:0.5;" width="4" x="939.1222" y="496.1869"/><text fill="#000000" font-family="sans-serif" font-size="14" lengthAdjust="spacing" textLength="114.2422" x="821.88" y="518.182">probabilities.csv</text></g><!--entity ranks.csv--><g class="entity" data-entity="ranks.csv" data-source-line="33" data-uid="ent0022" id="entity_ranks.csv"><rect fill="#F1F1F1" height="46.2969" rx="2.5" ry="2.5" style="stroke:#181818;stroke-width:0.5;" width="106.3359" x="995.83" y="485.1869"/><rect fill="#F1F1F1" height="10" style="stroke:#181818;stroke-width:0.5;" width="15" x="1082.1659" y="490.1869"/><rect fill="#F1F1F1" height="2" style="stroke:#181818;stroke-width:0.5;" width="4" x="1080.1659" y="492.1869"/><rect fill="#F1F1F1" height="2" style="stroke:#181818;stroke-width:0.5;" width="4" x="1080.1659" y="496.1869"/><text fill="#000000" font-family="sans-serif" font-size="14" lengthAdjust="spacing" textLength="66.3359" x="1010.83" y="518.182">ranks.csv</text></g><!--entity metadata.json--><g class="entity" data-entity="metadata.json" data-source-line="34" data-uid="ent0023" id="entity_metadata.json"><rect fill="#F1F1F1" height="46.2969" rx="2.5" ry="2.5" style="stroke:#181818;stroke-width:0.5;" width="140.9258" x="450.54" y="485.1869"/><rect fill="#F1F1F1" height="10" style="stroke:#181818;stroke-width:0.5;" width="15" x="571.4658" y="490.1869"/><rect fill="#F1F1F1" height="2" style="stroke:#181818;stroke-width:0.5;" width="4" x="569.4658" y="492.1869"/><rect fill="#F1F1F1" height="2" style="stroke:#181818;stroke-width:0.5;" width="4" x="569.4658" y="496.1869"/><text fill="#000000" font-family="sans-serif" font-size="14" lengthAdjust="spacing" textLength="100.9258" x="465.54" y="518.182">metadata.json</text></g><!--entity Dataset--><g class="entity" data-entity="Dataset" data-source-line="29" data-uid="ent0018" id="entity_Dataset"><path d="M810.04,235.0969 C810.04,225.0969 869.0024,225.0969 869.0024,225.0969 C869.0024,225.0969 927.9648,225.0969 927.9648,235.0969 L927.9648,260.3938 C927.9648,270.3938 869.0024,270.3938 869.0024,270.3938 C869.0024,270.3938 810.04,270.3938 810.04,260.3938 L810.04,235.0969" fill="#F1F1F1" style="stroke:#181818;stroke-width:0.5;"/><path d="M810.04,235.0969 C810.04,245.0969 869.0024,245.0969 869.0024,245.0969 C869.0024,245.0969 927.9648,245.0969 927.9648,235.0969" fill="none" style="stroke:#181818;stroke-width:0.5;"/><text fill="#000000" font-family="sans-serif" font-size="14" lengthAdjust="spacing" textLength="97.9248" x="820.04" y="262.092">Dataset (.csv)</text></g><!--link Coordinator to Fold Queue--><g class="link" data-entity-1="Coordinator" data-entity-2="Fold Queue" data-source-line="37" data-uid="lnk24" id="link_Coordinator_Fold Queue"><path d="M413.28,112.8669 C337.76,123.0169 239.56,142.8969 160,181.5969 C138.42,192.0969 122.0507,205.6329 107.4107,219.9429" fill="none" id="Coordinator-to-Fold Queue" style="stroke:#181818;stroke-width:1;"/><polygon fill="#181818" points="103.12,224.1369,112.3521,220.7063,106.6956,220.6419,106.7601,214.9854,103.12,224.1369" style="stroke:#181818;stroke-width:1;"/></g><!--link Coordinator to Task Assignment--><g class="link" data-entity-1="Coordinator" data-entity-2="Task Assignment" data-source-line="38" data-uid="lnk25" id="link_Coordinator_Task Assignment"><path d="M439.95,125.0569 C414.5,133.1669 387.45,143.5969 364,156.5969 C331.07,174.8469 303.0494,199.821 282.6994,220.011" fill="none" id="Coordinator-to-Task Assignment" style="stroke:#181818;stroke-width:1;"/><polygon fill="#181818" points="278.44,224.2369,287.6463,220.7376,281.9895,220.7153,282.0118,215.0585,278.44,224.2369" style="stroke:#181818;stroke-width:1;"/></g><!--link Fold Queue to fold_<i>.json--><g class="link" data-entity-1="Fold Queue" data-entity-2="fold_&lt;i&gt;.json" data-source-line="39" data-uid="lnk26" id="link_Fold Queue_fold_&lt;i&gt;.json"><path d="M91.48,271.2369 C112.1,320.1469 158.4697,430.1579 179.1297,479.1779" fill="none" id="Fold Queue-to-fold_&lt;i&gt;.json" style="stroke:#181818;stroke-width:1;"/><polygon fill="#181818" points="181.46,484.7069,181.6506,474.8599,179.5181,480.0994,174.2786,477.9669,181.46,484.7069" style="stroke:#181818;stroke-width:1;"/></g><!--link Coordinator to status.json--><g class="link" data-entity-1="Coordinator" data-entity-2="status.json" data-source-line="40" data-uid="lnk27" id="link_Coordinator_status.json"><path d="M471.69,125.0369 C456.94,133.0469 442.41,143.4369 432,156.5969 C350.96,258.9969 339.0264,419.1192 337.3664,478.9692" fill="none" id="Coordinator-to-status.json" style="stroke:#181818;stroke-width:1;"/><polygon fill="#181818" points="337.2,484.9669,341.448,476.0812,337.3386,479.9688,333.4511,475.8594,337.2,484.9669" style="stroke:#181818;stroke-width:1;"/></g><!--link Coordinator to Worker--><g class="link" data-entity-1="Coordinator" data-entity-2="Worker" data-source-line="41" data-uid="lnk28" id="link_Coordinator_Worker"><path d="M473.4,124.9669 C449.86,137.5169 431.18,154.4569 445,173.5969 C472.1,211.1069 513.2955,228.4763 557.0455,237.5663" fill="none" id="Coordinator-to-Worker" style="stroke:#181818;stroke-width:1;"/><polygon fill="#181818" points="562.92,238.7869,554.9219,233.0397,558.0245,237.7697,553.2945,240.8724,562.92,238.7869" style="stroke:#181818;stroke-width:1;"/><text fill="#000000" font-family="sans-serif" font-size="13" lengthAdjust="spacing" textLength="138.5693" x="446" y="169.6638">Send config + fold_id</text></g><!--link Worker to Coordinator--><g class="link" data-entity-1="Worker" data-entity-2="Coordinator" data-source-line="56" data-uid="lnk40" id="link_Worker_Coordinator"><path d="M647.95,224.3269 C632.73,205.7369 610.11,178.8469 589,156.5969 C578.86,145.8969 571.5145,138.6928 561.3345,129.1828" fill="none" id="Worker-to-Coordinator" style="stroke:#181818;stroke-width:1;"/><polygon fill="#181818" points="556.95,125.0869,560.7961,134.1537,560.6037,128.5001,566.2573,128.3078,556.95,125.0869" style="stroke:#181818;stroke-width:1;"/><text fill="#000000" font-family="sans-serif" font-size="13" lengthAdjust="spacing" textLength="139.7563" x="605" y="169.6638">ACK + fold result info</text></g><!--link Worker to DataLoader--><g class="link" data-entity-1="Worker" data-entity-2="DataLoader" data-source-line="43" data-uid="lnk29" id="link_Worker_DataLoader"><path d="M717.03,271.2769 C740.28,282.3469 767.74,296.5969 791,311.8969 C810.31,324.5969 825.8098,337.3547 840.7098,350.6947" fill="none" id="Worker-to-DataLoader" style="stroke:#181818;stroke-width:1;"/><polygon fill="#181818" points="845.18,354.6969,841.1428,345.7135,841.4548,351.3617,835.8066,351.6737,845.18,354.6969" style="stroke:#181818;stroke-width:1;"/></g><!--link Worker to ModelInitializer--><g class="link" data-entity-1="Worker" data-entity-2="ModelInitializer" data-source-line="44" data-uid="lnk30" id="link_Worker_ModelInitializer"><path d="M639.53,271.3869 C612.19,294.7669 574.3501,327.1375 547.0201,350.5075" fill="none" id="Worker-to-ModelInitializer" style="stroke:#181818;stroke-width:1;"/><polygon fill="#181818" points="542.46,354.4069,551.8998,351.5979,546.2601,351.1574,546.7006,345.5177,542.46,354.4069" style="stroke:#181818;stroke-width:1;"/></g><!--link Worker to ResultSerializer--><g class="link" data-entity-1="Worker" data-entity-2="ResultSerializer" data-source-line="45" data-uid="lnk31" id="link_Worker_ResultSerializer"><path d="M671.82,271.3869 C677.86,294.8369 685.7256,325.446 691.7356,348.816" fill="none" id="Worker-to-ResultSerializer" style="stroke:#181818;stroke-width:1;"/><polygon fill="#181818" points="693.23,354.6269,694.8624,344.9142,691.9847,349.7844,687.1145,346.9067,693.23,354.6269" style="stroke:#181818;stroke-width:1;"/></g><!--link Dataset to DataLoader--><g class="link" data-entity-1="Dataset" data-entity-2="DataLoader" data-source-line="46" data-uid="lnk32" id="link_Dataset_DataLoader"><path d="M869,270.7969 C869,294.1569 869,324.8369 869,348.4169" fill="none" id="Dataset-to-DataLoader" style="stroke:#181818;stroke-width:1;"/><polygon fill="#181818" points="869,354.4169,873,345.4169,869,349.4169,865,345.4169,869,354.4169" style="stroke:#181818;stroke-width:1;"/></g><!--link job.json to Worker--><g class="link" data-entity-1="job.json" data-entity-2="Worker" data-source-line="47" data-uid="lnk33" id="link_job.json_Worker"><path d="M839.81,124.9969 C801.23,152.0269 741.8547,193.6151 703.2147,220.6751" fill="none" id="job.json-to-Worker" style="stroke:#181818;stroke-width:1;"/><polygon fill="#181818" points="698.3,224.1169,707.9665,222.2306,702.3956,221.2487,703.3775,215.6777,698.3,224.1169" style="stroke:#181818;stroke-width:1;"/></g><!--link system.json to Worker--><g class="link" data-entity-1="system.json" data-entity-2="Worker" data-source-line="48" data-uid="lnk34" id="link_system.json_Worker"><path d="M982.54,125.0269 C968.89,133.4169 952.65,142.3969 937,148.5969 C875.95,172.7669 854.69,159.1069 793,181.5969 C761.8,192.9669 733.6966,207.3402 709.0066,221.2602" fill="none" id="system.json-to-Worker" style="stroke:#181818;stroke-width:1;"/><polygon fill="#181818" points="703.78,224.2069,713.5843,223.2712,708.1355,221.7513,709.6554,216.3025,703.78,224.2069" style="stroke:#181818;stroke-width:1;"/></g><!--link ResultSerializer to predictions.csv--><g class="link" data-entity-1="ResultSerializer" data-entity-2="predictions.csv" data-source-line="50" data-uid="lnk35" id="link_ResultSerializer_predictions.csv"><path d="M699,401.6869 C699,425.1369 699,455.5569 699,478.9269" fill="none" id="ResultSerializer-to-predictions.csv" style="stroke:#181818;stroke-width:1;"/><polygon fill="#181818" points="699,484.9269,703,475.9269,699,479.9269,695,475.9269,699,484.9269" style="stroke:#181818;stroke-width:1;"/></g><!--link ResultSerializer to probabilities.csv--><g class="link" data-entity-1="ResultSerializer" data-entity-2="probabilities.csv" data-source-line="51" data-uid="lnk36" id="link_ResultSerializer_probabilities.csv"><path d="M731.65,401.6869 C765.36,425.0669 812.7291,457.9184 846.4391,481.2884" fill="none" id="ResultSerializer-to-probabilities.csv" style="stroke:#181818;stroke-width:1;"/><polygon fill="#181818" points="851.37,484.7069,846.2526,476.2919,847.2609,481.8582,841.6946,482.8665,851.37,484.7069" style="stroke:#181818;stroke-width:1;"/></g><!--link ResultSerializer to ranks.csv--><g class="link" data-entity-1="ResultSerializer" data-entity-2="ranks.csv" data-source-line="52" data-uid="lnk37" id="link_ResultSerializer_ranks.csv"><path d="M735.75,401.4569 C752.09,410.3569 771.92,419.7569 791,425.1869 C871.69,448.1769 902.39,407.9969 979,442.1869 C1000.07,451.5969 1014.9809,465.4537 1027.7909,480.3037" fill="none" id="ResultSerializer-to-ranks.csv" style="stroke:#181818;stroke-width:1;"/><polygon fill="#181818" points="1031.71,484.8469,1028.8602,475.4193,1028.4441,481.0609,1022.8026,480.6448,1031.71,484.8469" style="stroke:#181818;stroke-width:1;"/></g><!--link ResultSerializer to metadata.json--><g class="link" data-entity-1="ResultSerializer" data-entity-2="metadata.json" data-source-line="53" data-uid="lnk38" id="link_ResultSerializer_metadata.json"><path d="M666.37,401.6469 C649.22,413.5969 627.89,428.5769 609,442.1869 C589.57,456.1969 572.7599,468.6101 555.8099,481.2501" fill="none" id="ResultSerializer-to-metadata.json" style="stroke:#181818;stroke-width:1;"/><polygon fill="#181818" points="551,484.8369,560.606,482.6632,555.0082,481.8479,555.8236,476.2501,551,484.8369" style="stroke:#181818;stroke-width:1;"/></g><!--link ResultSerializer to fold_<i>.json--><g class="link" data-entity-1="ResultSerializer" data-entity-2="fold_&lt;i&gt;.json" data-source-line="54" data-uid="lnk39" id="link_ResultSerializer_fold_&lt;i&gt;.json"><path d="M662.79,401.5869 C646.38,410.6369 626.36,420.1069 607,425.1869 C532.55,444.7569 331.93,412.2569 261,442.1869 C239.59,451.2269 224.5432,465.2929 211.7832,480.3229" fill="none" id="ResultSerializer-to-fold_&lt;i&gt;.json" style="stroke:#181818;stroke-width:1;"/><polygon fill="#181818" points="207.9,484.8969,216.774,480.6247,211.136,481.0852,210.6754,475.4472,207.9,484.8969" style="stroke:#181818;stroke-width:1;"/></g><!--SRC=[TL9TImCn47pFhrZwf4Zx0qG4gGgY8bhH1n79NRPbxLro91i_yR-RtCLUUbSVCpixsPrP9guGJicnfS8pAhZpMgE5ASnDtHYDck61y5s8HfPhkKAOd7rWwPcCXYkped82tmAWtB0djIGzQpvXRswCLQGb6mlNHk7-1AI33Fsdxz7ODUOj7I1-iY72T7MO871yXQwRuUbKihmoKg5zZiyeK5reOf8LVINm3fslU85s0-QozzAj-md3Zadvt5GARZrwR4LQsebpjD9rc7rROy6IlODx6m3IgwIm30elHtGyUtL6joAkvQLt48YCi7POJI_fh-tL55d7fsEi-muLzYsa2t_6pHqoxCrAzzQPbg2DRBl2ZUV6Sz9kB2eguvOkjZrtc2baGLKm3NlKIhtkNpMoZ5_tW-H9JwV7stwDYYFtSdf76RWrajZoRbXDztC82zGgN5Yq4mwWrIGbHAf7QdynEJeydBmsl1_nP_r0haykcqbiHPWNn52tstCKqN-qKMgxYLcGkmc3R7UJ1kdazkHP7CB9_38P3xPL0j9Bymi0]--></g></svg>