<svg xmlns="http://www.w3.org/2000/svg" xmlns:xlink="http://www.w3.org/1999/xlink" contentStyleType="text/css" data-diagram-type="DESCRIPTION" height="540px" preserveAspectRatio="none" style="width:2040px;height:540px;background:#FFFFFF;" version="1.1" viewBox="0 0 2040 540" width="2040px" zoomAndPan="magnify"><title>Pipeline Runner - Component View</title><defs/><g><g class="title" data-source-line="1"><text fill="#000000" font-family="sans-serif" font-size="14" font-weight="bold" lengthAdjust="spacing" textLength="274.3262" x="875.8369" y="22.9951">Pipeline Runner - Component View</text></g><!--cluster Configuration--><g class="cluster" data-entity="Configuration" data-source-line="5" data-uid="ent0003" id="cluster_Configuration"><path d="M8.5,145.7369 L117.665,145.7369 A3.75,3.75 0 0 1 120.165,148.2369 L127.165,168.0338 L537.5,168.0338 A2.5,2.5 0 0 1 540,170.5338 L540,240.5369 A2.5,2.5 0 0 1 537.5,243.0369 L8.5,243.0369 A2.5,2.5 0 0 1 6,240.5369 L6,148.2369 A2.5,2.5 0 0 1 8.5,145.7369" fill="none" style="stroke:#000000;stroke-width:1.5;"/><line style="stroke:#000000;stroke-width:1.5;" x1="6" x2="127.165" y1="168.0338" y2="168.0338"/><text fill="#000000" font-family="sans-serif" font-size="14" font-weight="bold" lengthAdjust="spacing" textLength="108.165" x="10" y="160.732">Configuration</text></g><!--cluster Execution Engines--><g class="cluster" data-entity="Execution Engines" data-source-line="11" data-uid="ent0007" id="cluster_Execution Engines"><path d="M566.5,137.5869 L711.9502,137.5869 A3.75,3.75 0 0 1 714.4502,140.0869 L721.4502,159.8838 L941.5,159.8838 A2.5,2.5 0 0 1 944,162.3838 L944,401.1269 A2.5,2.5 0 0 1 941.5,403.6269 L566.5,403.6269 A2.5,2.5 0 0 1 564,401.1269 L564,140.0869 A2.5,2.5 0 0 1 566.5,137.5869" fill="none" style="stroke:#000000;stroke-width:1.5;"/><line style="stroke:#000000;stroke-width:1.5;" x1="564" x2="721.4502" y1="159.8838" y2="159.8838"/><text fill="#000000" font-family="sans-serif" font-size="14" font-weight="bold" lengthAdjust="spacing" textLength="144.4502" x="568" y="152.582">Execution Engines</text></g><!--cluster Evaluation Phase--><g class="cluster" data-entity="Evaluation Phase" data-source-line="17" data-uid="ent0011" id="cluster_Evaluation Phase"><path d="M1020.5,145.7369 L1157.3027,145.7369 A3.75,3.75 0 0 1 1159.8027,148.2369 L1166.8027,168.0338 L1223.5,168.0338 A2.5,2.5 0 0 1 1226,170.5338 L1226,240.5369 A2.5,2.5 0 0 1 1223.5,243.0369 L1020.5,243.0369 A2.5,2.5 0 0 1 1018,240.5369 L1018,148.2369 A2.5,2.5 0 0 1 1020.5,145.7369" fill="none" style="stroke:#000000;stroke-width:1.5;"/><line style="stroke:#000000;stroke-width:1.5;" x1="1018" x2="1166.8027" y1="168.0338" y2="168.0338"/><text fill="#000000" font-family="sans-serif" font-size="14" font-weight="bold" lengthAdjust="spacing" textLength="135.8027" x="1022" y="160.732">Evaluation Phase</text></g><!--cluster Visualization Phase--><g class="cluster" data-entity="Visualization Phase" data-source-line="21" data-uid="ent0013" id="cluster_Visualization Phase"><path d="M1252.5,145.7369 L1407.5273,145.7369 A3.75,3.75 0 0 1 1410.0273,148.2369 L1417.0273,168.0338 L1459.5,168.0338 A2.5,2.5 0 0 1 1462,170.5338 L1462,240.5369 A2.5,2.5 0 0 1 1459.5,243.0369 L1252.5,243.0369 A2.5,2.5 0 0 1 1250,240.5369 L1250,148.2369 A2.5,2.5 0 0 1 1252.5,145.7369" fill="none" style="stroke:#000000;stroke-width:1.5;"/><line style="stroke:#000000;stroke-width:1.5;" x1="1250" x2="1417.0273" y1="168.0338" y2="168.0338"/><text fill="#000000" font-family="sans-serif" font-size="14" font-weight="bold" lengthAdjust="spacing" textLength="154.0273" x="1254" y="160.732">Visualization Phase</text></g><!--cluster Tracking--><g class="cluster" data-entity="Tracking" data-source-line="25" data-uid="ent0015" id="cluster_Tracking"><path d="M1488.5,145.7369 L1557.7979,145.7369 A3.75,3.75 0 0 1 1560.2979,148.2369 L1567.2979,168.0338 L2030.5,168.0338 A2.5,2.5 0 0 1 2033,170.5338 L2033,240.5369 A2.5,2.5 0 0 1 2030.5,243.0369 L1488.5,243.0369 A2.5,2.5 0 0 1 1486,240.5369 L1486,148.2369 A2.5,2.5 0 0 1 1488.5,145.7369" fill="none" style="stroke:#000000;stroke-width:1.5;"/><line style="stroke:#000000;stroke-width:1.5;" x1="1486" x2="1567.2979" y1="168.0338" y2="168.0338"/><text fill="#000000" font-family="sans-serif" font-size="14" font-weight="bold" lengthAdjust="spacing" textLength="68.2979" x="1490" y="160.732">Tracking</text></g><!--cluster Fold Output--><g class="cluster" data-entity="Fold Output" data-source-line="30" data-uid="ent0018" id="cluster_Fold Output"><path d="M555.5,436.6269 L650.6172,436.6269 A3.75,3.75 0 0 1 653.1172,439.1269 L660.1172,458.9238 L794.5,458.9238 A2.5,2.5 0 0 1 797,461.4238 L797,531.4269 A2.5,2.5 0 0 1 794.5,533.9269 L555.5,533.9269 A2.5,2.5 0 0 1 553,531.4269 L553,439.1269 A2.5,2.5 0 0 1 555.5,436.6269" fill="none" style="stroke:#000000;stroke-width:1.5;"/><line style="stroke:#000000;stroke-width:1.5;" x1="553" x2="660.1172" y1="458.9238" y2="458.9238"/><text fill="#000000" font-family="sans-serif" font-size="14" font-weight="bold" lengthAdjust="spacing" textLength="94.1172" x="557" y="451.622">Fold Output</text></g><!--cluster Evaluation Output--><g class="cluster" data-entity="Evaluation Output" data-source-line="34" data-uid="ent0020" id="cluster_Evaluation Output"><path d="M1115.5,298.1869 L1260.041,298.1869 A3.75,3.75 0 0 1 1262.541,300.6869 L1269.541,320.4838 L1611.5,320.4838 A2.5,2.5 0 0 1 1614,322.9838 L1614,392.9769 A2.5,2.5 0 0 1 1611.5,395.4769 L1115.5,395.4769 A2.5,2.5 0 0 1 1113,392.9769 L1113,300.6869 A2.5,2.5 0 0 1 1115.5,298.1869" fill="none" style="stroke:#000000;stroke-width:1.5;"/><line style="stroke:#000000;stroke-width:1.5;" x1="1113" x2="1269.541" y1="320.4838" y2="320.4838"/><text fill="#000000" font-family="sans-serif" font-size="14" font-weight="bold" lengthAdjust="spacing" textLength="143.541" x="1117" y="313.182">Evaluation Output</text></g><!--entity experiment_pipeline.yml--><g class="entity" data-entity="experiment_pipeline.yml" data-source-line="6" data-uid="ent0004" id="entity_experiment_pipeline.yml"><rect fill="#F1F1F1" height="46.2969" rx="2.5" ry="2.5" style="stroke:#181818;stroke-width:0.5;" width="213.4619" x="22.27" y="180.7369"/><rect fill="#F1F1F1" height="10" style="stroke:#181818;stroke-width:0.5;" width="15" x="215.7319" y="185.7369"/><rect fill="#F1F1F1" height="2" style="stroke:#181818;stroke-width:0.5;" width="4" x="213.7319" y="187.7369"/><rect fill="#F1F1F1" height="2" style="stroke:#181818;stroke-width:0.5;" width="4" x="213.7319" y="191.7369"/><text fill="#000000" font-family="sans-serif" font-size="14" lengthAdjust="spacing" textLength="173.4619" x="37.27" y="213.732">experiment_pipeline.yml</text></g><!--entity job.json--><g class="entity" data-entity="job.json" data-source-line="7" data-uid="ent0005" id="entity_job.json"><rect fill="#F1F1F1" height="46.2969" rx="2.5" ry="2.5" style="stroke:#181818;stroke-width:0.5;" width="94.4141" x="270.79" y="180.7369"/><rect fill="#F1F1F1" height="10" style="stroke:#181818;stroke-width:0.5;" width="15" x="345.2041" y="185.7369"/><rect fill="#F1F1F1" height="2" style="stroke:#181818;stroke-width:0.5;" width="4" x="343.2041" y="187.7369"/><rect fill="#F1F1F1" height="2" style="stroke:#181818;stroke-width:0.5;" width="4" x="343.2041" y="191.7369"/><text fill="#000000" font-family="sans-serif" font-size="14" lengthAdjust="spacing" textLength="54.4141" x="285.79" y="213.732">job.json</text></g><!--entity system.json--><g class="entity" data-entity="system.json" data-source-line="8" data-uid="ent0006" id="entity_system.json"><rect fill="#F1F1F1" height="46.2969" rx="2.5" ry="2.5" style="stroke:#181818;stroke-width:0.5;" width="123.6855" x="400.16" y="180.7369"/><rect fill="#F1F1F1" height="10" style="stroke:#181818;stroke-width:0.5;" width="15" x="503.8455" y="185.7369"/><rect fill="#F1F1F1" height="2" style="stroke:#181818;stroke-width:0.5;" width="4" x="501.8455" y="187.7369"/><rect fill="#F1F1F1" height="2" style="stroke:#181818;stroke-width:0.5;" width="4" x="501.8455" y="191.7369"/><text fill="#000000" font-family="sans-serif" font-size="14" lengthAdjust="spacing" textLength="83.6855" x="415.16" y="213.732">system.json</text></g><!--entity main_monolithic.py--><g class="entity" data-entity="main_monolithic.py" data-source-line="12" data-uid="ent0008" id="entity_main_monolithic.py"><rect fill="#F1F1F1" height="46.2969" rx="2.5" ry="2.5" style="stroke:#181818;stroke-width:0.5;" width="176.9717" x="579.51" y="180.7369"/><rect fill="#F1F1F1" height="10" style="stroke:#181818;stroke-width:0.5;" width="15" x="736.4817" y="185.7369"/><rect fill="#F1F1F1" height="2" style="stroke:#181818;stroke-width:0.5;" width="4" x="734.4817" y="187.7369"/><rect fill="#F1F1F1" height="2" style="stroke:#181818;stroke-width:0.5;" width="4" x="734.4817" y="191.7369"/><text fill="#000000" font-family="sans-serif" font-size="14" lengthAdjust="spacing" textLength="136.9717" x="594.51" y="213.732">main_monolithic.py</text></g><!--entity Coordinator--><g class="entity" data-entity="Coordinator" data-source-line="13" data-uid="ent0009" id="entity_Coordinator"><rect fill="#F1F1F1" height="62.5938" rx="2.5" ry="2.5" style="stroke:#181818;stroke-width:0.5;" width="169.2813" x="728.36" y="325.0369"/><rect fill="#F1F1F1" height="10" style="stroke:#181818;stroke-width:0.5;" width="15" x="877.6413" y="330.0369"/><rect fill="#F1F1F1" height="2" style="stroke:#181818;stroke-width:0.5;" width="4" x="875.6413" y="332.0369"/><rect fill="#F1F1F1" height="2" style="stroke:#181818;stroke-width:0.5;" width="4" x="875.6413" y="336.0369"/><text fill="#000000" font-family="sans-serif" font-size="14" lengthAdjust="spacing" textLength="56.6016" x="743.36" y="358.032">main.py</text><text fill="#000000" font-family="sans-serif" font-size="14" lengthAdjust="spacing" textLength="129.2813" x="743.36" y="374.3289">--role=coordinator</text></g><!--entity Worker--><g class="entity" data-entity="Worker" data-source-line="14" data-uid="ent0010" id="entity_Worker"><rect fill="#F1F1F1" height="62.5938" rx="2.5" ry="2.5" style="stroke:#181818;stroke-width:0.5;" width="136.9063" x="791.55" y="172.5869"/><rect fill="#F1F1F1" height="10" style="stroke:#181818;stroke-width:0.5;" width="15" x="908.4563" y="177.5869"/><rect fill="#F1F1F1" height="2" style="stroke:#181818;stroke-width:0.5;" width="4" x="906.4563" y="179.5869"/><rect fill="#F1F1F1" height="2" style="stroke:#181818;stroke-width:0.5;" width="4" x="906.4563" y="183.5869"/><text fill="#000000" font-family="sans-serif" font-size="14" lengthAdjust="spacing" textLength="56.6016" x="806.55" y="205.582">main.py</text><text fill="#000000" font-family="sans-serif" font-size="14" lengthAdjust="spacing" textLength="96.9063" x="806.55" y="221.8789">--role=worker</text></g><!--entity evaluate_results.py--><g class="entity" data-entity="evaluate_results.py" data-source-line="18" data-uid="ent0012" id="entity_evaluate_results.py"><rect fill="#F1F1F1" height="46.2969" rx="2.5" ry="2.5" style="stroke:#181818;stroke-width:0.5;" width="176.7529" x="1033.62" y="180.7369"/><rect fill="#F1F1F1" height="10" style="stroke:#181818;stroke-width:0.5;" width="15" x="1190.3729" y="185.7369"/><rect fill="#F1F1F1" height="2" style="stroke:#181818;stroke-width:0.5;" width="4" x="1188.3729" y="187.7369"/><rect fill="#F1F1F1" height="2" style="stroke:#181818;stroke-width:0.5;" width="4" x="1188.3729" y="191.7369"/><text fill="#000000" font-family="sans-serif" font-size="14" lengthAdjust="spacing" textLength="136.7529" x="1048.62" y="213.732">evaluate_results.py</text></g><!--entity generate_visuals.py--><g class="entity" data-entity="generate_visuals.py" data-source-line="22" data-uid="ent0014" id="entity_generate_visuals.py"><rect fill="#F1F1F1" height="46.2969" rx="2.5" ry="2.5" style="stroke:#181818;stroke-width:0.5;" width="180.1504" x="1265.92" y="180.7369"/><rect fill="#F1F1F1" height="10" style="stroke:#181818;stroke-width:0.5;" width="15" x="1426.0704" y="185.7369"/><rect fill="#F1F1F1" height="2" style="stroke:#181818;stroke-width:0.5;" width="4" x="1424.0704" y="187.7369"/><rect fill="#F1F1F1" height="2" style="stroke:#181818;stroke-width:0.5;" width="4" x="1424.0704" y="191.7369"/><text fill="#000000" font-family="sans-serif" font-size="14" lengthAdjust="spacing" textLength="140.1504" x="1280.92" y="213.732">generate_visuals.py</text></g><!--entity status/<dataset>/status.json--><g class="entity" data-entity="status/&lt;dataset&gt;/status.json" data-source-line="26" data-uid="ent0016" id="entity_status/&lt;dataset&gt;/status.json"><rect fill="#F1F1F1" height="46.2969" rx="2.5" ry="2.5" style="stroke:#181818;stroke-width:0.5;" width="244.9346" x="1501.53" y="180.7369"/><rect fill="#F1F1F1" height="10" style="stroke:#181818;stroke-width:0.5;" width="15" x="1726.4646" y="185.7369"/><rect fill="#F1F1F1" height="2" style="stroke:#181818;stroke-width:0.5;" width="4" x="1724.4646" y="187.7369"/><rect fill="#F1F1F1" height="2" style="stroke:#181818;stroke-width:0.5;" width="4" x="1724.4646" y="191.7369"/><text fill="#000000" font-family="sans-serif" font-size="14" lengthAdjust="spacing" textLength="204.9346" x="1516.53" y="213.732">status/&lt;dataset&gt;/status.json</text></g><!--entity status/<dataset>/fold_<i>.json--><g class="entity" data-entity="status/&lt;dataset&gt;/fold_&lt;i&gt;.json" data-source-line="27" data-uid="ent0017" id="entity_status/&lt;dataset&gt;/fold_&lt;i&gt;.json"><rect fill="#F1F1F1" height="46.2969" rx="2.5" ry="2.5" style="stroke:#181818;stroke-width:0.5;" width="235.1865" x="1781.41" y="180.7369"/><rect fill="#F1F1F1" height="10" style="stroke:#181818;stroke-width:0.5;" width="15" x="1996.5965" y="185.7369"/><rect fill="#F1F1F1" height="2" style="stroke:#181818;stroke-width:0.5;" width="4" x="1994.5965" y="187.7369"/><rect fill="#F1F1F1" height="2" style="stroke:#181818;stroke-width:0.5;" width="4" x="1994.5965" y="191.7369"/><text fill="#000000" font-family="sans-serif" font-size="14" lengthAdjust="spacing" textLength="162.1143" x="1796.41" y="213.732">status/&lt;dataset&gt;/fold_</text><text fill="#000000" font-family="sans-serif" font-size="14" font-style="italic" lengthAdjust="spacing" textLength="33.0723" x="1958.5243" y="213.732">.json</text></g><!--entity results/<dataset>/fold_<i>/--><g class="entity" data-entity="results/&lt;dataset&gt;/fold_&lt;i&gt;/" data-source-line="31" data-uid="ent0019" id="entity_results/&lt;dataset&gt;/fold_&lt;i&gt;/"><rect fill="#F1F1F1" height="46.2969" rx="2.5" ry="2.5" style="stroke:#181818;stroke-width:0.5;" width="211.0215" x="569.49" y="471.6269"/><rect fill="#F1F1F1" height="10" style="stroke:#181818;stroke-width:0.5;" width="15" x="760.5115" y="476.6269"/><rect fill="#F1F1F1" height="2" style="stroke:#181818;stroke-width:0.5;" width="4" x="758.5115" y="478.6269"/><rect fill="#F1F1F1" height="2" style="stroke:#181818;stroke-width:0.5;" width="4" x="758.5115" y="482.6269"/><text fill="#000000" font-family="sans-serif" font-size="14" lengthAdjust="spacing" textLength="166.3047" x="584.49" y="504.622">results/&lt;dataset&gt;/fold_</text><text fill="#000000" font-family="sans-serif" font-size="14" font-style="italic" lengthAdjust="spacing" textLength="4.7168" x="750.7947" y="504.622">/</text></g><!--entity evaluation_summary.json--><g class="entity" data-entity="evaluation_summary.json" data-source-line="35" data-uid="ent0021" id="entity_evaluation_summary.json"><rect fill="#F1F1F1" height="46.2969" rx="2.5" ry="2.5" style="stroke:#181818;stroke-width:0.5;" width="219.7715" x="1129.11" y="333.1869"/><rect fill="#F1F1F1" height="10" style="stroke:#181818;stroke-width:0.5;" width="15" x="1328.8815" y="338.1869"/><rect fill="#F1F1F1" height="2" style="stroke:#181818;stroke-width:0.5;" width="4" x="1326.8815" y="340.1869"/><rect fill="#F1F1F1" height="2" style="stroke:#181818;stroke-width:0.5;" width="4" x="1326.8815" y="344.1869"/><text fill="#000000" font-family="sans-serif" font-size="14" lengthAdjust="spacing" textLength="179.7715" x="1144.11" y="366.182">evaluation_summary.json</text></g><!--entity evaluation_summary.csv--><g class="entity" data-entity="evaluation_summary.csv" data-source-line="36" data-uid="ent0022" id="entity_evaluation_summary.csv"><rect fill="#F1F1F1" height="46.2969" rx="2.5" ry="2.5" style="stroke:#181818;stroke-width:0.5;" width="214.4258" x="1383.79" y="333.1869"/><rect fill="#F1F1F1" height="10" style="stroke:#181818;stroke-width:0.5;" width="15" x="1578.2158" y="338.1869"/><rect fill="#F1F1F1" height="2" style="stroke:#181818;stroke-width:0.5;" width="4" x="1576.2158" y="340.1869"/><rect fill="#F1F1F1" height="2" style="stroke:#181818;stroke-width:0.5;" width="4" x="1576.2158" y="344.1869"/><text fill="#000000" font-family="sans-serif" font-size="14" lengthAdjust="spacing" textLength="174.4258" x="1398.79" y="366.182">evaluation_summary.csv</text></g><!--entity Runner--><g class="entity" data-entity="Runner" data-source-line="3" data-uid="ent0002" id="entity_Runner"><rect fill="#F1F1F1" height="46.2969" rx="2.5" ry="2.5" style="stroke:#181818;stroke-width:0.5;" width="147.666" x="828.17" y="44.2969"/><rect fill="#F1F1F1" height="10" style="stroke:#181818;stroke-width:0.5;" width="15" x="955.836" y="49.2969"/><rect fill="#F1F1F1" height="2" style="stroke:#181818;stroke-width:0.5;" width="4" x="953.836" y="51.2969"/><rect fill="#F1F1F1" height="2" style="stroke:#181818;stroke-width:0.5;" width="4" x="953.836" y="55.2969"/><text fill="#000000" font-family="sans-serif" font-size="14" lengthAdjust="spacing" textLength="107.666" x="843.17" y="77.292">run_pipeline.py</text></g><!--link Runner to experiment_pipeline.yml--><g class="link" data-entity-1="Runner" data-entity-2="experiment_pipeline.yml" data-source-line="39" data-uid="lnk23" id="link_Runner_experiment_pipeline.yml"><path d="M827.74,71.3669 C680.81,77.8069 358.15,95.4569 253,129.5869 C218.04,140.9369 187.2316,159.9523 163.1716,177.0423" fill="none" id="Runner-to-experiment_pipeline.yml" style="stroke:#181818;stroke-width:1;"/><polygon fill="#181818" points="158.28,180.5169,167.9337,178.5661,162.3563,177.6214,163.301,172.044,158.28,180.5169" style="stroke:#181818;stroke-width:1;"/></g><!--link Runner to status/<dataset>/status.json--><g class="link" data-entity-1="Runner" data-entity-2="status/&lt;dataset&gt;/status.json" data-source-line="40" data-uid="lnk24" id="link_Runner_status/&lt;dataset&gt;/status.json"><path d="M976.32,69.1469 C1084.9,71.8269 1292.43,83.2369 1462,129.5869 C1505.33,141.4369 1546.42,160.7033 1578.41,177.5333" fill="none" id="Runner-to-status/&lt;dataset&gt;/status.json" style="stroke:#181818;stroke-width:1;"/><polygon fill="#181818" points="1583.72,180.3269,1577.6174,172.5965,1579.295,177.9989,1573.8926,179.6765,1583.72,180.3269" style="stroke:#181818;stroke-width:1;"/></g><!--link Runner to main_monolithic.py--><g class="link" data-entity-1="Runner" data-entity-2="main_monolithic.py" data-source-line="41" data-uid="lnk25" id="link_Runner_main_monolithic.py"><path d="M849.96,91.0169 C826.33,101.8469 798.29,115.5069 774,129.5869 C747.29,145.0769 723.4102,161.6211 702.6202,176.8511" fill="none" id="Runner-to-main_monolithic.py" style="stroke:#181818;stroke-width:1;"/><polygon fill="#181818" points="697.78,180.3969,707.4041,178.305,701.8135,177.4421,702.6765,171.8514,697.78,180.3969" style="stroke:#181818;stroke-width:1;"/></g><!--link Runner to Coordinator--><g class="link" data-entity-1="Runner" data-entity-2="Coordinator" data-source-line="42" data-uid="lnk26" id="link_Runner_Coordinator"><path d="M922.52,90.8469 C931.29,101.7469 940.71,115.5169 946,129.5869 C969.96,193.2969 994.76,224.2669 959,282.1869 C945.07,304.7369 927.2879,318.0628 903.4079,329.0828" fill="none" id="Runner-to-Coordinator" style="stroke:#181818;stroke-width:1;"/><polygon fill="#181818" points="897.96,331.5969,907.8079,331.4577,902.4999,329.5018,904.4558,324.1939,897.96,331.5969" style="stroke:#181818;stroke-width:1;"/></g><!--link Runner to evaluate_results.py--><g class="link" data-entity-1="Runner" data-entity-2="evaluate_results.py" data-source-line="43" data-uid="lnk27" id="link_Runner_evaluate_results.py"><path d="M951.49,90.9969 C969.32,99.6569 989.38,110.0069 1007,120.5869 C1037.72,139.0569 1066.0393,159.5881 1088.7993,176.9481" fill="none" id="Runner-to-evaluate_results.py" style="stroke:#181818;stroke-width:1;"/><polygon fill="#181818" points="1093.57,180.5869,1088.8399,171.9483,1089.5944,177.5546,1083.9881,178.3091,1093.57,180.5869" style="stroke:#181818;stroke-width:1;"/></g><!--link Runner to generate_visuals.py--><g class="link" data-entity-1="Runner" data-entity-2="generate_visuals.py" data-source-line="44" data-uid="lnk28" id="link_Runner_generate_visuals.py"><path d="M976.21,75.4769 C1043.09,83.4269 1143.32,99.4169 1226,129.5869 C1260.93,142.3369 1292.4989,160.5731 1317.9389,176.9931" fill="none" id="Runner-to-generate_visuals.py" style="stroke:#181818;stroke-width:1;"/><polygon fill="#181818" points="1322.98,180.2469,1317.5875,172.0055,1318.7791,177.5354,1313.2491,178.727,1322.98,180.2469" style="stroke:#181818;stroke-width:1;"/></g><!--link main_monolithic.py to results/<dataset>/fold_<i>/--><g class="link" data-entity-1="main_monolithic.py" data-entity-2="results/&lt;dataset&gt;/fold_&lt;i&gt;/" data-source-line="46" data-uid="lnk29" id="link_main_monolithic.py_results/&lt;dataset&gt;/fold_&lt;i&gt;/"><path d="M659.11,227.4069 C655.16,238.5769 650.97,252.3869 649,265.1869 C638.5,333.4669 637.26,352.5469 649,420.6269 C652.02,438.1669 656.5365,451.5267 662.4365,465.7167" fill="none" id="main_monolithic.py-to-results/&lt;dataset&gt;/fold_&lt;i&gt;/" style="stroke:#181818;stroke-width:1;"/><polygon fill="#181818" points="664.74,471.2569,664.9782,461.4109,662.8204,466.64,657.5912,464.4823,664.74,471.2569" style="stroke:#181818;stroke-width:1;"/></g><!--link Coordinator to results/<dataset>/fold_<i>/--><g class="link" data-entity-1="Coordinator" data-entity-2="results/&lt;dataset&gt;/fold_&lt;i&gt;/" data-source-line="47" data-uid="lnk30" id="link_Coordinator_results/&lt;dataset&gt;/fold_&lt;i&gt;/"><path d="M782.03,387.9569 C756.44,413.2569 724.9767,444.3684 701.9767,467.1084" fill="none" id="Coordinator-to-results/&lt;dataset&gt;/fold_&lt;i&gt;/" style="stroke:#181818;stroke-width:1;"/><polygon fill="#181818" points="697.71,471.3269,706.9223,467.8436,701.2656,467.8115,701.2977,462.1547,697.71,471.3269" style="stroke:#181818;stroke-width:1;"/></g><!--link Worker to Coordinator--><g class="link" data-entity-1="Worker" data-entity-2="Coordinator" data-source-line="48" data-uid="lnk31" id="link_Worker_Coordinator"><path d="M798.33,235.5569 C780.68,245.6669 764.88,256.5369 760,265.1869 C748.75,285.1069 757.3756,302.8157 773.1456,320.1757" fill="none" id="Worker-to-Coordinator" style="stroke:#181818;stroke-width:1;"/><polygon fill="#181818" points="777.18,324.6169,774.0892,315.2656,773.818,320.9159,768.1677,320.6447,777.18,324.6169" style="stroke:#181818;stroke-width:1;"/><text fill="#000000" font-family="sans-serif" font-size="13" lengthAdjust="spacing" textLength="193.9082" x="761" y="278.2538">Requests task + runs training</text></g><!--link Worker to results/<dataset>/fold_<i>/--><g class="link" data-entity-1="Worker" data-entity-2="results/&lt;dataset&gt;/fold_&lt;i&gt;/" data-source-line="49" data-uid="lnk32" id="link_Worker_results/&lt;dataset&gt;/fold_&lt;i&gt;/"><path d="M803.14,235.4969 C793.43,240.6969 783.43,246.0369 774,251.0369 C762.03,257.3869 758.59,258.1669 747,265.1869 C730.34,275.2769 721.5,273.7769 711,290.1869 C674.33,347.4769 672.012,425.5105 673.392,465.3005" fill="none" id="Worker-to-results/&lt;dataset&gt;/fold_&lt;i&gt;/" style="stroke:#181818;stroke-width:1;"/><polygon fill="#181818" points="673.6,471.2969,677.2856,462.1636,673.4267,466.2999,669.2905,462.4409,673.6,471.2969" style="stroke:#181818;stroke-width:1;"/></g><!--link evaluate_results.py to evaluation_summary.json--><g class="link" data-entity-1="evaluate_results.py" data-entity-2="evaluation_summary.json" data-source-line="51" data-uid="lnk33" id="link_evaluate_results.py_evaluation_summary.json"><path d="M1139.52,227.4069 C1161.7,255.9369 1196.0061,300.0509 1218.0661,328.4109" fill="none" id="evaluate_results.py-to-evaluation_summary.json" style="stroke:#181818;stroke-width:1;"/><polygon fill="#181818" points="1221.75,333.1469,1219.3815,323.5871,1218.6801,329.2003,1213.0669,328.4989,1221.75,333.1469" style="stroke:#181818;stroke-width:1;"/></g><!--link generate_visuals.py to evaluation_summary.json--><g class="link" data-entity-1="generate_visuals.py" data-entity-2="evaluation_summary.json" data-source-line="52" data-uid="lnk34" id="link_generate_visuals.py_evaluation_summary.json"><path d="M1338.48,227.4069 C1316.3,255.9369 1281.9939,300.0509 1259.9339,328.4109" fill="none" id="generate_visuals.py-to-evaluation_summary.json" style="stroke:#181818;stroke-width:1;"/><polygon fill="#181818" points="1256.25,333.1469,1264.9331,328.4989,1259.3199,329.2003,1258.6185,323.5871,1256.25,333.1469" style="stroke:#181818;stroke-width:1;"/></g><!--link Runner to job.json--><g class="link" data-entity-1="Runner" data-entity-2="job.json" data-source-line="54" data-uid="lnk35" id="link_Runner_job.json"><path d="M828.09,70.7169 C703.71,75.5969 458.7,90.0569 383,129.5869 C360.99,141.0869 346.2925,158.3309 334.8525,175.3109" fill="none" id="Runner-to-job.json" style="stroke:#181818;stroke-width:1;"/><polygon fill="#181818" points="331.5,180.2869,339.8461,175.0579,334.2938,176.1402,333.2114,170.5879,331.5,180.2869" style="stroke:#181818;stroke-width:1;"/></g><!--link Runner to system.json--><g class="link" data-entity-1="Runner" data-entity-2="system.json" data-source-line="55" data-uid="lnk36" id="link_Runner_system.json"><path d="M827.79,72.4369 C757.45,78.3669 650.06,93.0969 564,129.5869 C534.89,141.9369 510.5979,159.9166 491.0479,176.5666" fill="none" id="Runner-to-system.json" style="stroke:#181818;stroke-width:1;"/><polygon fill="#181818" points="486.48,180.4569,495.9254,177.6667,490.2866,177.215,490.7383,171.5762,486.48,180.4569" style="stroke:#181818;stroke-width:1;"/></g><!--SRC=[ZLJBRi8m4BpdArQvLe5xHRaWUYr25JsqA7B3DXZyIFq0qgh_NkS1SS1AUyhkUcOpdjt4KCCG5hH0HWN2qWg12XAOILv8WSB0Yk8nYh9B7Yihqg8bZ8eo1g9RNXGL9DkJ726UIV51Swk8eLB4y1q1lEAfG4MvQzBnIyxMrTbElezsMeewqQKsoDlyn-iwFs5cguum5xcZwxOp9rIaN0h9gDdIpAbQdyikVXD9eYJ3XqnAjQ626AdMbUfPbuVWHwdss21Vwh2lvK2OhQy7YotHUBvaKyPKeRRCw5gBprjHRGcZNxVK79s75VLGGswfpyf5LEGjNXjYh1vFDiIu9cOwRWgUZzU03yaswOHEEskhYXju_EYUy6HDOKtRlTKVO8zxJC-77XylzLHRpeagEs61iqmVwhRd3Koc0mlZWuPTy96XBV7E_MtegGXDr0S4vnQ5NjVW1vtrLFm3tUpbjNouXoL-MjH6W-FiuGxSH-jYvIIv_V5fm_sZuErxljmEE6Z87voUeTtFe3Texw_m2m00]--></g></svg>