<svg xmlns="http://www.w3.org/2000/svg" xmlns:xlink="http://www.w3.org/1999/xlink" contentStyleType="text/css" data-diagram-type="SEQUENCE" height="834px" preserveAspectRatio="none" style="width:1426px;height:834px;background:#FFFFFF;" version="1.1" viewBox="0 0 1426 834" width="1426px" zoomAndPan="magnify"><title>Monolithic Execution - K-Fold Workflow &lt;&lt;Data Parallelism&gt;&gt;</title><defs/><g><text fill="#000000" font-family="sans-serif" font-size="14" font-weight="bold" lengthAdjust="spacing" textLength="463.3193" x="480.4766" y="27.9951">Monolithic Execution - K-Fold Workflow &#171;Data Parallelism&#187;</text><rect fill="none" height="46.2656" style="stroke:#000000;stroke-width:1.5;" width="408.5933" x="112.9873" y="193.8594"/><rect fill="none" height="295" style="stroke:#000000;stroke-width:1.5;" width="794.7603" x="330.6089" y="325.3906"/><rect fill="none" height="263.8672" style="stroke:#000000;stroke-width:1.5;" width="774.7603" x="340.6089" y="349.5234"/><rect fill="none" height="203.6016" style="stroke:#000000;stroke-width:1.5;" width="754.7603" x="350.6089" y="402.7891"/><g><title>User</title><rect fill="#000000" fill-opacity="0.00000" height="635.3281" width="8" x="19.9551" y="118.5938"/><line style="stroke:#181818;stroke-width:0.5;stroke-dasharray:5.0,5.0;" x1="23" x2="23" y1="118.5938" y2="753.9219"/></g><g><title>run_pipeline.py</title><rect fill="#000000" fill-opacity="0.00000" height="635.3281" width="8" x="179.8203" y="118.5938"/><line style="stroke:#181818;stroke-width:0.5;stroke-dasharray:5.0,5.0;" x1="182.9873" x2="182.9873" y1="118.5938" y2="753.9219"/></g><g><title>main_monolithic.py</title><rect fill="#000000" fill-opacity="0.00000" height="635.3281" width="8" x="432.0947" y="118.5938"/><line style="stroke:#181818;stroke-width:0.5;stroke-dasharray:5.0,5.0;" x1="435.6089" x2="435.6089" y1="118.5938" y2="753.9219"/></g><g><title>DataLoader</title><rect fill="#000000" fill-opacity="0.00000" height="635.3281" width="8" x="645.3501" y="118.5938"/><line style="stroke:#181818;stroke-width:0.5;stroke-dasharray:5.0,5.0;" x1="648.5361" x2="648.5361" y1="118.5938" y2="753.9219"/></g><g><title>ModelInitializer</title><rect fill="#000000" fill-opacity="0.00000" height="635.3281" width="8" x="763.3545" y="118.5938"/><line style="stroke:#181818;stroke-width:0.5;stroke-dasharray:5.0,5.0;" x1="767.1641" x2="767.1641" y1="118.5938" y2="753.9219"/></g><g><title>ResultSerializer</title><rect fill="#000000" fill-opacity="0.00000" height="635.3281" width="8" x="895.0991" y="118.5938"/><line style="stroke:#181818;stroke-width:0.5;stroke-dasharray:5.0,5.0;" x1="898.5449" x2="898.5449" y1="118.5938" y2="753.9219"/></g><g><title>FoldStatus</title><rect fill="#000000" fill-opacity="0.00000" height="635.3281" width="8" x="1047.3662" y="118.5938"/><line style="stroke:#181818;stroke-width:0.5;stroke-dasharray:5.0,5.0;" x1="1051.3633" x2="1051.3633" y1="118.5938" y2="753.9219"/></g><g><title>evaluate_results.py</title><rect fill="#000000" fill-opacity="0.00000" height="635.3281" width="8" x="1176.7456" y="118.5938"/><line style="stroke:#181818;stroke-width:0.5;stroke-dasharray:5.0,5.0;" x1="1180.3691" x2="1180.3691" y1="118.5938" y2="753.9219"/></g><g><title>generate_visuals.py</title><rect fill="#000000" fill-opacity="0.00000" height="635.3281" width="8" x="1339.1973" y="118.5938"/><line style="stroke:#181818;stroke-width:0.5;stroke-dasharray:5.0,5.0;" x1="1343.1221" x2="1343.1221" y1="118.5938" y2="753.9219"/></g><g class="participant participant-head" data-participant="User"><text fill="#000000" font-family="sans-serif" font-size="14" lengthAdjust="spacing" textLength="31.9102" x="5" y="115.292">User</text><ellipse cx="23.9551" cy="50.7969" fill="#E2E2F0" rx="8" ry="8" style="stroke:#181818;stroke-width:0.5;"/><path d="M23.9551,58.7969 L23.9551,85.7969 M10.9551,66.7969 L36.9551,66.7969 M23.9551,85.7969 L10.9551,100.7969 M23.9551,85.7969 L36.9551,100.7969" fill="none" style="stroke:#181818;stroke-width:0.5;"/></g><g class="participant participant-tail" data-participant="User"><text fill="#000000" font-family="sans-serif" font-size="14" lengthAdjust="spacing" textLength="31.9102" x="5" y="765.917">User</text><ellipse cx="23.9551" cy="777.7188" fill="#E2E2F0" rx="8" ry="8" style="stroke:#181818;stroke-width:0.5;"/><path d="M23.9551,785.7188 L23.9551,812.7188 M10.9551,793.7188 L36.9551,793.7188 M23.9551,812.7188 L10.9551,827.7188 M23.9551,812.7188 L36.9551,827.7188" fill="none" style="stroke:#181818;stroke-width:0.5;"/></g><g class="participant participant-head" data-participant="PipelineRunner"><rect fill="#E2E2F0" height="30.2969" rx="2.5" ry="2.5" style="stroke:#181818;stroke-width:0.5;" width="121.666" x="122.9873" y="87.2969"/><text fill="#000000" font-family="sans-serif" font-size="14" lengthAdjust="spacing" textLength="107.666" x="129.9873" y="107.292">run_pipeline.py</text></g><g class="participant participant-tail" data-participant="PipelineRunner"><rect fill="#E2E2F0" height="30.2969" rx="2.5" ry="2.5" style="stroke:#181818;stroke-width:0.5;" width="121.666" x="122.9873" y="752.9219"/><text fill="#000000" font-family="sans-serif" font-size="14" lengthAdjust="spacing" textLength="107.666" x="129.9873" y="772.917">run_pipeline.py</text></g><g class="participant participant-head" data-participant="Main"><rect fill="#E2E2F0" height="30.2969" rx="2.5" ry="2.5" style="stroke:#181818;stroke-width:0.5;" width="150.9717" x="360.6089" y="87.2969"/><text fill="#000000" font-family="sans-serif" font-size="14" lengthAdjust="spacing" textLength="136.9717" x="367.6089" y="107.292">main_monolithic.py</text></g><g class="participant participant-tail" data-participant="Main"><rect fill="#E2E2F0" height="30.2969" rx="2.5" ry="2.5" style="stroke:#181818;stroke-width:0.5;" width="150.9717" x="360.6089" y="752.9219"/><text fill="#000000" font-family="sans-serif" font-size="14" lengthAdjust="spacing" textLength="136.9717" x="367.6089" y="772.917">main_monolithic.py</text></g><g class="participant participant-head" data-participant="DataLoader"><rect fill="#E2E2F0" height="30.2969" rx="2.5" ry="2.5" style="stroke:#181818;stroke-width:0.5;" width="95.6279" x="601.5361" y="87.2969"/><text fill="#000000" font-family="sans-serif" font-size="14" lengthAdjust="spacing" textLength="81.6279" x="608.5361" y="107.292">DataLoader</text></g><g class="participant participant-tail" data-participant="DataLoader"><rect fill="#E2E2F0" height="30.2969" rx="2.5" ry="2.5" style="stroke:#181818;stroke-width:0.5;" width="95.6279" x="601.5361" y="752.9219"/><text fill="#000000" font-family="sans-serif" font-size="14" lengthAdjust="spacing" textLength="81.6279" x="608.5361" y="772.917">DataLoader</text></g><g class="participant participant-head" data-participant="ModelInitializer"><rect fill="#E2E2F0" height="30.2969" rx="2.5" ry="2.5" style="stroke:#181818;stroke-width:0.5;" width="120.3809" x="707.1641" y="87.2969"/><text fill="#000000" font-family="sans-serif" font-size="14" lengthAdjust="spacing" textLength="106.3809" x="714.1641" y="107.292">ModelInitializer</text></g><g class="participant participant-tail" data-participant="ModelInitializer"><rect fill="#E2E2F0" height="30.2969" rx="2.5" ry="2.5" style="stroke:#181818;stroke-width:0.5;" width="120.3809" x="707.1641" y="752.9219"/><text fill="#000000" font-family="sans-serif" font-size="14" lengthAdjust="spacing" textLength="106.3809" x="714.1641" y="772.917">ModelInitializer</text></g><g class="participant participant-head" data-participant="ResultSerializer"><rect fill="#E2E2F0" height="30.2969" rx="2.5" ry="2.5" style="stroke:#181818;stroke-width:0.5;" width="123.1084" x="837.5449" y="87.2969"/><text fill="#000000" font-family="sans-serif" font-size="14" lengthAdjust="spacing" textLength="109.1084" x="844.5449" y="107.292">ResultSerializer</text></g><g class="participant participant-tail" data-participant="ResultSerializer"><rect fill="#E2E2F0" height="30.2969" rx="2.5" ry="2.5" style="stroke:#181818;stroke-width:0.5;" width="123.1084" x="837.5449" y="752.9219"/><text fill="#000000" font-family="sans-serif" font-size="14" lengthAdjust="spacing" textLength="109.1084" x="844.5449" y="772.917">ResultSerializer</text></g><g class="participant participant-head" data-participant="FoldStatus"><rect fill="#E2E2F0" height="30.2969" rx="2.5" ry="2.5" style="stroke:#181818;stroke-width:0.5;" width="88.0059" x="1007.3633" y="87.2969"/><text fill="#000000" font-family="sans-serif" font-size="14" lengthAdjust="spacing" textLength="74.0059" x="1014.3633" y="107.292">FoldStatus</text></g><g class="participant participant-tail" data-participant="FoldStatus"><rect fill="#E2E2F0" height="30.2969" rx="2.5" ry="2.5" style="stroke:#181818;stroke-width:0.5;" width="88.0059" x="1007.3633" y="752.9219"/><text fill="#000000" font-family="sans-serif" font-size="14" lengthAdjust="spacing" textLength="74.0059" x="1014.3633" y="772.917">FoldStatus</text></g><g class="participant participant-head" data-participant="evaluate_results.py"><rect fill="#E2E2F0" height="30.2969" rx="2.5" ry="2.5" style="stroke:#181818;stroke-width:0.5;" width="150.7529" x="1105.3691" y="87.2969"/><text fill="#000000" font-family="sans-serif" font-size="14" lengthAdjust="spacing" textLength="136.7529" x="1112.3691" y="107.292">evaluate_results.py</text></g><g class="participant participant-tail" data-participant="evaluate_results.py"><rect fill="#E2E2F0" height="30.2969" rx="2.5" ry="2.5" style="stroke:#181818;stroke-width:0.5;" width="150.7529" x="1105.3691" y="752.9219"/><text fill="#000000" font-family="sans-serif" font-size="14" lengthAdjust="spacing" textLength="136.7529" x="1112.3691" y="772.917">evaluate_results.py</text></g><g class="participant participant-head" data-participant="generate_visuals.py"><rect fill="#E2E2F0" height="30.2969" rx="2.5" ry="2.5" style="stroke:#181818;stroke-width:0.5;" width="154.1504" x="1266.1221" y="87.2969"/><text fill="#000000" font-family="sans-serif" font-size="14" lengthAdjust="spacing" textLength="140.1504" x="1273.1221" y="107.292">generate_visuals.py</text></g><g class="participant participant-tail" data-participant="generate_visuals.py"><rect fill="#E2E2F0" height="30.2969" rx="2.5" ry="2.5" style="stroke:#181818;stroke-width:0.5;" width="154.1504" x="1266.1221" y="752.9219"/><text fill="#000000" font-family="sans-serif" font-size="14" lengthAdjust="spacing" textLength="140.1504" x="1273.1221" y="772.917">generate_visuals.py</text></g><g class="message" data-participant-1="User" data-participant-2="PipelineRunner"><polygon fill="#181818" points="171.8203,145.7266,181.8203,149.7266,171.8203,153.7266,175.8203,149.7266" style="stroke:#181818;stroke-width:1;"/><line style="stroke:#181818;stroke-width:1;" x1="23.9551" x2="177.8203" y1="149.7266" y2="149.7266"/><text fill="#000000" font-family="sans-serif" font-size="13" lengthAdjust="spacing" textLength="135.8652" x="30.9551" y="144.6606">Start run_pipeline.py</text></g><g class="message" data-participant-1="PipelineRunner" data-participant-2="FoldStatus"><polygon fill="#181818" points="1039.3662,174.8594,1049.3662,178.8594,1039.3662,182.8594,1043.3662,178.8594" style="stroke:#181818;stroke-width:1;"/><line style="stroke:#181818;stroke-width:1;" x1="183.8203" x2="1045.3662" y1="178.8594" y2="178.8594"/><text fill="#000000" font-family="sans-serif" font-size="13" lengthAdjust="spacing" textLength="120.8276" x="190.8203" y="173.7935">Check train_status</text></g><path d="M112.9873,193.8594 L177.4302,193.8594 L177.4302,200.9922 L167.4302,210.9922 L112.9873,210.9922 L112.9873,193.8594" fill="#EEEEEE" style="stroke:#000000;stroke-width:1.5;"/><rect fill="none" height="46.2656" style="stroke:#000000;stroke-width:1.5;" width="408.5933" x="112.9873" y="193.8594"/><text fill="#000000" font-family="sans-serif" font-size="13" font-weight="bold" lengthAdjust="spacing" textLength="19.4429" x="127.9873" y="206.9263">alt</text><text fill="#000000" font-family="sans-serif" font-size="11" font-weight="bold" lengthAdjust="spacing" textLength="66.6284" x="192.4302" y="206.0698">[Not done]</text><g class="message" data-participant-1="PipelineRunner" data-participant-2="Main"><polygon fill="#181818" points="424.0947,228.125,434.0947,232.125,424.0947,236.125,428.0947,232.125" style="stroke:#181818;stroke-width:1;"/><line style="stroke:#181818;stroke-width:1;" x1="183.8203" x2="430.0947" y1="232.125" y2="232.125"/><text fill="#000000" font-family="sans-serif" font-size="13" lengthAdjust="spacing" textLength="228.2744" x="190.8203" y="227.0591">Launch training with config + kfold</text></g><g class="message" data-participant-1="Main" data-participant-2="DataLoader"><polygon fill="#181818" points="637.3501,264.2578,647.3501,268.2578,637.3501,272.2578,641.3501,268.2578" style="stroke:#181818;stroke-width:1;"/><line style="stroke:#181818;stroke-width:1;" x1="436.0947" x2="643.3501" y1="268.2578" y2="268.2578"/><text fill="#000000" font-family="sans-serif" font-size="13" lengthAdjust="spacing" textLength="189.2554" x="443.0947" y="263.1919">Load and preprocess dataset</text></g><g class="message" data-participant-1="Main" data-participant-2="Main"><line style="stroke:#181818;stroke-width:1;" x1="436.0947" x2="478.0947" y1="297.3906" y2="297.3906"/><line style="stroke:#181818;stroke-width:1;" x1="478.0947" x2="478.0947" y1="297.3906" y2="310.3906"/><line style="stroke:#181818;stroke-width:1;" x1="437.0947" x2="478.0947" y1="310.3906" y2="310.3906"/><polygon fill="#181818" points="447.0947,306.3906,437.0947,310.3906,447.0947,314.3906,443.0947,310.3906" style="stroke:#181818;stroke-width:1;"/><text fill="#000000" font-family="sans-serif" font-size="13" lengthAdjust="spacing" textLength="105.8154" x="443.0947" y="292.3247">Split into K folds</text></g><path d="M330.6089,325.3906 L457.208,325.3906 L457.208,332.5234 L447.208,342.5234 L330.6089,342.5234 L330.6089,325.3906" fill="#EEEEEE" style="stroke:#000000;stroke-width:1.5;"/><rect fill="none" height="295" style="stroke:#000000;stroke-width:1.5;" width="794.7603" x="330.6089" y="325.3906"/><text fill="#000000" font-family="sans-serif" font-size="13" font-weight="bold" lengthAdjust="spacing" textLength="81.5991" x="345.6089" y="338.4575">Train Folds</text><path d="M340.6089,349.5234 L417.2329,349.5234 L417.2329,356.6563 L407.2329,366.6563 L340.6089,366.6563 L340.6089,349.5234" fill="#EEEEEE" style="stroke:#000000;stroke-width:1.5;"/><rect fill="none" height="263.8672" style="stroke:#000000;stroke-width:1.5;" width="774.7603" x="340.6089" y="349.5234"/><text fill="#000000" font-family="sans-serif" font-size="13" font-weight="bold" lengthAdjust="spacing" textLength="31.624" x="355.6089" y="362.5903">loop</text><text fill="#000000" font-family="sans-serif" font-size="11" font-weight="bold" lengthAdjust="spacing" textLength="91.4321" x="432.2329" y="361.7339">[For each fold]</text><g class="message" data-participant-1="Main" data-participant-2="FoldStatus"><polygon fill="#181818" points="1039.3662,383.7891,1049.3662,387.7891,1039.3662,391.7891,1043.3662,387.7891" style="stroke:#181818;stroke-width:1;"/><line style="stroke:#181818;stroke-width:1;" x1="436.0947" x2="1045.3662" y1="387.7891" y2="387.7891"/><text fill="#000000" font-family="sans-serif" font-size="13" lengthAdjust="spacing" textLength="75.0166" x="443.0947" y="382.7231">Check fold_</text><text fill="#000000" font-family="sans-serif" font-size="13" font-style="italic" lengthAdjust="spacing" textLength="30.71" x="518.1113" y="382.7231">.json</text></g><path d="M350.6089,402.7891 L415.0518,402.7891 L415.0518,409.9219 L405.0518,419.9219 L350.6089,419.9219 L350.6089,402.7891" fill="#EEEEEE" style="stroke:#000000;stroke-width:1.5;"/><rect fill="none" height="203.6016" style="stroke:#000000;stroke-width:1.5;" width="754.7603" x="350.6089" y="402.7891"/><text fill="#000000" font-family="sans-serif" font-size="13" font-weight="bold" lengthAdjust="spacing" textLength="19.4429" x="365.6089" y="415.856">alt</text><text fill="#000000" font-family="sans-serif" font-size="11" font-weight="bold" lengthAdjust="spacing" textLength="100.2783" x="430.0518" y="414.9995">[Fold not DONE]</text><g class="message" data-participant-1="Main" data-participant-2="ModelInitializer"><polygon fill="#181818" points="755.3545,437.0547,765.3545,441.0547,755.3545,445.0547,759.3545,441.0547" style="stroke:#181818;stroke-width:1;"/><line style="stroke:#181818;stroke-width:1;" x1="436.0947" x2="761.3545" y1="441.0547" y2="441.0547"/><text fill="#000000" font-family="sans-serif" font-size="13" lengthAdjust="spacing" textLength="105.79" x="443.0947" y="435.9888">Initialize models</text></g><g class="message" data-participant-1="Main" data-participant-2="Main"><line style="stroke:#181818;stroke-width:1;" x1="436.0947" x2="478.0947" y1="470.1875" y2="470.1875"/><line style="stroke:#181818;stroke-width:1;" x1="478.0947" x2="478.0947" y1="470.1875" y2="483.1875"/><line style="stroke:#181818;stroke-width:1;" x1="437.0947" x2="478.0947" y1="483.1875" y2="483.1875"/><polygon fill="#181818" points="447.0947,479.1875,437.0947,483.1875,447.0947,487.1875,443.0947,483.1875" style="stroke:#181818;stroke-width:1;"/><text fill="#000000" font-family="sans-serif" font-size="13" lengthAdjust="spacing" textLength="100.769" x="443.0947" y="465.1216">Train ensemble</text></g><g class="message" data-participant-1="Main" data-participant-2="ResultSerializer"><polygon fill="#181818" points="887.0991,508.3203,897.0991,512.3203,887.0991,516.3203,891.0991,512.3203" style="stroke:#181818;stroke-width:1;"/><line style="stroke:#181818;stroke-width:1;" x1="436.0947" x2="893.0991" y1="512.3203" y2="512.3203"/><text fill="#000000" font-family="sans-serif" font-size="13" lengthAdjust="spacing" textLength="197.2788" x="443.0947" y="507.2544">Save predictions, probs, ranks</text></g><g class="message" data-participant-1="ResultSerializer" data-participant-2="FoldStatus"><polygon fill="#181818" points="1039.3662,537.4531,1049.3662,541.4531,1039.3662,545.4531,1043.3662,541.4531" style="stroke:#181818;stroke-width:1;"/><line style="stroke:#181818;stroke-width:1;" x1="899.0991" x2="1045.3662" y1="541.4531" y2="541.4531"/><text fill="#000000" font-family="sans-serif" font-size="13" lengthAdjust="spacing" textLength="67.082" x="906.0991" y="536.3872">Mark fold_</text><text fill="#000000" font-family="sans-serif" font-size="13" font-style="italic" lengthAdjust="spacing" textLength="57.0527" x="977.3135" y="536.3872">as DONE</text></g><line style="stroke:#000000;stroke-width:1;stroke-dasharray:2.0,2.0;" x1="350.6089" x2="1105.3691" y1="550.4531" y2="550.4531"/><text fill="#000000" font-family="sans-serif" font-size="11" font-weight="bold" lengthAdjust="spacing" textLength="126.1777" x="355.6089" y="560.6636">[Fold already DONE]</text><g class="message" data-participant-1="Main" data-participant-2="Main"><line style="stroke:#181818;stroke-width:1;" x1="436.0947" x2="478.0947" y1="585.3906" y2="585.3906"/><line style="stroke:#181818;stroke-width:1;" x1="478.0947" x2="478.0947" y1="585.3906" y2="598.3906"/><line style="stroke:#181818;stroke-width:1;" x1="437.0947" x2="478.0947" y1="598.3906" y2="598.3906"/><polygon fill="#181818" points="447.0947,594.3906,437.0947,598.3906,447.0947,602.3906,443.0947,598.3906" style="stroke:#181818;stroke-width:1;"/><text fill="#000000" font-family="sans-serif" font-size="13" lengthAdjust="spacing" textLength="56.1704" x="443.0947" y="580.3247">Skip fold</text></g><g class="message" data-participant-1="Main" data-participant-2="FoldStatus"><polygon fill="#181818" points="1039.3662,644.5234,1049.3662,648.5234,1039.3662,652.5234,1043.3662,648.5234" style="stroke:#181818;stroke-width:1;"/><line style="stroke:#181818;stroke-width:1;" x1="436.0947" x2="1045.3662" y1="648.5234" y2="648.5234"/><text fill="#000000" font-family="sans-serif" font-size="13" lengthAdjust="spacing" textLength="185.2563" x="443.0947" y="643.4575">Update train_status = DONE</text></g><g class="message" data-participant-1="PipelineRunner" data-participant-2="FoldStatus"><polygon fill="#181818" points="1039.3662,673.6563,1049.3662,677.6563,1039.3662,681.6563,1043.3662,677.6563" style="stroke:#181818;stroke-width:1;"/><line style="stroke:#181818;stroke-width:1;" x1="183.8203" x2="1045.3662" y1="677.6563" y2="677.6563"/><text fill="#000000" font-family="sans-serif" font-size="13" lengthAdjust="spacing" textLength="162.6968" x="190.8203" y="672.5903">Detect training complete</text></g><g class="message" data-participant-1="PipelineRunner" data-participant-2="evaluate_results.py"><polygon fill="#181818" points="1168.7456,702.7891,1178.7456,706.7891,1168.7456,710.7891,1172.7456,706.7891" style="stroke:#181818;stroke-width:1;"/><line style="stroke:#181818;stroke-width:1;" x1="183.8203" x2="1174.7456" y1="706.7891" y2="706.7891"/><text fill="#000000" font-family="sans-serif" font-size="13" lengthAdjust="spacing" textLength="98.0205" x="190.8203" y="701.7231">Run evaluation</text></g><g class="message" data-participant-1="PipelineRunner" data-participant-2="generate_visuals.py"><polygon fill="#181818" points="1331.1973,731.9219,1341.1973,735.9219,1331.1973,739.9219,1335.1973,735.9219" style="stroke:#181818;stroke-width:1;"/><line style="stroke:#181818;stroke-width:1;" x1="183.8203" x2="1337.1973" y1="735.9219" y2="735.9219"/><text fill="#000000" font-family="sans-serif" font-size="13" lengthAdjust="spacing" textLength="96.5352" x="190.8203" y="730.856">Generate plots</text></g><!--SRC=[XLB1Rjim3BthAuXUj_G3YZINfIk6DctHhDWnO6KcqIABWaIdwxv-b9t4i1DWEJYI-1x9zqXnuWaM7DWxsJeBTt_8Dk8um0GU9j_PL_2Bqsxj-GEcqpaAmWicz9wyo_LiPWnQuGHlcP8n4PCuwo86WHSN5HFejGc14c26gzI4LJmyNyVFgm5-WIwqg5eFg_hKqXcmDF78M6d10PyhyZ-24uVU_Hq5NoatNfQKBWMBogMWDDcOeWCcit7tDw20931IO4Om9VR9bFHjItO7aegYt5L0B_340XK7CW3d2LeVRk0Hcs2t7TU53Noe6M0vhDq6li1khMKCXSgO5g-ytfR2rWDWg20cYeajvGoL0ZB9YN0ej8pgCxWW30zGqgeBcyHDX9-bTYieQwUUEUeb0Q7srTO7_HspNT1TCAkfcrt_pXnQS17VxbHG1-RFJtVjQvzaF4DDrT-WBj4yfdGgkbufPAhVFOqmu-aNrRYdOaxbRDds_5Kl_Av_2SFkMEECDzQvmDJBBCjxqgIDKYSLVIAiFY_AFKnWvs9lQ1bgznsCTr3tBUemQR1OSDjL-DzApad8IhzNbklezUq2Z_Re6wspIgqFMHTU4sZy657ZBj0sf8T2sxlSe3_GxW-l43rB_WS0]--></g></svg>